<svg width="25" height="25" viewBox="0 0 25 25" fill="none" xmlns="http://www.w3.org/2000/svg">
<path fill-rule="evenodd" clip-rule="evenodd" d="M9.43359 3.5C9.43359 3.08579 9.09781 2.75 8.68359 2.75C8.26938 2.75 7.93359 3.08579 7.93359 3.5V5.25H6.68359C4.61253 5.25 2.93359 6.92893 2.93359 9V19C2.93359 21.0711 4.61253 22.75 6.68359 22.75H18.6836C20.7547 22.75 22.4336 21.0711 22.4336 19V9C22.4336 6.92893 20.7547 5.25 18.6836 5.25H17.4336V3.5C17.4336 3.08579 17.0978 2.75 16.6836 2.75C16.2694 2.75 15.9336 3.08579 15.9336 3.5V5.25H9.43359V3.5ZM4.43359 9C4.43359 7.75736 5.44095 6.75 6.68359 6.75H18.6836C19.9262 6.75 20.9336 7.75736 20.9336 9V19C20.9336 20.2426 19.9262 21.25 18.6836 21.25H6.68359C5.44095 21.25 4.43359 20.2426 4.43359 19V9Z" fill="#ADB9F9"/>
<rect x="3.68359" y="10.5" width="18" height="2" fill="#ADB9F9"/>
<rect x="6.68359" y="14.5" width="4" height="4" rx="1" fill="#ADB9F9"/>
</svg>
