<svg width="30" height="27" viewBox="0 0 30 27" fill="none" xmlns="http://www.w3.org/2000/svg">
<path fill-rule="evenodd" clip-rule="evenodd" d="M23.6588 4.10022H26.2499C28.3181 4.10022 29.9999 5.78209 30 7.85028V22.8508C30 24.919 28.3181 26.6009 26.2499 26.6009H3.75012C1.68187 26.6009 0 24.9181 0 22.8499L0.0100726 7.85495C0.0118537 5.7913 1.69102 4.11035 3.75375 4.10667L6.3411 4.10206L8.21527 0.350098H21.7829L23.6588 4.10022ZM7.49926 14.413C7.49926 18.5486 10.8639 21.9132 14.9995 21.9132C19.1351 21.9132 22.4998 18.5486 22.4998 14.413C22.4998 10.2774 19.1351 6.91273 14.9995 6.91273C10.8639 6.91273 7.49926 10.2774 7.49926 14.413ZM17.6515 17.0645C19.1159 15.6001 19.1159 13.2258 17.6515 11.7614C16.187 10.2969 13.8127 10.2969 12.3483 11.7614C10.8839 13.2258 10.8839 15.6001 12.3483 17.0645C13.8127 18.5289 16.187 18.5289 17.6515 17.0645Z" fill="#3355FF"/>
</svg>
