<svg width="30" height="30" viewBox="0 0 30 30" fill="none" xmlns="http://www.w3.org/2000/svg">
<path d="M28.7279 10.9259C28.2384 10.4391 27.4469 10.4412 26.96 10.9307L11.9334 26.0386C9.98392 27.9881 6.81762 27.9881 4.86447 26.0359C2.91278 24.0832 2.91278 20.9169 4.8647 18.965L20.3361 3.41235C21.5532 2.19527 23.532 2.19527 24.7527 3.41498C25.973 4.63528 25.973 6.61387 24.7524 7.83452L11.9358 20.651C11.935 20.6519 11.9343 20.6528 11.9334 20.6536C11.4452 21.1392 10.6561 21.1385 10.1688 20.6513C9.68069 20.1632 9.68069 19.3721 10.1688 18.884L16.3553 12.6962C16.8434 12.208 16.8433 11.4165 16.3551 10.9284C15.8669 10.4403 15.0754 10.4404 14.5873 10.9286L8.40086 17.1162C6.93651 18.5806 6.93651 20.9546 8.40098 22.419C9.86539 23.8834 12.2394 23.8834 13.7039 22.419C13.7056 22.4173 13.7069 22.4155 13.7086 22.4138L26.5202 9.60222C28.7171 7.40525 28.7171 3.84372 26.5202 1.64676C24.3229 -0.548919 20.7616 -0.548919 18.5659 1.64676L3.09454 17.1995C0.168655 20.1254 0.168655 24.8743 3.09665 27.8037C6.02658 30.7321 10.7755 30.7321 13.7037 27.804L28.7327 12.6938C29.2195 12.2043 29.2173 11.4128 28.7279 10.9259Z" fill="#3355FF"/>
</svg>
