<svg version="1.1" viewBox="0 0 166 25" xmlns="http://www.w3.org/2000/svg">
 <path d="m1 0c-0.5523 0-1 0.4477-1 1v23c0 0.5523 0.4477 1 1 1h23.32c0.5523 0 1-0.4477 1-1v-23c0-0.5523-0.4477-1-1-1h-23.32zm52.57 2.777c-1.19-1e-7 -2.156 0.8855-2.156 1.977 0 1.091 0.9661 1.977 2.156 1.977 1.19-1e-7 2.156-0.8855 2.156-1.977 0-1.091-0.9667-1.977-2.156-1.977zm48.06 1.09v16.35h3.695v-16.35h-3.695zm38.23 0.05664v16.5h3.377v-3.158l1.812-1.74 3.76 4.898h4.1l-5.498-7.164 5.008-4.807h-4.129l-5.053 4.85v-9.375h-3.377zm-53.94 0.8086v15.52h3.477v-1.445h0.04883c0.7771 1.164 2.08 1.748 3.91 1.748 1.268 0 2.33-0.2857 3.186-0.8535 0.8548-0.5683 1.485-1.324 1.891-2.268 0.4052-0.9428 0.6055-1.962 0.6055-3.061 1e-6 -0.9744-0.1474-1.834-0.4434-2.578-0.2949-0.7444-0.703-1.365-1.225-1.861-0.5228-0.4967-1.121-0.8672-1.795-1.113-0.673-0.2461-1.389-0.3691-2.145-0.3691-1.694 0-2.997 0.5985-3.91 1.797h-0.04883v-5.518h-3.551zm-49.35 0.05078v15.52h3.668v-5.641h7.246v-2.951h-7.246v-3.951h8.199v-2.979h-11.87zm-23.92 2.162 7.035 11.11h-14.07l7.033-11.11zm102.8 1.102c-3.653 0-6.611 2.77-6.611 6.186 0 3.417 2.959 6.188 6.611 6.188 3.65 0 6.611-2.771 6.611-6.188 0-3.416-2.961-6.186-6.611-6.186zm15.7 0.001953c-3.651 0-6.611 2.769-6.611 6.186 0 3.416 2.96 6.186 6.611 6.186 2.352 0 4.416-1.149 5.588-2.879l-2.869-1.641c-0.5565 0.9389-1.565 1.568-2.719 1.568-1.754 0-3.176-1.448-3.176-3.234 0-1.787 1.422-3.236 3.176-3.236 1.21 0 2.264 0.6895 2.799 1.705l2.855-1.678c-1.16-1.786-3.258-2.977-5.654-2.977zm29.12 0.07422c-2.906 1e-6 -5.484 1.566-5.484 3.934 1e-5 2.368 2.29 3.189 3.83 3.438 0.2199 0.03547 0.4481 0.06445 0.6797 0.0918l0.5215 0.05859c1.212 0.1415 2.34 0.321 2.34 1.166 0 1.126-3.388 1.738-6.371-0.1523l-1.154 2.539s1.731 1.223 5.543 1.223c3.81 0 5.369-2.006 5.369-3.82 0-1.814-1.25-2.939-3.945-3.436-2.694-0.4967-3.387-0.5531-3.387-1.26 0-0.7061 1.751-2.12 5.619-0.1152l1.193-2.559s-1.848-1.107-4.754-1.107zm-84.12 0.005859c-4.677 0-6.41 3.384-6.41 6.42 0 3.036 2.308 5.898 6.639 5.898 2.801 0 4.159-0.9152 5.17-1.918l-1.965-2.004s-1.11 1.244-3.174 1.244c-1.713 0-2.956-0.9478-3.33-2.391h9.246s0.5796-7.25-6.176-7.25zm-9.865 0.01562c-2.047 0.1778-3.043 1.736-3.043 1.736v-0.08594l-0.1523-1.404h-3.34v11.91h3.492v-6.559c1.068-3.007 3.984-2.262 3.984-2.262v-3.322c-0.3356-0.03944-0.6489-0.04298-0.9414-0.01758zm-14.54 0.2461v11.91h3.668v-11.91h-3.668zm24.46 2.334c2.252 0 2.844 2.162 2.873 2.535h-5.988c0.3354-1.434 1.329-2.535 3.115-2.535zm39.24 0.2734c1.753 0 3.176 1.447 3.176 3.234 0 1.788-1.422 3.236-3.176 3.236-1.755 0-3.176-1.449-3.176-3.236 0-1.787 1.421-3.234 3.176-3.234zm-23.07 0.07226c1.052 1e-6 1.818 0.3336 2.299 1.002 0.4806 0.6683 0.7227 1.508 0.7227 2.521 0 0.5272-0.09334 1.057-0.2773 1.586-0.1834 0.5294-0.4925 0.9757-0.9297 1.342-0.4378 0.3656-1.007 0.5488-1.709 0.5488-1.053 0-1.839-0.3164-2.361-0.9492-0.5216-0.6333-0.7832-1.417-0.7832-2.352 0-2.466 1.013-3.699 3.039-3.699z"/>
</svg>
