<svg width="0" height="0" position="absolute" xmlns="http://www.w3.org/2000/svg">
<symbol id="i-edit" viewBox="0 0 15 15" ><path d="M14.623 0.37696C14.8644 0.618028 15 0.945024 15 1.28613C15 1.62722 14.8644 1.95423 14.623 2.1953L8.25996 8.55843L5.53249 9.4676L6.44165 6.7401L12.8047 0.37696C13.0458 0.135613 13.3728 0 13.7139 0C14.055 0 14.382 0.135602 14.623 0.37696ZM0.833339 15H13.3331C13.5542 15 13.7661 14.9122 13.9223 14.7559C14.0786 14.5996 14.1665 14.3877 14.1665 14.1667V7.50002C14.1665 7.20231 14.0076 6.92721 13.7498 6.77835C13.492 6.62949 13.1743 6.62949 12.9165 6.77835C12.6587 6.92721 12.4998 7.20231 12.4998 7.50002V13.3332H1.66682V2.50008H7.49991C7.79761 2.50008 8.07272 2.34118 8.22157 2.08337C8.37042 1.82556 8.37042 1.50791 8.22157 1.2501C8.07272 0.992278 7.79761 0.833387 7.49991 0.833387H0.833264C0.612287 0.833387 0.40038 0.921275 0.244134 1.07752C0.0877478 1.23377 0 1.4457 0 1.6668V14.1667C0 14.3876 0.0877478 14.5995 0.244134 14.7558C0.40038 14.9122 0.612305 14.9999 0.833264 14.9999L0.833339 15Z" fill="#30489B"/></symbol>
<symbol id="i-save" viewBox="0 0 15 15" ><path d="m7.059 0.875a0.8251 0.8251 0 0 0-0.8262 0.8242v6.424l-1.439-1.439a0.825 0.825 0 0 0-0.584-0.2402 0.825 0.825 0 0 0-0.582 0.2402 0.825 0.825 0 0 0 0 1.168l3.432 3.432 0.541-0.543 2.891-2.889a0.825 0.825 0 0 0 0-1.168 0.825 0.825 0 0 0-1.166 0l-1.441 1.441v-5.6h4.793v10.82h-11.03v-5.85a0.825 0.825 0 0 0-0.8262-0.8242 0.825 0.825 0 0 0-0.8242 0.8242v6.676a0.8251 0.8251 0 0 0 0.8242 0.8242h12.68a0.8251 0.8251 0 0 0 0.8242-0.8242v-12.48a0.8251 0.8251 0 0 0-0.8242-0.8242h-6.441z"/></symbol>
<symbol id="accepted" viewBox="0 0 21 20" ><path d="M10.4609 0C4.93844 0 0.460938 4.4775 0.460938 10C0.460938 15.5225 4.93844 20 10.4609 20C15.9834 20 20.4609 15.5225 20.4609 10C20.4609 4.4775 15.9834 0 10.4609 0ZM8.91094 14.6144L4.30969 10.0125L6.07719 8.245L8.91031 11.0794L14.9209 5.06875L16.6884 6.83625L8.91094 14.6144Z"></path></symbol>
<symbol id="add" viewBox="0 0 82 82" ><path d="M41.0002 81.1171C63.1564 81.1171 81.1176 63.1559 81.1176 40.9997C81.1176 18.8435 63.1564 0.882324 41.0002 0.882324C18.844 0.882324 0.882812 18.8435 0.882812 40.9997C0.882812 63.1559 18.844 81.1171 41.0002 81.1171ZM40.9991 65.6772C39.278 65.6772 37.8827 64.282 37.8827 62.5608V44.1164H19.4374C17.7163 44.1164 16.321 42.7211 16.321 40.9999C16.321 39.2788 17.7163 37.8835 19.4374 37.8835H37.8827V19.4386C37.8827 17.7174 39.278 16.3221 40.9991 16.3221C42.7203 16.3221 44.1156 17.7174 44.1156 19.4386V37.8835H62.5597C64.2808 37.8835 65.6761 39.2788 65.6761 40.9999C65.6761 42.7211 64.2808 44.1164 62.5597 44.1164H44.1156V62.5608C44.1156 64.282 42.7203 65.6772 40.9991 65.6772Z"></path></symbol>
<symbol id="back" viewBox="0 0 21 15" ><path d="M19.3906 6.0878H4.56562L9.10313 1.7278C9.3153 1.52358 9.41738 1.2603 9.3869 0.995876C9.35643 0.73145 9.1959 0.487539 8.94063 0.3178C8.68535 0.148062 8.35625 0.0663996 8.02572 0.0907794C7.69519 0.115159 7.3903 0.243584 7.17812 0.4478L0.928125 6.4478C0.886076 6.49552 0.848474 6.54566 0.815625 6.5978C0.815625 6.6478 0.815625 6.6778 0.728125 6.7278C0.671467 6.84246 0.641801 6.96451 0.640625 7.0878C0.641801 7.21109 0.671467 7.33314 0.728125 7.4478C0.728125 7.4978 0.728125 7.5278 0.815625 7.5778C0.848474 7.62994 0.886076 7.68008 0.928125 7.7278L7.17812 13.7278C7.29565 13.8407 7.44283 13.9315 7.60918 13.9937C7.77554 14.0559 7.95699 14.088 8.14062 14.0878C8.43269 14.0883 8.71574 14.0069 8.94063 13.8578C9.0672 13.7739 9.17183 13.6707 9.24852 13.5544C9.32521 13.4381 9.37245 13.3107 9.38755 13.1798C9.40264 13.0488 9.38529 12.9167 9.33648 12.7911C9.28768 12.6655 9.20838 12.5488 9.10313 12.4478L4.56562 8.0878H19.3906C19.7221 8.0878 20.0401 7.98244 20.2745 7.79491C20.5089 7.60737 20.6406 7.35302 20.6406 7.0878C20.6406 6.82258 20.5089 6.56823 20.2745 6.38069C20.0401 6.19316 19.7221 6.0878 19.3906 6.0878Z"></path></symbol>
<symbol id="briefcase" viewBox="0 0 20 20" fill="none" ><path d="M18.3333 4.16655H14.1667V3.33319C14.1667 2.41401 13.4192 1.6665 12.5 1.6665H7.5C6.58082 1.6665 5.83332 2.41397 5.83332 3.33319V4.16651H1.66668C0.747461 4.16655 0 4.91401 0 5.83319V8.33319C0 9.25242 0.747461 9.99988 1.66668 9.99988H8.33336V9.5832C8.33336 9.35288 8.51973 9.16652 8.75004 9.16652H11.25C11.4804 9.16652 11.6667 9.35288 11.6667 9.5832V9.99988H18.3334C19.2525 9.99988 20 9.25242 20 8.33319V5.83319C20 4.91401 19.2525 4.16655 18.3333 4.16655ZM12.5 4.16655H7.5V3.33319H12.5V4.16655Z" fill="#002CCB"></path><path d="M19.7689 10.044C19.6269 9.97361 19.4572 9.9899 19.3318 10.0851C19.0356 10.3093 18.6905 10.4277 18.3333 10.4277H11.6667V11.6777C11.6667 11.908 11.4803 12.0944 11.25 12.0944H8.75C8.51969 12.0944 8.33332 11.908 8.33332 11.6777V10.4277H1.66668C1.30941 10.4277 0.964375 10.3093 0.668125 10.0851C0.542383 9.98908 0.373125 9.97279 0.231094 10.044C0.0895312 10.1144 0 10.2588 0 10.4172V16.2611C0 17.1803 0.747461 17.9278 1.66668 17.9278H18.3334C19.2525 17.9278 20 17.1803 20 16.2611V10.4172C20 10.2588 19.9105 10.1144 19.7689 10.044Z" fill="#002CCB"></path></symbol>
<symbol id="check" viewBox="-1 -1 22 22" ><path d="M10 0C4.4775 0 0 4.4775 0 10C0 15.5225 4.4775 20 10 20C15.5225 20 20 15.5225 20 10C20 4.4775 15.5225 0 10 0ZM8.45 14.6144L3.84875 10.0125L5.61625 8.245L8.44938 11.0794L14.46 5.06875L16.2275 6.83625L8.45 14.6144Z"></path></symbol>
<symbol id="i-reject" viewBox="-1 -1 22 22" ><path id="path2" d="m10 0c-5.522 0-10 4.478-10 10 0 5.522 4.478 10 10 10 5.522 0 10-4.478 10-10 0-5.522-4.478-10-10-10zm-3.627 4.605 3.627 3.627 3.627-3.627 1.768 1.768-3.627 3.627 3.627 3.627-1.768 1.768-3.627-3.627-3.627 3.627-1.768-1.768 3.627-3.627-3.627-3.627 1.768-1.768z"/></symbol>
<symbol id="burger-icon" viewBox="0 0 35 21" fill="none" ><rect width="35" height="3" rx="1.5" fill="#3355FF"></rect><rect y="9" width="35" height="3" rx="1.5" fill="#3355FF"></rect><rect y="18" width="35" height="3" rx="1.5" fill="#3355FF"></rect></symbol>
<symbol id="i-close" viewBox="0 0 22 22" ><path d="M9.7846 11.001L0.251699 1.46807C-0.0839291 1.13244 -0.0839291 0.588283 0.251699 0.252698C0.587326 -0.0828875 1.13148 -0.0829305 1.46707 0.252698L11 9.78564L20.5329 0.252698C20.8685 -0.0829305 21.4127 -0.0829305 21.7483 0.252698C22.0839 0.588326 22.0839 1.13248 21.7483 1.46807L12.2154 11.001L21.7483 20.5339C22.0839 20.8695 22.0839 21.4137 21.7483 21.7493C21.5805 21.9171 21.3605 22.0009 21.1406 22.0009C20.9206 22.0009 20.7007 21.9171 20.5329 21.7493L11 12.2164L1.46711 21.7493C1.29932 21.9171 1.07936 22.0009 0.859406 22.0009C0.639448 22.0009 0.419535 21.9171 0.251699 21.7493C-0.0839291 21.4137 -0.0839291 20.8695 0.251699 20.5339L9.7846 11.001Z"></path></symbol>
<symbol id="compare" viewBox="0 0 30 31" ><path d="M29.6838 22.3248L24.0588 17.6373C23.7968 17.419 23.4323 17.3719 23.1233 17.5166C22.8145 17.6612 22.6172 17.9715 22.6172 18.3125V20.2461H19.7461C17.1417 20.2461 14.9414 18.0727 14.9414 15.5C14.9414 13.2426 14.2312 11.1138 12.8899 9.34672C10.9588 6.77902 7.89252 5.24609 4.6875 5.24609H2.75391C1.23539 5.24609 0 6.48148 0 8C0 9.51852 1.23539 10.7539 2.75391 10.7539H4.6875C7.30453 10.7539 9.43359 12.883 9.43359 15.5C9.43359 17.7574 10.1438 19.8862 11.4851 21.6533C13.4162 24.221 16.5044 25.7539 19.7461 25.7539H22.6172V27.6875C22.6172 28.0286 22.8145 28.3388 23.1233 28.4834C23.2423 28.5392 23.3695 28.5664 23.4959 28.5664C23.6978 28.5664 23.8977 28.4969 24.0588 28.3627L29.6838 23.6752C29.8841 23.5082 30 23.2608 30 23C30 22.7392 29.8842 22.4918 29.6838 22.3248Z"></path><path d="M10.0826 22.7133C9.17789 21.5205 8.51877 20.1894 8.12121 18.7715C7.25619 19.679 6.03727 20.2463 4.6875 20.2463H2.75391C1.23539 20.2463 0 21.4817 0 23.0002C0 24.5187 1.23539 25.7541 2.75391 25.7541H4.6875C6.9351 25.7541 9.11385 24.9994 10.8813 23.6635C10.6 23.3618 10.3326 23.0454 10.0826 22.7133Z"></path><path d="M29.6834 7.32484L24.0584 2.63734C23.7964 2.41902 23.432 2.37191 23.1229 2.51658C22.8141 2.66125 22.6168 2.9715 22.6168 3.31252V5.24611H19.7457C17.4712 5.24611 15.2728 6.00168 13.4961 7.3389C13.7764 7.64019 14.0429 7.95607 14.2925 8.28765C15.2053 9.49129 15.8681 10.8358 16.2644 12.2682C17.1475 11.3424 18.3915 10.7539 19.7457 10.7539H22.6168V12.6875C22.6168 13.0285 22.8141 13.3388 23.1229 13.4835C23.4318 13.6281 23.7964 13.581 24.0584 13.3627L29.6834 8.67519C29.8838 8.5082 29.9996 8.26082 29.9996 8.00002C29.9996 7.73922 29.8837 7.49183 29.6834 7.32484Z"></path></symbol>
<symbol id="favorites" viewBox="-1 0 32 27" ><path d="M27.6201 2.75262C26.0671 1.06828 23.9362 0.140625 21.6195 0.140625C19.8878 0.140625 18.3018 0.68811 16.9057 1.76775C16.2012 2.31271 15.5628 2.97945 15 3.75764C14.4374 2.97968 13.7988 2.31271 13.0941 1.76775C11.6982 0.68811 10.1122 0.140625 8.38051 0.140625C6.06377 0.140625 3.93265 1.06828 2.37968 2.75262C0.845261 4.41728 0 6.69145 0 9.15651C0 11.6937 0.945511 14.0161 2.97546 16.4656C4.79141 18.6567 7.40135 20.881 10.4237 23.4566C11.4558 24.3362 12.6256 25.3332 13.8403 26.3952C14.1611 26.6763 14.5729 26.831 15 26.831C15.4269 26.831 15.8389 26.6763 16.1593 26.3957C17.374 25.3334 18.5445 24.336 19.577 23.4559C22.5989 20.8808 25.2088 18.6567 27.0248 16.4654C29.0547 14.0161 30 11.6937 30 9.15628C30 6.69145 29.1547 4.41728 27.6201 2.75262Z"></path></symbol>
<symbol id="delete-red" viewBox="0 0 18 18" ><path fill-rule="evenodd" clip-rule="evenodd" d="M17.9355 8.6123C17.9355 13.3687 14.0797 17.2246 9.32324 17.2246C4.5668 17.2246 0.710938 13.3687 0.710938 8.6123C0.710938 3.85586 4.5668 0 9.32324 0C14.0797 0 17.9355 3.85586 17.9355 8.6123ZM12.5529 4.92132H10.8612V4.61373C10.8612 4.10411 10.448 3.69099 9.93841 3.69099H8.70808C8.19845 3.69099 7.78533 4.10411 7.78533 4.61373V4.92132H6.09363C5.66895 4.92132 5.32467 5.2656 5.32467 5.69027V6.30544C5.32467 6.47532 5.46237 6.61302 5.63225 6.61302H13.0142C13.1841 6.61302 13.3218 6.47532 13.3218 6.30544V5.69027C13.3218 5.2656 12.9775 4.92132 12.5529 4.92132ZM8.4005 4.61373C8.4005 4.44418 8.53852 4.30615 8.70808 4.30615H9.93841C10.108 4.30615 10.246 4.44418 10.246 4.61373V4.92132H8.4005V4.61373ZM5.81311 7.32888C5.8105 7.27405 5.85423 7.22818 5.90912 7.22818H12.7388C12.7937 7.22818 12.8374 7.27405 12.8348 7.32888L12.5811 12.6547C12.5576 13.1476 12.1528 13.5336 11.6595 13.5336H6.98846C6.49518 13.5336 6.09032 13.1476 6.06687 12.6547L5.81311 7.32888ZM10.8619 7.68956C10.6919 7.68956 10.5543 7.8272 10.5543 7.99714V11.9957C10.5543 12.1656 10.6919 12.3033 10.8619 12.3033C11.0318 12.3033 11.1695 12.1656 11.1695 11.9957V7.99714C11.1695 7.8272 11.0318 7.68956 10.8619 7.68956ZM9.32397 7.68956C9.15403 7.68956 9.01639 7.8272 9.01639 7.99714V11.9957C9.01639 12.1656 9.15403 12.3033 9.32397 12.3033C9.49391 12.3033 9.63156 12.1656 9.63156 11.9957V7.99714C9.63156 7.8272 9.49391 7.68956 9.32397 7.68956ZM7.78606 7.68956C7.61612 7.68956 7.47848 7.8272 7.47848 7.99714V11.9957C7.47848 12.1656 7.61612 12.3033 7.78606 12.3033C7.956 12.3033 8.09364 12.1656 8.09364 11.9957V7.99714C8.09364 7.8272 7.956 7.68956 7.78606 7.68956Z"></path></symbol>
<symbol id="heart" viewBox="0 0 18 18" ><path d="M15.9014 2.90982C15.0214 1.95536 13.8139 1.42969 12.501 1.42969C11.5197 1.42969 10.621 1.73993 9.82988 2.35172C9.43066 2.66054 9.06893 3.03835 8.75 3.47933C8.4312 3.03848 8.06934 2.66054 7.66999 2.35172C6.87895 1.73993 5.98026 1.42969 4.99895 1.42969C3.68613 1.42969 2.4785 1.95536 1.59849 2.90982C0.728981 3.85313 0.25 5.14182 0.25 6.53869C0.25 7.97641 0.785789 9.29247 1.9361 10.6805C2.96513 11.9221 4.4441 13.1826 6.15678 14.6421C6.7416 15.1405 7.4045 15.7055 8.09281 16.3073C8.27465 16.4666 8.50798 16.5542 8.75 16.5542C8.99189 16.5542 9.22535 16.4666 9.40693 16.3075C10.0952 15.7056 10.7585 15.1404 11.3436 14.6417C13.056 13.1824 14.535 11.9221 15.564 10.6804C16.7143 9.29247 17.25 7.97641 17.25 6.53856C17.25 5.14182 16.771 3.85313 15.9014 2.90982Z"></path></symbol>
<symbol id="next" viewBox="0 0 37 37" ><path fill-rule="evenodd" clip-rule="evenodd" d="M18.6947 0.399112C28.8016 0.399111 36.9949 8.59239 36.9949 18.6993C36.9949 28.8062 28.8017 36.9995 18.6947 36.9995C8.58781 36.9995 0.394531 28.8062 0.39453 18.6993C0.39453 8.59239 8.58781 0.399112 18.6947 0.399112ZM15.0703 25.6286C13.9798 26.7191 13.9798 28.4873 15.0703 29.5779C16.1609 30.6684 17.9291 30.6684 19.0196 29.5779L28.5166 20.0809C29.2799 19.3176 29.2799 18.08 28.5166 17.3166L19.0196 7.81967C17.9291 6.72911 16.1609 6.72911 15.0703 7.81967C13.9798 8.91024 13.9798 10.6784 15.0703 11.769L20.618 17.3166C21.3813 18.08 21.3813 19.3176 20.618 20.0809L15.0703 25.6286ZM17.4532 18.6987C17.4532 17.2684 16.2937 16.1088 14.8633 16.1088C13.433 16.1088 12.2735 17.2684 12.2735 18.6987C12.2735 20.129 13.433 21.2886 14.8633 21.2886C16.2937 21.2886 17.4532 20.129 17.4532 18.6987Z"></path></symbol>
<symbol id="load-more" viewBox="0 0 46 46" ><path fill-rule="evenodd" clip-rule="evenodd" d="M45.5 23C45.5 35.4264 35.4264 45.5 23 45.5C10.5736 45.5 0.5 35.4264 0.5 23C0.5 10.5736 10.5736 0.5 23 0.5C35.4264 0.5 45.5 10.5736 45.5 23ZM14.4804 18.5436C13.1396 17.2028 10.9656 17.2028 9.62477 18.5436C8.28393 19.8845 8.28393 22.0584 9.62478 23.3993L21.3012 35.0757C22.2398 36.0142 23.7614 36.0142 24.6999 35.0757L36.3763 23.3993C37.7172 22.0584 37.7172 19.8845 36.3763 18.5436C35.0355 17.2028 32.8616 17.2028 31.5207 18.5436L24.6999 25.3645C23.7614 26.303 22.2398 26.303 21.3012 25.3645L14.4804 18.5436ZM23.0006 21.4736C24.7592 21.4736 26.1849 20.048 26.1849 18.2894C26.1849 16.5308 24.7592 15.1052 23.0006 15.1052C21.242 15.1052 19.8164 16.5308 19.8164 18.2894C19.8164 20.048 21.242 21.4736 23.0006 21.4736Z"></path></symbol>
<symbol id="pending" viewBox="0 0 22 22" ><path fill-rule="evenodd" clip-rule="evenodd" d="M11 0C4.917 0 0 4.917 0 11C0 17.083 4.917 22 11 22C17.083 22 22 17.083 22 11C22 4.917 17.083 0 11 0ZM14.5 16H15C15.2765 16 15.5 16.224 15.5 16.5C15.5 16.776 15.2765 17 15 17H7C6.7235 17 6.5 16.776 6.5 16.5C6.5 16.224 6.7235 16 7 16H7.5V14.3635C7.5 13.5495 7.8465 12.771 8.4515 12.226L9.298 11.4645C9.4315 11.3445 9.505 11.1795 9.505 11C9.505 10.8205 9.4315 10.6555 9.298 10.535L8.4515 9.7735C7.8465 9.2295 7.5 8.4505 7.5 7.6365V6H7C6.7235 6 6.5 5.776 6.5 5.5C6.5 5.224 6.7235 5 7 5H15C15.2765 5 15.5 5.224 15.5 5.5C15.5 5.776 15.2765 6 15 6H14.5V7.6365C14.5 8.4505 14.1535 9.229 13.5485 9.774L12.702 10.5355C12.5685 10.6555 12.495 10.8205 12.495 11C12.495 11.1795 12.5685 11.3445 12.702 11.465L13.5485 12.2265C14.1535 12.7705 14.5 13.5495 14.5 14.3635V16ZM9.403 13.442C9.143 13.702 9 14.047 9 14.4145V16H13.0005V14.4145C13.0005 14.047 12.8575 13.702 12.5975 13.442L11.2655 12.11C11.119 11.9635 10.8815 11.9635 10.735 12.11L9.403 13.442Z"></path></symbol>
<symbol id="prev" viewBox="0 0 37 37" ><path fill-rule="evenodd" clip-rule="evenodd" d="M18.3053 36.9998C8.19835 36.9998 0.00506849 28.8065 0.00506893 18.6996C0.00506937 8.59269 8.19835 0.399413 18.3053 0.399413C28.4122 0.399414 36.6055 8.59269 36.6055 18.6996C36.6055 28.8065 28.4122 36.9998 18.3053 36.9998ZM21.9297 11.7704C23.0202 10.6798 23.0202 8.91164 21.9297 7.82107C20.8391 6.7305 19.0709 6.73051 17.9804 7.82107L8.4834 17.318C7.72008 18.0814 7.72008 19.319 8.4834 20.0823L17.9804 29.5792C19.0709 30.6698 20.8391 30.6698 21.9297 29.5792C23.0202 28.4887 23.0202 26.7205 21.9297 25.63L16.382 20.0823C15.6187 19.319 15.6187 18.0814 16.382 17.318L21.9297 11.7704ZM19.5468 18.7002C19.5468 20.1306 20.7063 21.2901 22.1367 21.2901C23.567 21.2901 24.7265 20.1306 24.7265 18.7002C24.7265 17.2699 23.567 16.1104 22.1367 16.1104C20.7063 16.1104 19.5468 17.2699 19.5468 18.7002Z"></path></symbol>
<symbol id="select-arrow" viewBox="0 0 12 8" ><path d="M6.4079 6.97899L11.5456 1.83961C11.7705 1.6141 11.7705 1.24873 11.5456 1.02265C11.3206 0.797138 10.9553 0.797138 10.7303 1.02265L6.0003 5.75438L1.27028 1.02322C1.04534 0.797707 0.679976 0.797707 0.454463 1.02322C0.22952 1.24873 0.22952 1.61467 0.454463 1.84018L5.59213 6.97956C5.81475 7.20165 6.18586 7.20165 6.4079 6.97899Z"></path></symbol>
<symbol id="settings-icon-2" viewBox="0 0 20 20" ><path d="M10.0013 0C7.14418 0 4.80859 2.33559 4.80859 5.19275C4.80859 8.04991 7.14418 10.3855 10.0013 10.3855C12.8585 10.3855 15.1941 8.04991 15.1941 5.19275C15.1941 2.33559 12.8585 0 10.0013 0Z"></path><path d="M18.913 14.5355C18.7769 14.1954 18.5955 13.8779 18.3915 13.5831C17.3484 12.0412 15.7384 11.0208 13.9244 10.7713C13.6976 10.7487 13.4482 10.794 13.2668 10.93C12.3144 11.633 11.1806 11.9958 10.0014 11.9958C8.82228 11.9958 7.68851 11.633 6.73612 10.93C6.5547 10.794 6.30526 10.726 6.07853 10.7713C4.26446 11.0208 2.63183 12.0412 1.61143 13.5831C1.40735 13.8779 1.22592 14.2181 1.0899 14.5355C1.02189 14.6716 1.04454 14.8303 1.11256 14.9664C1.29398 15.2838 1.52071 15.6013 1.72479 15.8734C2.04224 16.3043 2.38239 16.6897 2.76789 17.0525C3.08534 17.37 3.44815 17.6648 3.81099 17.9595C5.60236 19.2974 7.75657 20.0003 9.97879 20.0003C12.201 20.0003 14.3552 19.2974 16.1466 17.9595C16.5094 17.6875 16.8722 17.37 17.1897 17.0525C17.5525 16.6897 17.9153 16.3042 18.2328 15.8734C18.4595 15.5786 18.6636 15.2838 18.845 14.9664C18.9583 14.8303 18.981 14.6715 18.913 14.5355Z" /></symbol>
<symbol id="share" viewBox="0 0 30 31" ><path d="M15.7895 0.5L30 14.3462L15.7895 27.4231V18.9615C4.73684 18.9615 0 30.5 0 30.5C0 17.4231 3.94737 8.96154 15.7895 8.96154V0.5Z"></path></symbol>
<symbol id="shuffle" viewBox="0 0 18 18" ><path d="M17.5708 12.8674L14.3833 10.2112C14.2349 10.0874 14.0283 10.0607 13.8532 10.1427C13.6782 10.2247 13.5664 10.4005 13.5664 10.5938V11.6895H11.9395C10.4636 11.6895 9.2168 10.4578 9.2168 9C9.2168 7.72082 8.81434 6.51448 8.05429 5.51314C6.96001 4.05811 5.22243 3.18945 3.40625 3.18945H2.31055C1.45005 3.18945 0.75 3.88951 0.75 4.75C0.75 5.61049 1.45005 6.31055 2.31055 6.31055H3.40625C4.88923 6.31055 6.0957 7.51702 6.0957 9C6.0957 10.2792 6.49816 11.4855 7.25821 12.4869C8.35249 13.9419 10.1025 14.8105 11.9395 14.8105H13.5664V15.9062C13.5664 16.0995 13.6782 16.2753 13.8532 16.3573C13.9206 16.3889 13.9927 16.4043 14.0644 16.4043C14.1787 16.4043 14.292 16.3649 14.3833 16.2888L17.5708 13.6326C17.6843 13.538 17.75 13.3978 17.75 13.25C17.75 13.1022 17.6844 12.962 17.5708 12.8674Z"></path><path d="M6.46349 13.0872C5.9508 12.4113 5.5773 11.657 5.35202 10.8535C4.86184 11.3678 4.17112 11.6892 3.40625 11.6892H2.31055C1.45005 11.6892 0.75 12.3893 0.75 13.2498C0.75 14.1103 1.45005 14.8103 2.31055 14.8103H3.40625C4.67989 14.8103 5.91451 14.3827 6.91609 13.6256C6.75664 13.4547 6.60514 13.2754 6.46349 13.0872Z"></path><path d="M17.5707 4.36741L14.3832 1.71116C14.2348 1.58745 14.0283 1.56075 13.8532 1.64273C13.6781 1.72471 13.5663 1.90052 13.5663 2.09376V3.18946H11.9394C10.6505 3.18946 9.40477 3.61762 8.39795 4.37538C8.55679 4.54611 8.70783 4.72511 8.84925 4.913C9.36652 5.59506 9.74208 6.35694 9.96663 7.16866C10.4671 6.64402 11.172 6.31056 11.9394 6.31056H13.5663V7.40626C13.5663 7.5995 13.6781 7.77531 13.8532 7.85729C14.0282 7.93924 14.2348 7.91258 14.3832 7.78886L17.5707 5.13261C17.6843 5.03798 17.7499 4.8978 17.7499 4.75001C17.7499 4.60222 17.6843 4.46204 17.5707 4.36741Z"></path></symbol>
<symbol viewBox="0 0 11 14" id="i-download"><path d="M1.37506 7.40436L4.5179 10.4534V0H6.48216V10.4534L9.625 7.40436L11 8.64892L5.5 14L0 8.64892L1.37506 7.40436Z"/></symbol>
<symbol id="i-soc-yt" viewBox="0 0 36 36"><path d="M15.7578 21.3724L21.613 18.0002L15.7578 14.6279V21.3724Z" /><path d="M18 0C8.06039 0 0 8.06039 0 18C0 27.9396 8.06039 36 18 36C27.9396 36 36 27.9396 36 18C36 8.06039 27.9396 0 18 0ZM29.2473 18.0184C29.2473 18.0184 29.2473 21.6689 28.7842 23.4292C28.5246 24.3927 27.7649 25.1524 26.8014 25.4117C25.0411 25.875 18 25.875 18 25.875C18 25.875 10.9773 25.875 9.19858 25.3932C8.23508 25.134 7.47537 24.374 7.21582 23.4105C6.75247 21.6689 6.75247 18 6.75247 18C6.75247 18 6.75247 14.3498 7.21582 12.5895C7.4751 11.626 8.25348 10.8476 9.19858 10.5883C10.9589 10.125 18 10.125 18 10.125C18 10.125 25.0411 10.125 26.8014 10.6068C27.7649 10.866 28.5246 11.626 28.7842 12.5895C29.2659 14.3498 29.2473 18.0184 29.2473 18.0184Z" /></symbol>
<symbol id="i-soc-ig" viewBox="0 0 36 36" ><path d="M21.4453 18C21.4453 19.9028 19.9028 21.4453 18 21.4453C16.0972 21.4453 14.5547 19.9028 14.5547 18C14.5547 16.0972 16.0972 14.5547 18 14.5547C19.9028 14.5547 21.4453 16.0972 21.4453 18Z" /><path d="M26.0575 11.9041C25.8919 11.4553 25.6277 11.0491 25.2843 10.7156C24.9509 10.3723 24.545 10.1081 24.0959 9.94247C23.7317 9.80103 23.1846 9.63266 22.1768 9.58679C21.0867 9.53708 20.7599 9.52637 18.0001 9.52637C15.2401 9.52637 14.9132 9.5368 13.8234 9.58652C12.8157 9.63266 12.2683 9.80103 11.9044 9.94247C11.4553 10.1081 11.0491 10.3723 10.7159 10.7156C10.3726 11.0491 10.1084 11.455 9.94247 11.9041C9.80103 12.2683 9.63266 12.8157 9.58679 13.8234C9.53708 14.9132 9.52637 15.2401 9.52637 18.0001C9.52637 20.7599 9.53708 21.0867 9.58679 22.1768C9.63266 23.1846 9.80103 23.7317 9.94247 24.0959C10.1084 24.545 10.3723 24.9509 10.7156 25.2843C11.0491 25.6277 11.455 25.8919 11.9041 26.0575C12.2683 26.1992 12.8157 26.3676 13.8234 26.4135C14.9132 26.4632 15.2398 26.4736 17.9998 26.4736C20.7602 26.4736 21.087 26.4632 22.1766 26.4135C23.1843 26.3676 23.7317 26.1992 24.0959 26.0575C24.9973 25.7098 25.7098 24.9973 26.0575 24.0959C26.1989 23.7317 26.3673 23.1846 26.4135 22.1768C26.4632 21.0867 26.4736 20.7599 26.4736 18.0001C26.4736 15.2401 26.4632 14.9132 26.4135 13.8234C26.3676 12.8157 26.1992 12.2683 26.0575 11.9041ZM18.0001 23.3073C15.0687 23.3073 12.6924 20.9313 12.6924 17.9998C12.6924 15.0684 15.0687 12.6924 18.0001 12.6924C20.9313 12.6924 23.3076 15.0684 23.3076 17.9998C23.3076 20.9313 20.9313 23.3073 18.0001 23.3073ZM23.5175 13.7229C22.8325 13.7229 22.2771 13.1675 22.2771 12.4825C22.2771 11.7975 22.8325 11.2422 23.5175 11.2422C24.2025 11.2422 24.7578 11.7975 24.7578 12.4825C24.7575 13.1675 24.2025 13.7229 23.5175 13.7229Z" /><path d="M18 0C8.06039 0 0 8.06039 0 18C0 27.9396 8.06039 36 18 36C27.9396 36 36 27.9396 36 18C36 8.06039 27.9396 0 18 0ZM28.2736 22.2613C28.2236 23.3616 28.0486 24.1128 27.7932 24.7703C27.2563 26.1587 26.1587 27.2563 24.7703 27.7932C24.1131 28.0486 23.3616 28.2233 22.2616 28.2736C21.1594 28.3239 20.8073 28.3359 18.0003 28.3359C15.193 28.3359 14.8412 28.3239 13.7387 28.2736C12.6387 28.2233 11.8872 28.0486 11.2299 27.7932C10.54 27.5337 9.91544 27.1269 9.39908 26.6009C8.87338 26.0848 8.46661 25.46 8.20706 24.7703C7.95163 24.1131 7.77667 23.3616 7.72668 22.2616C7.67587 21.1591 7.66406 20.807 7.66406 18C7.66406 15.193 7.67587 14.8409 7.72641 13.7387C7.7764 12.6384 7.95108 11.8872 8.20651 11.2297C8.46606 10.54 8.87311 9.91516 9.39908 9.39908C9.91516 8.87311 10.54 8.46634 11.2297 8.20679C11.8872 7.95135 12.6384 7.77667 13.7387 7.72641C14.8409 7.67615 15.193 7.66406 18 7.66406C20.807 7.66406 21.1591 7.67615 22.2613 7.72668C23.3616 7.77667 24.1128 7.95135 24.7703 8.20651C25.46 8.46606 26.0848 8.87311 26.6012 9.39908C27.1269 9.91544 27.5339 10.54 27.7932 11.2297C28.0489 11.8872 28.2236 12.6384 28.2739 13.7387C28.3241 14.8409 28.3359 15.193 28.3359 18C28.3359 20.807 28.3241 21.1591 28.2736 22.2613Z"/></symbol>
<symbol id="i-soc-m" viewBox="0 0 36 36" ><path clip-rule="evenodd" d="M18 36C27.9411 36 36 27.9411 36 18C36 8.05887 27.9411 0 18 0C8.05887 0 0 8.05887 0 18C0 27.9411 8.05887 36 18 36ZM27.7899 10.5771L26.2276 12.0717C26.0939 12.172 26.0253 12.3417 26.0539 12.5073V23.4935C26.0253 23.6583 26.0947 23.828 26.2285 23.9292L27.754 25.4229V25.75H20.0758V25.4221L21.6584 23.8908C21.8118 23.7374 21.8118 23.6893 21.8118 23.4552V14.5786L17.4122 25.7214H16.8175L11.7009 14.5786V22.0463C11.656 22.362 11.7613 22.6761 11.984 22.9029L14.0398 25.3902V25.7174H8.21094V25.3943L10.2667 22.9029C10.4854 22.6769 10.5865 22.3571 10.5302 22.0463V13.4128C10.5539 13.1738 10.4609 12.9364 10.283 12.7741L8.45812 10.5771V10.25H14.1328L18.5209 19.8502L22.3779 10.25H27.7899V10.5771Z" /></symbol>
<symbol id="i-soc-fb" viewBox="0 0 36 36" ><path d="m18 0c-9.941 0-18 8.059-18 18 0 9.941 8.059 18 18 18 9.941 0 18-8.059 18-18 0-9.941-8.059-18-18-18zm1.357 6.982 3.604 0.01562v4.014h-2.615c-0.429 0-1.031 0.2141-1.031 1.127v2.436h3.637l-0.4258 4.131h-3.211v11.77h-4.867v-11.77h-2.314v-4.135h2.314v-2.678c0-1.914 0.9096-4.91 4.91-4.91z" /></symbol>
<symbol id="i-soc-wz" viewBox="0 0 36 36" ><path d="M18 0C8.06039 0 0 8.06039 0 18C0 27.9396 8.06039 36 18 36C27.9396 36 36 27.9396 36 18C36 8.06039 27.9396 0 18 0ZM18.3815 28.4801C18.3812 28.4801 18.3818 28.4801 18.3815 28.4801H18.3771C16.574 28.4793 14.8022 28.0272 13.2286 27.1692L7.51767 28.6669L9.04614 23.0858C8.10324 21.4527 7.60721 19.5999 7.60803 17.7017C7.6105 11.7636 12.4434 6.93265 18.3815 6.93265C21.2632 6.93375 23.9683 8.05545 26.0022 10.0909C28.0363 12.1267 29.1558 14.8326 29.1547 17.7102C29.1522 23.6486 24.3188 28.4801 18.3815 28.4801Z" /><path d="M18.385 8.75171C13.4458 8.75171 9.42896 12.7669 9.42676 17.7025C9.42621 19.3939 9.89972 21.041 10.7959 22.4662L11.0088 22.8049L10.1041 26.1082L13.4931 25.2194L13.8202 25.4133C15.1949 26.229 16.7708 26.6605 18.3776 26.6611H18.3812C23.3165 26.6611 27.3334 22.6456 27.3356 17.7097C27.3364 15.3177 26.4059 13.0688 24.7153 11.3769C23.0248 9.685 20.7765 8.75253 18.385 8.75171ZM23.6519 21.5511C23.4275 22.1795 22.3522 22.7532 21.835 22.8307C21.3711 22.8999 20.7844 22.9287 20.1395 22.7241C19.7484 22.6 19.2472 22.4344 18.6047 22.1572C15.9046 20.9916 14.141 18.2736 14.0064 18.0939C13.8718 17.9143 12.9072 16.6347 12.9072 15.31C12.9072 13.9856 13.6027 13.3344 13.8493 13.0652C14.0962 12.7958 14.3879 12.7285 14.5673 12.7285C14.7466 12.7285 14.9262 12.7301 15.0831 12.7378C15.2484 12.7461 15.4703 12.6749 15.6887 13.1998C15.9131 13.7387 16.4514 15.0631 16.5187 15.1977C16.586 15.3325 16.6308 15.4896 16.5412 15.6693C16.4514 15.8489 16.1531 16.2364 15.8683 16.5896C15.7488 16.7377 15.5931 16.8695 15.7502 17.1389C15.907 17.4081 16.4476 18.2895 17.2477 19.0031C18.276 19.9199 19.1433 20.2039 19.4125 20.3387C19.6814 20.4733 19.8385 20.4508 19.9956 20.2714C20.1524 20.0918 20.6685 19.4856 20.8479 19.2162C21.0272 18.9467 21.2069 18.9918 21.4535 19.0816C21.7004 19.1711 23.0237 19.8224 23.2929 19.9569C23.5621 20.0918 23.7414 20.1591 23.8087 20.2714C23.8763 20.3838 23.8763 20.9224 23.6519 21.5511Z" /></symbol>
<symbol id="i-soc-tg" viewBox="0 0 36 36" ><path d="M18 36C27.9435 36 36 27.9435 36 18C36 8.0565 27.9435 0 18 0C8.0565 0 0 8.0565 0 18C0 27.9435 8.0565 36 18 36ZM8.2365 17.61L25.5915 10.9185C26.397 10.6275 27.1005 11.115 26.8395 12.333L26.841 12.3315L23.886 26.253C23.667 27.24 23.0805 27.48 22.26 27.015L17.76 23.6985L15.5895 25.7895C15.3495 26.0295 15.147 26.232 14.682 26.232L15.0015 21.6525L23.3415 14.118C23.7045 13.7985 23.2605 13.6185 22.782 13.9365L12.4755 20.4255L8.0325 19.0395C7.068 18.7335 7.047 18.075 8.2365 17.61Z"/></symbol>
<symbol id="i-settings" viewBox="0 0 12 12"><path d="M11.1459 4.7704L10.3158 4.58995C10.2436 4.36896 10.1542 4.15341 10.0487 3.94576L10.5082 3.23097C10.5903 3.10325 10.5722 2.93557 10.465 2.82829L9.17181 1.53514C9.06453 1.42786 8.89685 1.40982 8.76914 1.49189L8.05434 1.95142C7.8467 1.84586 7.63115 1.75646 7.41016 1.68428L7.22971 0.854211C7.19749 0.705896 7.06615 0.600098 6.91437 0.600098H5.08564C4.93387 0.600098 4.80252 0.705896 4.77031 0.854211L4.58986 1.68428C4.36887 1.75646 4.15331 1.84586 3.94567 1.95142L3.23087 1.49189C3.10316 1.40982 2.93548 1.42786 2.8282 1.53514L1.53505 2.82829C1.42777 2.93557 1.40973 3.10325 1.49179 3.23097L1.95132 3.94576C1.84577 4.15341 1.75637 4.36896 1.68419 4.58995L0.85412 4.7704C0.705804 4.8027 0.600006 4.93396 0.600006 5.08573V6.91446C0.600006 7.06624 0.705804 7.1975 0.85412 7.2298L1.68419 7.41025C1.75637 7.63124 1.84577 7.84679 1.95132 8.05443L1.49179 8.76923C1.40973 8.89694 1.42777 9.06462 1.53505 9.1719L2.8282 10.4651C2.93548 10.5723 3.10316 10.5904 3.23087 10.5083L3.94567 10.0488C4.15331 10.1543 4.36887 10.2437 4.58986 10.3159L4.77031 11.146C4.80252 11.2943 4.93387 11.4001 5.08564 11.4001H6.91437C7.06615 11.4001 7.19749 11.2943 7.22971 11.146L7.41016 10.3159C7.63115 10.2437 7.8467 10.1543 8.05434 10.0488L8.76914 10.5083C8.89685 10.5904 9.06453 10.5724 9.17181 10.4651L10.465 9.1719C10.5722 9.06462 10.5903 8.89694 10.5082 8.76923L10.0487 8.05443C10.1542 7.84679 10.2436 7.63124 10.3158 7.41025L11.1459 7.2298C11.2942 7.1975 11.4 7.06624 11.4 6.91446V5.08573C11.4 4.93396 11.2942 4.8027 11.1459 4.7704ZM7.93626 6.0001C7.93626 7.06772 7.06763 7.93636 6.00001 7.93636C4.93238 7.93636 4.06375 7.06772 4.06375 6.0001C4.06375 4.93247 4.93238 4.06384 6.00001 4.06384C7.06763 4.06384 7.93626 4.93247 7.93626 6.0001Z" /></symbol>
<symbol id="i-favorites" viewBox="0 0 12 12"><path d="M11.048 1.53284C10.4268 0.8591 9.57449 0.488037 8.6478 0.488037C7.95511 0.488037 7.32074 0.707031 6.76227 1.13889C6.48047 1.35687 6.22513 1.62357 6 1.93484C5.77496 1.62366 5.51953 1.35687 5.23764 1.13889C4.67926 0.707031 4.04489 0.488037 3.3522 0.488037C2.42551 0.488037 1.57306 0.8591 0.951874 1.53284C0.338104 2.1987 0 3.10837 0 4.09439C0 5.10925 0.378204 6.03824 1.19019 7.01804C1.91656 7.89447 2.96054 8.78418 4.16949 9.81442C4.58231 10.1663 5.05023 10.5651 5.5361 10.9899C5.66446 11.1023 5.82916 11.1642 6 11.1642C6.17075 11.1642 6.33554 11.1023 6.46371 10.9901C6.94958 10.5652 7.41779 10.1662 7.83078 9.81415C9.03955 8.78409 10.0835 7.89447 10.8099 7.01794C11.6219 6.03824 12 5.10925 12 4.0943C12 3.10837 11.6619 2.1987 11.048 1.53284Z" /></symbol>
<symbol id="i-logout" viewBox="0 0 12 12"><path d="M6.01361 0C9.15056 0 11.7233 2.39672 12 5.45453H7.10704V3.81816C7.10704 3.59783 6.97361 3.39878 6.7697 3.31418C6.56528 3.22969 6.33014 3.27653 6.17388 3.43254L3.98702 5.61443C3.7733 5.82766 3.7733 6.17234 3.98702 6.38567L6.17388 8.56746C6.33014 8.72347 6.56528 8.77041 6.7697 8.68581C6.97361 8.60132 7.10704 8.40217 7.10704 8.18184V6.54547H12C11.7233 9.60328 9.15056 12 6.01361 12C2.69248 12 0 9.31364 0 6.00005C0 2.68636 2.69248 0 6.01361 0V0Z"/></symbol>
<symbol id="i-messages" viewBox="0 0 12 12"><path d="M12 5.74301C12 6.83421 11.3255 7.82187 10.2355 8.53577C10.3779 9.10946 10.7636 9.7001 11.5772 10.1693C10.2391 10.3106 9.00279 9.94603 8.02527 9.45571C7.39258 9.60477 6.71072 9.68598 6 9.68598C2.68629 9.68598 0 7.92065 0 5.74301C0 3.56537 2.68629 1.80005 6 1.80005C9.31371 1.80005 12 3.56537 12 5.74301ZM3.6 6.60005C3.93137 6.60005 4.2 6.33142 4.2 6.00005C4.2 5.66868 3.93137 5.40005 3.6 5.40005C3.26863 5.40005 3 5.66868 3 6.00005C3 6.33142 3.26863 6.60005 3.6 6.60005ZM6.6 6.00005C6.6 6.33142 6.33137 6.60005 6 6.60005C5.66863 6.60005 5.4 6.33142 5.4 6.00005C5.4 5.66868 5.66863 5.40005 6 5.40005C6.33137 5.40005 6.6 5.66868 6.6 6.00005ZM8.4 6.60005C8.73137 6.60005 9 6.33142 9 6.00005C9 5.66868 8.73137 5.40005 8.4 5.40005C8.06863 5.40005 7.8 5.66868 7.8 6.00005C7.8 6.33142 8.06863 6.60005 8.4 6.60005Z" /></symbol>
<symbol id="i-inventory" viewBox="0 0 20 20" ><path d="m9.996 2.727c-2.651 0.003044-5.189 1.058-7.064 2.932-1.875 1.874-2.929 4.417-2.932 7.069v4.091c0 0.1205 0.04747 0.2352 0.1328 0.3204 0.08523 0.08538 0.2018 0.1348 0.3223 0.1348h3.18v-6.818c-1.498e-4 -0.1207 0.04762-0.2371 0.1328-0.3223 0.08523-0.08519 0.2018-0.1328 0.3223-0.1328h11.82c0.1206 0 0.2371 0.04765 0.3223 0.1328 0.08519 0.08523 0.133 0.2016 0.1328 0.3223v6.818h3.18c0.1205 0 0.2371-0.04943 0.3223-0.1348 0.08538-0.08519 0.1328-0.1998 0.1328-0.3204v-4.091c-0.003044-2.651-1.058-5.194-2.932-7.069-1.874-1.875-4.417-2.929-7.069-2.932zm-2.272 2.727h4.546c0.2511 0 0.4532 0.2042 0.4532 0.4552 0 0.2509-0.2021 0.4552-0.4532 0.4552h-4.546c-0.2511 0-0.4532-0.2042-0.4532-0.4552 0-0.2509 0.2021-0.4552 0.4532-0.4552zm-0.9084 1.819h6.364c0.2509 0 0.4552 0.2041 0.4552 0.4552 0 0.2509-0.2042 0.4532-0.4552 0.4532h-6.364c-0.2509 0-0.4552-0.2023-0.4552-0.4532 0-0.2511 0.2042-0.4552 0.4552-0.4552zm3.161 5.31c-0.6441 4.04e-4 -1.29 0.417-1.555 1.248h-3.561c-0.1766 0-0.3204 0.1419-0.3204 0.3165 0 0.1746 0.1438 0.3165 0.3204 0.3165h3.571c0.2367 0.632 1.2 0.631 1.545 0.631 0.3453 0 1.307 0.0012 1.543-0.631h3.573c0.1766 0 0.3184-0.1419 0.3184-0.3165 0-0.1746-0.1418-0.3165-0.3184-0.3165h-3.563c-0.2654-0.833-0.9089-1.249-1.553-1.248zm0 0.6175c0.245 0.02711 0.4723 0.1344 0.6465 0.3067 0.1743 0.1723 0.2852 0.3986 0.3126 0.6407 0 0.09485 9.3e-5 0.3165-0.9591 0.3165-0.9592 0-0.9591-0.2216-0.9591-0.3165 0.0274-0.2421 0.1363-0.4684 0.3106-0.6407 0.1743-0.1723 0.4036-0.2796 0.6484-0.3067zm-3.817 1.268c-0.1734 0-0.3145 0.1411-0.3145 0.3145 0 0.1734 0.1411 0.3126 0.3145 0.3126 0.1734 0 0.3126-0.1392 0.3126-0.3126 0-0.1734-0.1392-0.3145-0.3126-0.3145zm1.279 0c-0.1868 0-0.3379 0.1411-0.3379 0.3145 0 0.1734 0.1511 0.3126 0.3379 0.3126s0.3379-0.1392 0.3379-0.3126c0-0.1734-0.1511-0.3145-0.3379-0.3145zm5.098 0c-0.1734 0-0.3145 0.1411-0.3145 0.3145 0 0.1734 0.1411 0.3126 0.3145 0.3126s0.3126-0.1392 0.3126-0.3126c0-0.1734-0.1392-0.3145-0.3126-0.3145zm1.279 0c-0.1868 0-0.3379 0.1411-0.3379 0.3145 0 0.1734 0.1511 0.3126 0.3379 0.3126 0.1868 0 0.3379-0.1392 0.3379-0.3126 0-0.1734-0.1511-0.3145-0.3379-0.3145z" /></symbol>
<symbol id="i-profile" viewBox="0 0 20 20"><path d="m10 0c-2.857 0-5.193 2.336-5.193 5.193 0 2.857 2.336 5.191 5.193 5.191 2.857 0 5.191-2.334 5.191-5.191 0-2.857-2.334-5.193-5.191-5.193zm-3.75 10.76c-0.0581-0.002129-0.1171 0.002347-0.1738 0.01367-1.814 0.2495-3.446 1.271-4.467 2.812-0.2041 0.2948-0.3855 0.6338-0.5215 0.9512-0.06801 0.1361-0.04458 0.2955 0.02344 0.4316 0.1814 0.3174 0.4072 0.6342 0.6113 0.9062 0.3174 0.4309 0.6575 0.8169 1.043 1.18 0.3174 0.3175 0.6801 0.6116 1.043 0.9062 1.791 1.338 3.946 2.041 6.168 2.041 2.222 0 4.377-0.7031 6.168-2.041 0.3628-0.272 0.7255-0.5888 1.043-0.9062 0.3628-0.3628 0.7255-0.7489 1.043-1.18 0.2267-0.2948 0.4319-0.5888 0.6133-0.9062 0.1133-0.1361 0.1344-0.2956 0.06641-0.4316-0.1361-0.3401-0.3175-0.6564-0.5215-0.9512-1.043-1.542-2.653-2.563-4.467-2.812-0.2268-0.0226-0.4748 0.0222-0.6562 0.1582-0.9524 0.703-2.086 1.066-3.266 1.066-1.179 0-2.313-0.3634-3.266-1.066-0.1361-0.102-0.3101-0.1655-0.4844-0.1719z" /></symbol>
<symbol id="i-deals" viewBox="0 0 12 12"><path d="m0.3535 2.719c-0.1957 0-0.3535 0.1597-0.3535 0.3555v4.488c3.701e-17 0.1957 0.1578 0.3555 0.3535 0.3555h0.3555c0.1957 0 0.3535-0.1598 0.3535-0.3555v-4.488c0-0.1957-0.1578-0.3555-0.3535-0.3555h-0.3555zm11.03 0c-0.1957 0-0.3535 0.1598-0.3535 0.3555v4.488c0 0.1957 0.1578 0.3535 0.3535 0.3535h0.3555c0.1957 0 0.3535-0.1578 0.3535-0.3535v-4.488c0-0.1957-0.1578-0.3555-0.3535-0.3555h-0.3555zm-9.615 0.4727v4.088l2.93 2.197c0.3116 0.2336 0.6867 0.3535 1.064 0.3535 0.1973 0 0.3957-0.03289 0.5859-0.09961l1.67-0.7246 0.4512-0.2734c0.2138-0.1292 0.3659-0.3412 0.416-0.5859v-0.001953c0.06716-0.3312-0.03129-0.6746-0.2637-0.9199l-1.656-1.846c-0.1448-0.1615-0.3805-0.205-0.5723-0.1035l-1.549 0.8203c-0.2277 0.1205-0.4835 0.1836-0.7402 0.1836-0.5803 0-1.113-0.3151-1.391-0.8242-0.4152-0.7609-0.1367-1.724 0.6211-2.145l0.2148-0.1191h-1.781zm3.332 0c-0.06022 0-0.1192 0.01567-0.1719 0.04492l-1.25 0.6934c-0.4203 0.2335-0.5741 0.7635-0.3438 1.186 0.2295 0.4205 0.7543 0.5777 1.178 0.3535l1.387-0.7324c0.5753-0.3046 1.282-0.178 1.717 0.3066l1.527 1.701c0.2183 0.2333 0.3655 0.5199 0.4316 0.8242 0.2603-0.0713 0.5103-0.1762 0.7461-0.3125v-4.064h-5.221z"/></symbol>
<symbol id="i-compare" viewBox="0 0 12 13"><path d="m9.395 1.189c-0.04926 5.601e-4 -0.09818 0.0115-0.1445 0.0332-0.1235 0.05786-0.2031 0.182-0.2031 0.3184v0.7734h-1.148c-0.9098 0-1.789 0.303-2.5 0.8379 0.1121 0.1205 0.2185 0.2463 0.3184 0.3789 0.3651 0.4814 0.6306 1.019 0.7891 1.592 0.3532-0.3703 0.8509-0.6055 1.393-0.6055h1.148v0.7734c0 0.1364 0.0796 0.2605 0.2031 0.3184 0.1235 0.05784 0.2683 0.0385 0.373-0.04883l2.25-1.875c0.0802-0.06679 0.127-0.1652 0.127-0.2695s-0.04685-0.2027-0.127-0.2695l-2.25-1.875c-0.06549-0.05458-0.1464-0.08296-0.2285-0.08203zm-8.293 1.125c-0.6074 0-1.102 0.4942-1.102 1.102 0 0.6074 0.4942 1.102 1.102 1.102h0.7734c1.047 0 1.898 0.8516 1.898 1.898 0 0.9029 0.2838 1.754 0.8203 2.461 0.7724 1.027 2.008 1.641 3.305 1.641h1.148v0.7734c0 0.1364 0.07959 0.2605 0.2031 0.3184 0.04758 0.0223 0.09786 0.0332 0.1484 0.0332 0.08074 0 0.1602-0.02833 0.2246-0.08203l2.25-1.875c0.0801-0.0668 0.127-0.1652 0.127-0.2695s-0.04675-0.2027-0.127-0.2695l-2.25-1.875c-0.1048-0.08733-0.2495-0.1067-0.373-0.04883-0.1235 0.05787-0.2031 0.1819-0.2031 0.3184v0.7734h-1.148c-1.042 0-1.922-0.8694-1.922-1.898 0-0.903-0.2838-1.754-0.8203-2.461-0.7724-1.027-1.999-1.641-3.281-1.641h-0.7734zm2.146 5.41c-0.346 0.363-0.8331 0.5898-1.373 0.5898h-0.7734c-0.6074 0-1.102 0.4942-1.102 1.102 0 0.6074 0.4942 1.102 1.102 1.102h0.7734c0.899 0 1.77-0.3015 2.477-0.8359-0.1125-0.1207-0.2184-0.248-0.3184-0.3809-0.3619-0.4771-0.6261-1.009-0.7852-1.576z" /></symbol>
<symbol id="i-menu" viewBox="0 0 21 17"><circle cx="1.4" cy="1.4" r="1.4" stroke-width="1.918"/><rect x="5.498" width="15.5" height="2.8" ry="1.4" stroke-width="2.154"/><circle cx="1.4" cy="8.4" r="1.4" stroke-width="1.918"/><rect x="5.498" y="7" width="15.5" height="2.8" ry="1.4" stroke-width="2.154"/><circle cx="1.4" cy="15.4" r="1.4" stroke-width="1.918"/><rect x="5.498" y="14" width="15.5" height="2.8" ry="1.4" stroke-width="2.154"/></symbol>
<symbol id="i-eye" viewBox="0 0 20 12" ><path d="M19.9259 5.76248C19.7685 5.53416 15.9835 0.166748 10.0003 0.166748C4.86618 0.166748 0.291255 5.50334 0.0987582 5.73084C-0.0329194 5.88584 -0.0329194 6.11333 0.0987582 6.26915C0.291255 6.49665 4.86618 11.8332 10.0003 11.8332C15.1344 11.8332 19.7093 6.49665 19.9018 6.26915C20.0226 6.12498 20.0334 5.91748 19.9259 5.76248ZM10.0003 9.33325C8.16199 9.33325 6.66702 7.83827 6.66702 5.99998C6.66702 4.16169 8.16199 2.66671 10.0003 2.66671C11.8386 2.66671 13.3336 4.16169 13.3336 5.99998C13.3336 7.83827 11.8386 9.33325 10.0003 9.33325Z"/></symbol>
<symbol id="i-eye-closed" viewBox="0 0 20 20" ><path d="m17.08 2.5c-0.1067 0-0.2137 0.03984-0.2949 0.1211l-14.17 14.17c-0.1625 0.1625-0.1625 0.4254 0 0.5879 0.08082 0.0817 0.1882 0.123 0.2949 0.123 0.1067 0 0.2132-0.04019 0.2949-0.1211l2.611-2.613c1.287 0.6284 2.707 1.068 4.176 1.068 5.134 0 9.71-5.337 9.902-5.564 0.1208-0.1441 0.1309-0.3528 0.02344-0.5078-0.1067-0.1542-1.876-2.643-4.85-4.248l2.303-2.303c0.1625-0.1625 0.1625-0.4273 0-0.5898-0.08125-0.08125-0.1882-0.1211-0.2949-0.1211zm-7.084 1.666c-5.134 0-9.708 5.337-9.9 5.564-0.1317 0.155-0.1317 0.3833 0 0.5391 0.115 0.1358 1.796 2.088 4.221 3.643l2.611-2.611c-0.17-0.4-0.2637-0.8392-0.2637-1.301 0-1.838 1.494-3.334 3.332-3.334 0.4617 0 0.9008 0.09563 1.301 0.2656l2.148-2.146c-1.047-0.3742-2.197-0.6191-3.449-0.6191zm2.623 3.801c0.4383 0.565 0.7109 1.264 0.7109 2.033 0 1.838-1.496 3.334-3.334 3.334-0.7692 0-1.468-0.2726-2.033-0.7109l4.656-4.656z" /></symbol>
<symbol id="i-reset-cross"  viewBox="0 0 16 16" ><path d="m5.822 4.52-1.302 1.302 2.178 2.178-2.178 2.178 1.302 1.302 2.178-2.178 2.178 2.178 1.302-1.302-2.178-2.178 2.178-2.178-1.302-1.302-2.178 2.178z" /><path d="m8 0a8 8 0 0 0-8 8 8 8 0 0 0 8 8 8 8 0 0 0 8-8 8 8 0 0 0-8-8zm0 0.8a7.2 7.2 0 0 1 7.2 7.2 7.2 7.2 0 0 1-7.2 7.2 7.2 7.2 0 0 1-7.2-7.2 7.2 7.2 0 0 1 7.2-7.2z" /></symbol>
<symbol id="i-awaiting" viewBox="0 0 23 22"><symbol d="m11.5 0c-6.083 0-11 4.917-11 11s4.917 11 11 11 11-4.917 11-11-4.917-11-11-11zm3.5 16h0.5c0.2765 0 0.5 0.224 0.5 0.5s-0.2235 0.5-0.5 0.5h-8c-0.2765 0-0.5-0.224-0.5-0.5s0.2235-0.5 0.5-0.5h0.5v-1.636c0-0.814 0.3465-1.592 0.9515-2.138l0.8465-0.7615c0.1335-0.12 0.207-0.285 0.207-0.4645s-0.0735-0.3445-0.207-0.465l-0.8465-0.7615c-0.605-0.544-0.9515-1.323-0.9515-2.137v-1.636h-0.5c-0.2765 0-0.5-0.224-0.5-0.5s0.2235-0.5 0.5-0.5h8c0.2765 0 0.5 0.224 0.5 0.5s-0.2235 0.5-0.5 0.5h-0.5v1.636c0 0.814-0.3465 1.592-0.9515 2.138l-0.8465 0.7615c-0.1335 0.12-0.207 0.285-0.207 0.4645s0.0735 0.3445 0.207 0.465l0.8465 0.7615c0.605 0.544 0.9515 1.323 0.9515 2.137v1.636zm-5.097-2.558c-0.26 0.26-0.403 0.605-0.403 0.9725v1.586h4v-1.586c0-0.3675-0.143-0.7125-0.403-0.9725l-1.332-1.332c-0.1465-0.1465-0.384-0.1465-0.5305 0l-1.332 1.332z" /></symbol>
<symbol id="i-success" viewBox="0 0 21 20" ><path d="m10.5 0c-5.522 0-10 4.478-10 10s4.478 10 10 10 10-4.478 10-10-4.478-10-10-10zm-1.55 14.61-4.601-4.602 1.768-1.768 2.833 2.834 6.011-6.011 1.768 1.768z"/></symbol>
<symbol id="i-attantion" viewBox="0 0 21 20" ><path id="path2" d="m10.5 0c-2.559 2.961e-16 -5.118 0.9774-7.07 2.93-3.905 3.905-3.905 10.24 0 14.14 3.905 3.905 10.24 3.905 14.14 0s3.905-10.24 0-14.14c-1.952-1.952-4.511-2.93-7.07-2.93zm-1.25 3.75h2.5v7.5h-2.5v-7.5zm0 10h2.5v2.5h-2.5v-2.5z"/></symbol>
<symbol id="i-trash" viewBox="0 0 27 26" ><path d="m12.12 0c-1.346 0-2.438 1.091-2.438 2.438v0.8125h-4.469c-1.122 0-2.031 0.9094-2.031 2.031v1.625c0 0.4487 0.3638 0.8125 0.8125 0.8125h19.5c0.4488 0 0.8125-0.3638 0.8125-0.8125v-1.625c0-1.122-0.9094-2.031-2.031-2.031h-4.469v-0.8125c0-1.346-1.091-2.438-2.438-2.438zm0 1.625h3.25c0.4479 0 0.8125 0.3646 0.8125 0.8125v0.8125h-4.875v-0.8125c0-0.4479 0.3646-0.8125 0.8125-0.8125zm-7.395 7.719c-0.145 0-0.2608 0.1208-0.2539 0.2656l0.6699 14.07c0.06195 1.302 1.133 2.322 2.436 2.322h12.34c1.303 0 2.374-1.02 2.436-2.322l0.6699-14.07c0.0069-0.1448-0.1089-0.2656-0.2539-0.2656zm4.959 1.219c0.4489 0 0.8125 0.3636 0.8125 0.8125v10.56c0 0.4489-0.3636 0.8125-0.8125 0.8125-0.4489 0-0.8125-0.3636-0.8125-0.8125v-10.56c0-0.4489 0.3636-0.8125 0.8125-0.8125zm4.062 0c0.4489 0 0.8125 0.3636 0.8125 0.8125v10.56c0 0.4489-0.3636 0.8125-0.8125 0.8125-0.4489 0-0.8125-0.3636-0.8125-0.8125v-10.56c0-0.4489 0.3636-0.8125 0.8125-0.8125zm4.062 0c0.4489 0 0.8125 0.3636 0.8125 0.8125v10.56c0 0.4489-0.3636 0.8125-0.8125 0.8125-0.4489 0-0.8125-0.3636-0.8125-0.8125v-10.56c0-0.4489 0.3636-0.8125 0.8125-0.8125z" /></symbol>
<symbol id="i-clock" viewBox="0 0 13 13"><path d="m6.5 0c-3.584 0-6.5 2.916-6.5 6.5 0 3.584 2.916 6.5 6.5 6.5 3.584 0 6.5-2.916 6.5-6.5 0-3.584-2.916-6.5-6.5-6.5zm3.091 9.862c-0.1056 0.1056-0.2443 0.1588-0.3829 0.1588-0.1387 0-0.2774-0.0532-0.383-0.1588l-2.708-2.708c-0.1019-0.1013-0.1587-0.2389-0.1587-0.3829v-3.521c0-0.2995 0.2426-0.5416 0.5416-0.5416s0.5416 0.2421 0.5416 0.5416v3.297l2.55 2.55c0.2118 0.2118 0.2118 0.5541 0 0.7659z"></path></symbol>
<symbol id="i-calendar" viewBox="0 0 11 13"><path d="m2.252 0.9862c0-0.5447 0.4266-0.9862 0.9528-0.9862 0.5262 0 0.9528 0.4415 0.9528 0.9862v2.421c0 0.5447-0.4266 0.9862-0.9528 0.9862-0.5262 0-0.9528-0.4415-0.9528-0.9862zm4.591 0c0-0.5447 0.4266-0.9862 0.9528-0.9862 0.5262 0 0.9528 0.4415 0.9528 0.9862v2.421c0 0.5447-0.4266 0.9862-0.9528 0.9862-0.5262 0-0.9528-0.4415-0.9528-0.9862zm-2.339 1.255h1.992v1.166c0 0.7427 0.5817 1.345 1.299 1.345 0.7175 0 1.299-0.6021 1.299-1.345v-1.166h0.7795c0.6219 0 1.126 0.5218 1.126 1.166v2.69h-11v-2.69c0-0.6437 0.5041-1.166 1.126-1.166h0.7795v1.166c0 0.7427 0.5817 1.345 1.299 1.345 0.7175 0 1.299-0.6021 1.299-1.345zm-4.504 4.214h11v5.379c0 0.6437-0.5041 1.166-1.126 1.166h-8.748c-0.6219 0-1.126-0.5218-1.126-1.166z"></path></symbol>
<symbol id="i-nft" viewBox="0 0 13 13"><path d="m11.94 3.144-5.379-3.106c-0.08941-0.05157-0.1995-0.05157-0.2889 0l-5.379 3.106c-0.08941 0.05157-0.1444 0.147-0.1444 0.2502v6.211c0 0.1033 0.05503 0.1986 0.1444 0.2502l5.379 3.106c0.04478 0.0258 0.09462 0.0387 0.1444 0.0387s0.09967-0.0129 0.1444-0.0387l5.379-3.106c0.0894-0.05156 0.1445-0.147 0.1445-0.2502v-6.211c0-0.1031-0.0551-0.1986-0.1445-0.2502zm-7.721 6.438c0 0.1446-0.1067 0.2669-0.25 0.2862-0.01315 0.00187-0.02615 0.00274-0.03915 0.00274-0.1281 0-0.2432-0.08537-0.2782-0.2119l-0.8385-3.032v2.198c0 0.1595-0.1294 0.2889-0.2889 0.2889s-0.2889-0.1294-0.2889-0.2889v-4.326c0-0.1444 0.1068-0.2668 0.25-0.2863 0.1433-0.01935 0.2788 0.06991 0.3173 0.2093l0.8385 3.032v-3.841c0-0.1595 0.1294-0.2889 0.2889-0.2889 0.1595 0 0.2889 0.1294 0.2889 0.2889v5.969zm4.049-6.702c-0.08262 0.1365-0.2603 0.1801-0.3966 0.09779l-1.42-0.8584-1.007 0.6019v3.465h2.253c0.1595 0 0.2889 0.1294 0.2889 0.2889 0 0.1595-0.1294 0.2889-0.2889 0.2889h-2.253v3.685c0 0.1595-0.1294 0.2889-0.2889 0.2889-0.1595 0-0.2889-0.1294-0.2889-0.2889v-7.892c0-0.1017 0.05344-0.1959 0.1407-0.248l1.297-0.7751c0.09172-0.05475 0.2061-0.05432 0.2976 7.2e-4l1.569 0.9481c0.1366 0.08263 0.1806 0.2602 0.09793 0.3968zm2.578 1.558c-0.0544 0.08984-0.1498 0.1395-0.2476 0.1395-0.051 0-0.1024-0.01343-0.1491-0.04174l-0.5177-0.3129v5.287c0 0.1595-0.1294 0.2889-0.2889 0.2889s-0.2889-0.1294-0.2889-0.2889v-5.636l-0.7387-0.4463c-0.1365-0.08248-0.1804-0.2602-0.09793-0.3966 0.08248-0.1368 0.2604-0.1803 0.3966-0.09793l1.834 1.108c0.1367 0.08248 0.1804 0.2602 0.098 0.3966z"></path></symbol>
<symbol id="i-filter" viewBox="0 0 34 34" ><path d="m24.08 0.709c-2.238 0-4.114 1.5-4.729 3.541h-17.94c-0.782 0-1.416 0.634-1.416 1.416s0.634 1.418 1.416 1.418h17.94c0.6148 2.041 2.49 3.541 4.729 3.541 2.238 0 4.112-1.5 4.727-3.541h3.773c0.7833 0 1.416-0.636 1.416-1.418s-0.6327-1.416-1.416-1.416h-3.773c-0.6148-2.041-2.488-3.541-4.727-3.541zm-14.17 11.33c-2.238 0-4.112 1.502-4.727 3.543h-3.773c-0.782 0-1.416 0.634-1.416 1.416s0.634 1.416 1.416 1.416h3.773c0.6148 2.041 2.488 3.543 4.727 3.543 2.238 0 4.114-1.502 4.729-3.543h17.94c0.7834 0 1.416-0.634 1.416-1.416 1e-4 -0.782-0.6327-1.416-1.416-1.416h-17.94c-0.6149-2.041-2.49-3.543-4.729-3.543zm14.17 11.33c-2.238 0-4.114 1.5-4.729 3.541h-17.94c-0.782 0-1.416 0.636-1.416 1.418 0 0.782 0.634 1.416 1.416 1.416h17.94c0.6134 2.041 2.49 3.541 4.729 3.541 2.238 0 4.112-1.5 4.727-3.541h3.773c0.7834 0 1.416-0.634 1.416-1.416 0-0.782-0.6327-1.418-1.416-1.418h-3.773c-0.6133-2.041-2.488-3.541-4.727-3.541z" /></symbol>
<symbol id="i-notice" viewBox="0 0 23 22" ><path d="M11.5 22C17.5751 22 22.5 17.0751 22.5 11C22.5 4.92487 17.5751 0 11.5 0C5.42487 0 0.5 4.92487 0.5 11C0.5 17.0751 5.42487 22 11.5 22ZM13.3599 4.44766H9.64846L9.96658 13.0369H13.0417L13.3599 4.44766ZM10.1698 17.0399C10.5351 17.3816 10.9798 17.5524 11.5042 17.5524C12.0167 17.5524 12.4556 17.3816 12.8208 17.0399C13.192 16.6982 13.3775 16.2799 13.3775 15.7851C13.3775 15.2961 13.192 14.8808 12.8208 14.5391C12.4556 14.1974 12.0167 14.0266 11.5042 14.0266C10.9798 14.0266 10.5351 14.1974 10.1698 14.5391C9.80457 14.8808 9.62195 15.2961 9.62195 15.7851C9.62195 16.2799 9.80457 16.6982 10.1698 17.0399Z" /></symbol>
<symbol id="i-reload" viewBox="0 0 27 26" ><path d="m22.58 0.4062c-0.2282 0.011-0.4674 0.1081-0.668 0.3027l-1.922 1.865c-1.827-1.096-3.966-1.73-6.244-1.73-6.694 0-12.15 5.459-12.15 12.15a1.5 1.5 0 0 0 1.5 1.5 1.5 1.5 0 0 0 1.5-1.5c0-5.072 4.08-9.152 9.152-9.152 1.437 0 2.789 0.3297 3.994 0.916l-1.584 1.537c-0.5345 0.5192-0.3858 1.34 0.2676 1.479l7.033 1.49c0.3035 0.06483 0.6439-0.04415 0.8926-0.2852 0.2483-0.2414 0.3663-0.5795 0.3105-0.8848l-1.277-7.076c-0.07447-0.4107-0.4224-0.6316-0.8027-0.6133z" /><path d="m4.48 25.55c0.2282-0.011 0.4674-0.1081 0.668-0.3027l1.922-1.865c1.827 1.096 3.966 1.73 6.244 1.73 6.694 0 12.15-5.459 12.15-12.15a1.5 1.5 0 0 0-1.5-1.5 1.5 1.5 0 0 0-1.5 1.5c0 5.072-4.08 9.152-9.152 9.152-1.437 0-2.789-0.3297-3.994-0.916l1.584-1.537c0.5345-0.5192 0.3858-1.34-0.2676-1.479l-7.033-1.49c-0.3035-0.06483-0.6439 0.04415-0.8926 0.2852-0.2483 0.2414-0.3663 0.5795-0.3105 0.8848l1.277 7.076c0.07447 0.4107 0.4224 0.6316 0.8027 0.6133z" /></symbol>
<symbol id="i-fail" viewBox="0 0 103 103" ><path d="M51.8894 102.451C80.0559 102.451 102.889 79.6177 102.889 51.4512C102.889 23.2846 80.0559 0.451172 51.8894 0.451172C23.7229 0.451172 0.889404 23.2846 0.889404 51.4512C0.889404 79.6177 23.7229 102.451 51.8894 102.451ZM79.9969 33.3629L61.7889 51.5709L79.9969 69.7789L70.0974 79.6784L51.8894 61.4704L33.6814 79.6784L23.7819 69.7789L41.9899 51.5709L23.7819 33.3629L33.6814 23.4634L51.8894 41.6714L70.0974 23.4634L79.9969 33.3629Z" /></symbol>
<symbol id="i-waiting-inspection" viewBox="0 0 160 162" ><path d="m80 161.5c44.18 0 80-36.04 80-80.5 0-44.46-35.82-80.5-80-80.5-44.18 0-80 36.04-80 80.5 0 44.46 35.82 80.5 80 80.5zm14.67-104c0 9.262-7.462 16.77-16.67 16.77s-16.67-7.508-16.67-16.77c0-9.262 7.462-16.77 16.67-16.77s16.67 7.508 16.67 16.77zm-7.646 23.48c-4.543 4.813-7.353 11.3-7.353 18.45 0 4.213 0.9967 8.188 2.723 11.74h-31.89c-1.38 0-2.5-1.127-2.5-2.516v-11.74c0-8.784 7.103-15.93 15.83-15.93zm19.31-3.354c-11.95 0-21.67 9.781-21.67 21.8 0 12.02 9.72 21.8 21.67 21.8 11.95 0 21.67-9.781 21.67-21.8 0-12.02-9.72-21.8-21.67-21.8zm7.357 29.2c-0.65 0.654-1.503 0.982-2.357 0.982-0.853 0-1.706-0.328-2.356-0.982l-5-5.032c-0.627-0.627-0.977-1.479-0.977-2.371v-8.385c0-1.855 1.493-3.354 3.333-3.354s3.334 1.499 3.334 3.354v6.997l4.023 4.049c1.303 1.311 1.303 3.431 0 4.743z" /></symbol>
<symbol id="i-remove" viewBox="0 0 24 24"><path d="M12 0C5.364 0 0 5.364 0 12C0 18.636 5.364 24 12 24C18.636 24 24 18.636 24 12C24 5.364 18.636 0 12 0ZM15.933 7.18306C16.1771 6.93898 16.5728 6.93898 16.8169 7.18306C17.061 7.42714 17.061 7.82286 16.8169 8.06694L12.8839 12L16.8169 15.9331C17.061 16.1771 17.061 16.5729 16.8169 16.8169C16.5728 17.061 16.1771 17.061 15.933 16.8169L12 12.8839L8.06693 16.8169C7.82285 17.061 7.42712 17.061 7.18304 16.8169C6.93897 16.5729 6.93897 16.1771 7.18304 15.9331L11.1161 12L7.18304 8.06694C6.93897 7.82286 6.93897 7.42714 7.18304 7.18306C7.42712 6.93898 7.82285 6.93898 8.06693 7.18306L12 11.1161L15.933 7.18306Z" /></symbol>
<symbol id="i-settings-google" viewBox="0 0 24 24"><path d="m5.266 9.765c0.9326-2.826 3.588-4.855 6.734-4.855 1.691 0 3.218 0.6 4.418 1.582l3.491-3.491c-2.127-1.855-4.855-3-7.909-3-4.73 0-8.802 2.698-10.76 6.65l4.026 3.115z" fill="#EA4335 "/><path d="m16.04 18.01c-1.09 0.7037-2.475 1.078-4.041 1.078-3.134 0-5.781-2.014-6.723-4.823l-4.04 3.067c1.955 3.959 6.028 6.665 10.76 6.665 2.933 0 5.735-1.043 7.834-3l-3.793-2.987z" fill="#34A853"/><path d="m19.83 21c2.195-2.047 3.62-5.096 3.62-9 0-0.7091-0.1091-1.473-0.2727-2.182h-11.18v4.636h6.436c-0.3176 1.559-1.17 2.767-2.396 3.558l3.793 2.987z" fill="#4A90E2"/><path d="m5.277 14.27c-0.2387-0.7116-0.3679-1.474-0.3679-2.268 0-0.7817 0.1253-1.533 0.3571-2.235l-4.026-3.115c-0.8034 1.61-1.24 3.425-1.24 5.35 0 1.92 0.4448 3.73 1.237 5.335l4.04-3.067z" fill="#FBBC05"/></symbol>
<symbol id="i-settings-email" viewBox="0 0 38 38"><path d="m18.92 14.99c-0.8913 0-1.586 0.3801-2.085 1.14-0.4985 0.745-0.7477 1.787-0.7477 3.125 0 1.323 0.2492 2.357 0.7477 3.102s1.193 1.118 2.085 1.118c0.8762 0 1.564-0.3726 2.062-1.118s0.7478-1.779 0.7478-3.102c0-1.338-0.2493-2.38-0.7478-3.125-0.4985-0.7604-1.186-1.14-2.062-1.14zm0.6798-14.99c3.61 0 6.805 0.7147 9.585 2.144 2.795 1.414 4.962 3.421 6.503 6.022 1.541 2.585 2.311 5.565 2.311 8.941 0 3.543-0.8308 6.341-2.492 8.394s-3.928 3.079-6.798 3.079c-1.511 0-2.772-0.2889-3.784-0.8667-0.9971-0.5778-1.677-1.399-2.039-2.463h-0.4532c-0.9064 2.266-2.636 3.399-5.189 3.399-2.357 0-4.252-0.8744-5.688-2.623-1.42-1.749-2.13-4.068-2.13-6.957 0-2.768 0.6722-4.995 2.017-6.683 1.36-1.703 3.142-2.555 5.348-2.555 1.239 0 2.311 0.2813 3.218 0.844 0.9215 0.5626 1.609 1.361 2.062 2.395h0.4532v-2.669h5.756v11.02c0 0.8211 0.151 1.46 0.4532 1.916 0.3172 0.4562 0.7553 0.6843 1.314 0.6843 0.8762 0 1.564-0.555 2.062-1.665 0.5136-1.11 0.7705-2.615 0.7705-4.516 0-4.151-1.193-7.428-3.58-9.831-2.387-2.418-5.62-3.627-9.698-3.627-4.32 0-7.818 1.361-10.49 4.083-2.659 2.707-3.988 6.265-3.988 10.67 0 4.44 1.382 7.945 4.147 10.52 2.78 2.57 6.556 3.855 11.33 3.855 1.949 0 3.535-0.1673 4.758-0.5018v4.425c-1.586 0.3801-3.384 0.5702-5.393 0.5702-2.946 0-5.657-0.4638-8.135-1.391-2.477-0.9123-4.585-2.19-6.322-3.832-1.737-1.658-3.089-3.665-4.056-6.022-0.9668-2.357-1.45-4.927-1.45-7.71 0-3.71 0.8233-7.01 2.47-9.899 1.647-2.889 3.958-5.132 6.934-6.729 2.976-1.612 6.375-2.418 10.2-2.418z"/></symbol>
<symbol id="i-expand" viewBox="0 0 20 12" ><path d="M0.981758 0.659249C1.86076 -0.219749 3.28589 -0.21975 4.16489 0.659247L8.63634 5.13069C9.25158 5.74593 10.2491 5.74593 10.8643 5.13069L15.3358 0.659248C16.2148 -0.21975 17.6399 -0.219749 18.5189 0.659249C19.3979 1.53825 19.3979 2.96339 18.5189 3.84239L10.8643 11.497C10.2491 12.1122 9.25158 12.1122 8.63634 11.497L0.981759 3.84239C0.10276 2.96339 0.10276 1.53825 0.981758 0.659249Z" /></symbol>
<symbol id="i-hour" viewBox="0 0 23 22" ><path d="M11.5 0C5.417 0 0.5 4.917 0.5 11C0.5 17.083 5.417 22 11.5 22C17.583 22 22.5 17.083 22.5 11C22.5 4.917 17.583 0 11.5 0ZM15 16H15.5C15.7765 16 16 16.224 16 16.5C16 16.776 15.7765 17 15.5 17H7.5C7.2235 17 7 16.776 7 16.5C7 16.224 7.2235 16 7.5 16H8V14.3635C8 13.5495 8.3465 12.771 8.9515 12.226L9.798 11.4645C9.9315 11.3445 10.005 11.1795 10.005 11C10.005 10.8205 9.9315 10.6555 9.798 10.535L8.9515 9.7735C8.3465 9.2295 8 8.4505 8 7.6365V6H7.5C7.2235 6 7 5.776 7 5.5C7 5.224 7.2235 5 7.5 5H15.5C15.7765 5 16 5.224 16 5.5C16 5.776 15.7765 6 15.5 6H15V7.6365C15 8.4505 14.6535 9.229 14.0485 9.774L13.202 10.5355C13.0685 10.6555 12.995 10.8205 12.995 11C12.995 11.1795 13.0685 11.3445 13.202 11.465L14.0485 12.2265C14.6535 12.7705 15 13.5495 15 14.3635V16ZM9.903 13.442C9.643 13.702 9.5 14.047 9.5 14.4145V16H13.5005V14.4145C13.5005 14.047 13.3575 13.702 13.0975 13.442L11.7655 12.11C11.619 11.9635 11.3815 11.9635 11.235 12.11L9.903 13.442Z" /></symbol>
<symbol id="i-warning" viewBox="-1 -1 85 85" ><circle cx="42" cy="42" r="39.5" stroke="#B42B2B" stroke-width="5"/><path d="m39.67 48.67h4.704l0.912-24h-6.48zm2.304 10.66c2.16 0 3.888-1.632 3.888-3.696 0-2.112-1.728-3.744-3.888-3.744-2.112 0-3.84 1.632-3.84 3.744 0 2.064 1.728 3.696 3.84 3.696z" fill="#b42b2b"/></symbol>
<symbol id="i-jeto" viewBox="0 0 49 48" ><path d="m39.05 0 0.1348 30.78c0 4.75-3.907 8.6-8.725 8.6-4.819 0-8.729-3.85-8.729-8.6v-6.283a2.335 2.335 0 0 0-2.354-2.318h-4.016a2.337 2.337 0 0 0-2.354 2.318v6.283c0 9.5 7.834 17.2 17.49 17.2 9.66 0 17.49-7.701 17.49-17.2v-30.78h-8.947zm-21.6 7.699c-9.64-1e-7 -17.45 7.701-17.45 17.2v6.283a2.332 2.332 0 0 0 2.352 2.318h4.021a2.333 2.333 0 0 0 2.354-2.318v-6.283c0-4.75 3.907-8.6 8.727-8.6 4.821 0 8.73 3.85 8.73 8.6v6.283a2.332 2.332 0 0 0 2.35 2.318h4.023a2.335 2.335 0 0 0 2.352-2.318v-6.283h0.001953c0-9.501-7.817-17.2-17.46-17.2z" /></symbol>
<symbol id="i-vault" viewBox="0 0 60 60" ><path d="m39.05 0 0.1348 30.78c0 4.75-3.907 8.6-8.725 8.6-4.819 0-8.729-3.85-8.729-8.6v-6.283a2.335 2.335 0 0 0-2.354-2.318h-4.016a2.337 2.337 0 0 0-2.354 2.318v6.283c0 9.5 7.834 17.2 17.49 17.2 9.66 0 17.49-7.701 17.49-17.2v-30.78h-8.947zm-21.6 7.699c-9.64-1e-7 -17.45 7.701-17.45 17.2v6.283a2.332 2.332 0 0 0 2.352 2.318h4.021a2.333 2.333 0 0 0 2.354-2.318v-6.283c0-4.75 3.907-8.6 8.727-8.6 4.821 0 8.73 3.85 8.73 8.6v6.283a2.332 2.332 0 0 0 2.35 2.318h4.023a2.335 2.335 0 0 0 2.352-2.318v-6.283h0.001953c0-9.501-7.817-17.2-17.46-17.2z" /></symbol>
<symbol id="i-eur" viewBox="0 0 48 48" ><path d="m3.315 25.99v4.11h4.11c2.122 10.61 9.878 17.9 20.82 17.9 6.895 0 12.27-2.785 16.44-7.889l-6.431-5.37c-2.652 2.851-5.768 4.575-9.812 4.575-5.635 0-9.414-3.978-11.07-9.215h15.91v-4.11h-16.71c-0.0663-0.663-0.1326-1.392-0.1326-1.989s0.0663-1.326 0.1326-1.989h16.71v-4.11h-15.91c1.657-5.238 5.436-9.215 11.07-9.215 4.044 0 7.16 1.724 9.812 4.575l6.431-5.37c-4.177-5.105-9.547-7.889-16.44-7.889-10.94 0-18.7 7.293-20.82 17.9h-4.11v4.11h3.58c-0.0663 1.326-0.0663 2.652 0 3.978z" stroke-width="1.657"/></symbol>
<symbol id="i-usdt" viewBox="0 0 48 48" ><path d="m28.88 16.74v-5.879h13.45v-8.966h-36.63v8.966h13.45v5.877c-10.93 0.502-19.16 2.669-19.16 5.263 0 2.594 8.223 4.759 19.16 5.263v18.84h9.724v-18.85c10.92-0.502 19.12-2.666 19.12-5.258 0-2.592-8.203-4.756-19.12-5.261zm0 8.921v-5e-3c-0.2733 0.01988-1.682 0.1044-4.826 0.1044-2.51 0-4.277-0.07453-4.898-0.1044v0.0075c-9.662-0.4249-16.87-2.107-16.87-4.12 0-2.01 7.211-3.693 16.87-4.125v6.57c0.6312 0.04473 2.44 0.1516 4.94 0.1516 2.999 0 4.503-0.1242 4.784-0.1491v-6.568c9.642 0.4299 16.84 2.112 16.84 4.12 0 2.013-7.194 3.69-16.84 4.118z"/></symbol>
<symbol id="i-gbp" viewBox="0 0 48 48" ><path id="path970" d="m21.69 28.89 0.13 2.762q0 2.535-0.9749 4.875-0.9749 2.34-2.795 4.192h23.17v7.28h-32.37v-7.28h0.325q1.527-0.39 2.275-3.087 0.78-2.697 0.78-5.557l-0.13-3.185h-5.33v-7.312h5.037l-0.26-6.955q0-6.825 3.9-10.72 3.932-3.9 10.5-3.9 6.987 0 10.82 3.64 3.867 3.607 3.737 9.554l-0.065 0.195h-9.23q0-3.12-1.495-4.582-1.495-1.495-3.802-1.495-2.275 0-3.575 1.917-1.3 1.885-1.3 5.395l0.325 6.955h11.54v7.312z" stroke-width="1.664"/></symbol>
<symbol id="i-usd"  viewBox="0 0 48 48"><path d="m9.215 16.58c0 5.545 3.327 9.083 10.24 11.25 5.756 1.795 7.023 2.693 7.023 4.33 0 1.743-1.848 2.535-5.017 2.535-3.908 0-8.132-1.32-11.3-3.538l-0.7921 9.135c3.485 1.743 7.974 2.693 12.51 2.799v4.911h5.439v-5.122c7.762-1.003 11.46-5.017 11.46-11.19 0-5.65-3.221-9.294-10.4-11.56-5.597-1.743-6.865-2.746-6.865-4.277 0-1.32 1.373-2.376 4.964-2.376 3.063 0 6.442 0.7921 9.611 2.165l0.7393-8.766c-2.851-1.056-6.125-1.69-9.505-1.901v-4.964h-5.492v5.069c-8.343 0.8977-12.62 5.122-12.62 11.51z" /></symbol>
<symbol id="i-etherium" viewBox="0 0 32 32" ><circle cx="16" cy="16" r="16" /><g fill="#fff"><path d="m16.5 4v8.87l7.497 3.35z" fill-opacity=".602"/><path d="m16.5 4-7.498 12.22 7.498-3.35z"/><path d="m16.5 21.97v6.027l7.502-10.38z" fill-opacity=".602"/><path d="m16.5 28v-6.028l-7.498-4.351z"/><path d="m16.5 20.57 7.497-4.353-7.497-3.348z" fill-opacity=".2"/><path d="m9 16.22 7.498 4.353v-7.701z" fill-opacity=".602"/></g></symbol>
<symbol id="i-usdc" viewBox="0 0 32 32" ><path d="m16 0c-8.867 0-16 7.133-16 16 0 8.867 7.133 16 16 16 8.867 0 16-7.133 16-16 0-8.867-7.133-16-16-16zm-3.4 4.667c0.2667 0.06656 0.4 0.2666 0.4 0.5333v0.9333c0 0.3334-0.1333 0.5334-0.4 0.6667-2.733 1-4.933 3.133-5.933 5.933-1.933 5.133 0.7333 10.93 5.933 12.8 0.2 0.1334 0.4 0.4 0.4 0.6v0.9334c0 0.1333 1e-6 0.2-0.06672 0.2666-0.06656 0.2667-0.3333 0.4-0.6 0.2667-3.733-1.2-6.6-4.067-7.8-7.8-2-6.333 1.467-13.07 7.8-15.07 0.06672-0.06656 0.2-0.06656 0.2667-0.06656zm6.87 0.0145c0.06355 0.00208 0.1302 0.01874 0.1969 0.05206 3.667 1.2 6.6 4.067 7.8 7.867 2 6.333-1.467 13.07-7.8 15.07-0.06672 0.06656-0.2 0.06656-0.2667 0.06656-0.2667-0.06656-0.4-0.2666-0.4-0.5333v-0.9333c0-0.3334 0.1333-0.5334 0.4-0.6667 2.733-1 4.933-3.133 5.933-5.933 1.933-5.133-0.7333-10.93-5.933-12.8-0.2-0.1334-0.4-0.4-0.4-0.6667v-0.9333c0-0.1334-2e-6 -0.2 0.06672-0.2667 0.04992-0.2 0.2124-0.325 0.4031-0.3188zm-4.003 3.452h1c0.3333 0.06672 0.5333 0.2667 0.5333 0.5334v1.6c1.533 0.1333 2.733 1.267 3 2.733v0.06672c0 0.2666-0.2 0.4666-0.4667 0.4666h-1.067c-0.2-1e-6 -0.4-0.1333-0.4667-0.3333-0.3333-1-1-1.4-2.2-1.4-1.333 0-2 0.5998-2 1.533s0.4 1.467 2.4 1.733c2.8 0.3333 4.2 1.133 4.2 3.467 0 1.8-1.333 3.2-3.333 3.533v1.6c-0.06672 0.3333-0.2667 0.5333-0.5334 0.5333h-1c-0.3333-0.06672-0.5333-0.2667-0.5333-0.5333v-1.6c-2.2-0.3334-3.267-1.533-3.533-3.2v-0.06672c0-0.2667 0.2-0.4667 0.4666-0.4667h1.133c0.2 0 0.4 0.1334 0.4666 0.4 0.2 1 0.8 1.733 2.533 1.733 1.267 0 2.2-0.7333 2.2-1.8 0-1.067-0.6-1.467-2.467-1.8-2.8-0.3334-4.133-1.2-4.133-3.4 0-1.667 1.267-3 3.267-3.267v-1.533c0.06672-0.3334 0.2667-0.5334 0.5334-0.5334z" /></symbol>
<symbol id="i-jusd" viewBox="0 0 32 32" ><use href="#i-usdc" /></symbol>
<symbol id="i-jusdt" viewBox="0 0 32 32" ><use href="#i-usdc" /></symbol>
<symbol id="i-eth" viewBox="0 0 32 32" ><use href="#i-etherium" /></symbol>
<symbol id='plus' viewBox="0 0 61 61" fill="none"><path d="M30.4786 41.0335C29.2838 41.0335 28.3151 40.0649 28.3151 38.8701V33.4939C28.3151 32.8314 27.7781 32.2943 27.1156 32.2943H22.5926C21.447 32.2943 20.5182 31.3656 20.5182 30.2199C20.5182 29.0742 21.447 28.1454 22.5926 28.1454H27.1156C27.7781 28.1454 28.3151 27.6084 28.3151 26.9459V21.5697C28.3151 20.3749 29.2838 19.4062 30.4786 19.4062C31.6734 19.4062 32.642 20.3749 32.642 21.5697V26.9393C32.642 27.6054 33.182 28.1454 33.8482 28.1454H38.4074C39.5531 28.1454 40.4818 29.0742 40.4818 30.2199C40.4818 31.3656 39.5531 32.2943 38.4074 32.2943H33.8482C33.182 32.2943 32.642 32.8343 32.642 33.5005V38.8701C32.642 40.0649 31.6734 41.0335 30.4786 41.0335Z" fill="#313E8C"/></symbol>
<symbol id="i-camera" viewBox="0 0 129 129" ><path d="M113.576 30.8482H100.115L92.6837 19.6308C89.8793 15.4243 84.9717 12.9004 79.9239 12.9004H49.0761C44.0283 12.9004 39.1207 15.4243 36.3163 19.6308L28.8848 30.8482H15.4239C6.87065 30.8482 0 37.7189 0 46.2721V100.676C0 109.23 6.87065 116.1 15.4239 116.1H113.576C122.129 116.1 129 109.23 129 100.676V46.2721C129 37.7189 122.129 30.8482 113.576 30.8482ZM64.5 103.481C45.2902 103.481 29.7261 87.9167 29.7261 68.7069C29.7261 49.4971 45.2902 34.0732 64.5 34.0732C83.7098 34.0732 99.2739 49.6373 99.2739 68.8471C99.2739 87.9167 83.7098 103.481 64.5 103.481ZM111.613 52.5819C111.473 52.5819 111.333 52.5819 111.052 52.5819H105.443C102.92 52.4417 100.957 50.3384 101.097 47.8145C101.237 45.4308 103.06 43.608 105.443 43.4678H111.052C113.576 43.3276 115.679 45.2906 115.82 47.8145C115.96 50.3384 114.137 52.4417 111.613 52.5819Z" /><path d="M64.4999 49.4961C53.8434 49.4961 45.1499 58.1896 45.1499 68.8461C45.1499 79.5026 53.8434 88.0559 64.4999 88.0559C75.1564 88.0559 83.8499 79.3624 83.8499 68.7059C83.8499 58.0494 75.1564 49.4961 64.4999 49.4961Z" /></symbol>
<symbol id="i-chain" viewBox="0 0 100 100" ><path id="use4304" d="m52.06 23.03 13.77-13.77c3.107-3.107 8.223-2.994 11.47 0.2542l13.19 13.19c3.248 3.248 3.361 8.364 0.2542 11.47l-27.84 27.84c-3.107 3.107-8.223 2.994-11.47-0.2542l-6.245-6.245" fill="none" stroke-linecap="round" stroke-linejoin="round" stroke-width="12"/><path id="use4313" d="m47.94 76.97-13.77 13.77c-3.107 3.107-8.223 2.994-11.47-0.2542l-13.19-13.19c-3.248-3.248-3.361-8.364-0.2542-11.47l27.84-27.84c3.107-3.107 8.223-2.994 11.47 0.2542l6.245 6.245" fill="none" stroke-linecap="round" stroke-linejoin="round" stroke-width="12"/></symbol>
<symbol id="i-cal" viewBox="0 0 25 25" ><path d="m8.684 2.75c-0.4142 0-0.75 0.3358-0.75 0.75v1.75h-1.25c-2.071 0-3.75 1.679-3.75 3.75v10c0 2.071 1.679 3.75 3.75 3.75h12c2.071 0 3.75-1.679 3.75-3.75v-10c0-2.071-1.679-3.75-3.75-3.75h-1.25v-1.75c0-0.4142-0.3358-0.75-0.75-0.75-0.4142 0-0.75 0.3358-0.75 0.75v1.75h-6.5v-1.75c0-0.4142-0.3358-0.75-0.75-0.75zm-2 4h12c1.243 0 2.25 1.007 2.25 2.25v1.5h-16.5v-1.5c0-1.243 1.007-2.25 2.25-2.25zm-2.25 5.75h16.5v6.5c0 1.243-1.007 2.25-2.25 2.25h-12c-1.243 0-2.25-1.007-2.25-2.25v-6.5zm3.25 2c-0.554 0-1 0.446-1 1v2c0 0.554 0.446 1 1 1h2c0.554 0 1-0.446 1-1v-2c0-0.554-0.446-1-1-1h-2z" /></symbol>
<symbol id="i-bold-success" viewBox="0 0 21 20"><path d="m7.805 18.1-7.805-7.806 2.999-2.999 4.806 4.807 10.2-10.2 2.999 2.999z" stroke-width="1.696"/></symbol>
<symbol id="i-bold-error"  viewBox="0 0 21 20" ><path d="m5.402 1.902-3 3 5.098 5.098-5.098 5.098 3 3 5.098-5.098 5.098 5.098 3-3-5.098-5.098 5.098-5.098-3-3-5.098 5.098z" stroke-width="2"/></symbol>
<symbol id="i-bold-pending" viewBox="0 0 21 20" ><path d="m10.5 0c-5.499 0-10 4.501-10 10 0 5.499 4.501 10 10 10 5.499 0 10-4.501 10-10 0-5.499-4.501-10-10-10zm0 4c3.337 0 6 2.663 6 6 0 3.337-2.663 6-6 6-3.337 0-6-2.663-6-6 0-3.337 2.663-6 6-6z" /></symbol>
<symbol id="i-bold-arrow" viewBox="0 0 21 20" ><path d="m10.74 4.715v3.803h-10.2v4h10.2v3.662l9.93-5.732-9.93-5.732z" /></symbol>

<symbol id='i-chat-icon' viewBox="0 0 64 61" fill="none" xmlns="http://www.w3.org/2000/svg"><path d="M51.5357 14.6844C53.3334 17.2487 53.3334 20.8183 53.3334 27.9577C53.3334 35.097 53.3334 38.6667 51.5357 41.231C50.7575 42.3411 49.7575 43.2942 48.5928 44.036C46.2425 45.5327 43.0872 45.722 37.3334 45.7459V45.7494L34.3852 51.3693C33.4024 53.2427 30.5976 53.2427 29.6149 51.3693L26.6667 45.7494V45.7459C20.9128 45.722 17.7575 45.5327 15.4073 44.036C14.2426 43.2942 13.2426 42.3411 12.4643 41.231C10.6667 38.6667 10.6667 35.097 10.6667 27.9577C10.6667 20.8183 10.6667 17.2487 12.4643 14.6844C13.2426 13.5743 14.2426 12.6212 15.4073 11.8794C18.0977 10.166 21.8429 10.166 29.3334 10.166H34.6667C42.1572 10.166 45.9024 10.166 48.5928 11.8794C49.7575 12.6212 50.7575 13.5743 51.5357 14.6844Z" stroke="#001253" stroke-width="2" stroke-linecap="round" stroke-linejoin="round"/><path d="M24 22.875L40 22.875" stroke="#001253" stroke-width="2" stroke-linecap="round" stroke-linejoin="round"/><path d="M24 33.041H32" stroke="#001253" stroke-width="2" stroke-linecap="round" stroke-linejoin="round"/></symbol>
<symbol id='shareNew' viewBox="-1 -1 28 28"  xmlns="http://www.w3.org/2000/svg"><g clip-path="url(#clip0_4418_1978)"><path d="M17.8749 4.06301C17.8748 3.10984 18.2099 2.18697 18.8215 1.45588C19.433 0.724783 20.2822 0.232013 21.2204 0.0637831C22.1586 -0.104447 23.1261 0.0625745 23.9536 0.535627C24.7811 1.00868 25.4159 1.75764 25.747 2.65147C26.0781 3.5453 26.0843 4.52708 25.7646 5.42504C25.4449 6.323 24.8197 7.07997 23.9983 7.56349C23.1768 8.04702 22.2116 8.22632 21.2713 8.07002C20.331 7.91372 19.4756 7.43178 18.8548 6.70851L7.93807 11.7785C8.18903 12.5738 8.18903 13.4272 7.93807 14.2225L18.8548 19.2925C19.5111 18.5293 20.4273 18.0369 21.4259 17.9107C22.4245 17.7845 23.4344 18.0335 24.2599 18.6095C25.0853 19.1855 25.6676 20.0474 25.8938 21.0282C26.12 22.009 25.974 23.0389 25.4841 23.9182C24.9943 24.7975 24.1955 25.4637 23.2424 25.7876C22.2894 26.1115 21.2501 26.07 20.3259 25.6713C19.4017 25.2726 18.6584 24.5449 18.2401 23.6294C17.8218 22.7139 17.7583 21.6757 18.0618 20.716L7.14507 15.646C6.60465 16.2758 5.88431 16.725 5.08096 16.9331C4.2776 17.1413 3.42977 17.0984 2.65152 16.8103C1.87326 16.5222 1.20192 16.0026 0.727792 15.3215C0.253668 14.6404 -0.000488281 13.8304 -0.000488281 13.0005C-0.000488281 12.1706 0.253668 11.3607 0.727792 10.6795C1.20192 9.99843 1.87326 9.47886 2.65152 9.19073C3.42977 8.9026 4.2776 8.85972 5.08096 9.06787C5.88431 9.27602 6.60465 9.72521 7.14507 10.355L18.0618 5.28501C17.9376 4.8896 17.8745 4.47749 17.8749 4.06301Z"/></g><defs><clipPath id="clip0_4418_1978"><rect width="26" height="26" /></clipPath></defs></symbol>
<symbol id='dealAction'  viewBox="0 0 22 14"  fill="none" xmlns="http://www.w3.org/2000/svg"><path d="M17.0986 3.26502C18.0001 3.26502 18.731 2.53406 18.731 1.63249C18.731 0.730911 18.0001 0 17.0986 0C16.1968 0 15.4658 0.730953 15.4658 1.63249C15.4658 2.53406 16.1968 3.26502 17.0986 3.26502Z" fill="#001253"/><path d="M19.7844 2.79534C18.847 4.10837 17.5918 4.26042 16.2411 3.45856C16.1491 3.40405 15.7412 3.17929 15.6509 3.12561C13.478 1.83567 11.3076 2.34153 9.85207 4.37983C9.23356 5.24677 10.6641 6.0685 11.2757 5.21167C12.0277 4.15854 12.9839 3.85381 14.0298 4.18738C13.4943 5.11688 13.0261 6.04074 12.3655 7.35331C11.7047 8.66588 10.2457 9.71408 8.8439 8.89427C7.83239 8.30305 6.92021 9.75619 7.92867 10.3456C9.84252 11.4641 12.0865 10.7773 13.2321 9.32329C13.2719 9.34453 13.3138 9.36369 13.3599 9.3798C14.2958 9.70586 15.5225 10.5739 15.8963 10.8816C16.27 11.1892 16.9121 12.7565 17.2933 13.5439C17.7559 14.4994 19.2496 13.8035 18.7854 12.844C18.3532 11.9505 17.6277 10.1674 17.0619 9.71621C16.608 9.35438 15.7268 8.68099 14.9794 8.29896C15.485 7.31955 16.0115 6.35069 16.5658 5.39857C18.3324 5.93986 20.0117 5.30224 21.2076 3.62697C21.8266 2.76016 20.3964 1.93843 19.7844 2.79534Z" fill="#001253"/><path d="M1 1H12" stroke="#001253" stroke-width="0.5" stroke-linecap="round"/><path d="M1 3H9" stroke="#001253" stroke-width="0.5" stroke-linecap="round"/><path d="M1 5H6" stroke="#001253" stroke-width="0.5" stroke-linecap="round"/><path d="M1 7H8" stroke="#001253" stroke-width="0.5" stroke-linecap="round"/><path d="M1 9H6" stroke="#001253" stroke-width="0.5" stroke-linecap="round"/></symbol>
<symbol id='dealOptions' viewBox="0 0 20 4" fill="none" xmlns="http://www.w3.org/2000/svg"><circle cx="2" cy="2" r="2" fill="#001253"/><circle cx="10" cy="2" r="2" fill="#001253"/><circle cx="18" cy="2" r="2" fill="#001253"/></symbol>
<symbol id='NotificationsBell'  viewBox="0 0 17 18" fill="none" xmlns="http://www.w3.org/2000/svg"><path d="M7.50047 18.0001C8.85877 18.0001 9.99507 17.0317 10.256 15.75H4.74494C5.00601 17.0317 6.14227 18.0001 7.50047 18.0001ZM12.7595 8.9993C12.7565 8.9993 12.7535 9 12.7505 9C9.85623 9 7.50047 6.64494 7.50047 3.75001C7.50047 2.95418 7.68353 2.2019 8.00226 1.52542C7.8372 1.50974 7.66992 1.5 7.50047 1.5C4.60101 1.5 2.25048 3.85039 2.25048 6.74999V8.84099C2.25048 10.3252 1.60023 11.7263 0.459399 12.6907C0.0791465 13.0156 -0.0896046 13.533 0.0468729 14.0378C0.205886 14.625 0.786389 15.0001 1.39548 15.0001H13.6017C14.2407 15.0001 14.843 14.586 14.9727 13.9598C15.0732 13.4753 14.9007 12.9915 14.525 12.6758C13.4344 11.7616 12.8038 10.4182 12.7595 8.9993Z" fill="#001253"/><path d="M16.502 3.75007C16.502 5.82114 14.8231 7.5 12.7519 7.5C10.6808 7.5 9.00195 5.82114 9.00195 3.75007C9.00195 1.679 10.6808 0 12.7519 0C14.8231 0 16.502 1.679 16.502 3.75007Z" fill="#B42B2B"/></symbol>
<symbol id='failIco' viewBox="0 0 20 20" fill="none" xmlns="http://www.w3.org/2000/svg"><path d="M9 13H11V15H9V13ZM9 5H11V11H9V5ZM9.99 0C4.47 0 0 4.48 0 10C0 15.52 4.47 20 9.99 20C15.52 20 20 15.52 20 10C20 4.48 15.52 0 9.99 0ZM10 18C5.58 18 2 14.42 2 10C2 5.58 5.58 2 10 2C14.42 2 18 5.58 18 10C18 14.42 14.42 18 10 18Z" fill="#F44336"/></symbol>
<symbol id='hintIco' viewBox="0 0 20 20" fill="none" xmlns="http://www.w3.org/2000/svg"><path d="M9 13H11V15H9V13ZM9 5H11V11H9V5ZM9.99 0C4.47 0 0 4.48 0 10C0 15.52 4.47 20 9.99 20C15.52 20 20 15.52 20 10C20 4.48 15.52 0 9.99 0ZM10 18C5.58 18 2 14.42 2 10C2 5.58 5.58 2 10 2C14.42 2 18 5.58 18 10C18 14.42 14.42 18 10 18Z" fill="#2196F3"/></symbol>
<symbol id='successfulIco' viewBox="0 0 20 20" fill="none" xmlns="http://www.w3.org/2000/svg"><path d="M10 0C4.48 0 0 4.48 0 10C0 15.52 4.48 20 10 20C15.52 20 20 15.52 20 10C20 4.48 15.52 0 10 0ZM10 18C5.59 18 2 14.41 2 10C2 5.59 5.59 2 10 2C14.41 2 18 5.59 18 10C18 14.41 14.41 18 10 18ZM14.59 5.58L8 12.17L5.41 9.59L4 11L8 15L16 7L14.59 5.58Z" fill="#43A047"/></symbol>
<symbol id='warningIco' viewBox="0 0 20 20" fill="none" xmlns="http://www.w3.org/2000/svg"><path d="M9 13H11V15H9V13ZM9 5H11V11H9V5ZM9.99 0C4.47 0 0 4.48 0 10C0 15.52 4.47 20 9.99 20C15.52 20 20 15.52 20 10C20 4.48 15.52 0 9.99 0ZM10 18C5.58 18 2 14.42 2 10C2 5.58 5.58 2 10 2C14.42 2 18 5.58 18 10C18 14.42 14.42 18 10 18Z" fill="#FF9800"/></symbol>
<symbol id='NotificationsBellWithoutDot' viewBox="0 0 16 17" fill="none" xmlns="http://www.w3.org/2000/svg">
<path d="M8.49748 16.5001C9.85578 16.5001 10.9921 15.5317 11.253 14.25H5.74195C6.00302 15.5317 7.13928 16.5001 8.49748 16.5001ZM13.7565 7.4993C13.7535 7.4993 13.7505 7.5 13.7475 7.5C10.8532 7.5 8.49748 5.14494 8.49748 2.25001C8.49748 1.45418 8.68054 0.701899 8.99927 0.0254181C8.83421 0.00973833 8.66693 0 8.49748 0C5.59802 0 3.24749 2.35039 3.24749 5.24999V7.34099C3.24749 8.82523 2.59724 10.2263 1.45641 11.1907C1.07616 11.5156 0.907404 12.033 1.04388 12.5378C1.20289 13.125 1.7834 13.5001 2.39248 13.5001H14.5987C15.2377 13.5001 15.84 13.086 15.9697 12.4598C16.0703 11.9753 15.8977 11.4915 15.522 11.1758C14.4314 10.2616 13.8008 8.91821 13.7565 7.4993Z" fill="#001253"/>
<path d="M8.49748 16.5001C7.13928 16.5001 6.00302 15.5317 5.74195 14.25H11.253C10.9921 15.5317 9.85578 16.5001 8.49748 16.5001ZM3.23748 7.4993C3.24051 7.4993 3.24353 7.5 3.24656 7.5C6.14078 7.5 8.49748 5.14494 8.49748 2.25001C8.49748 1.45418 8.31348 0.701899 7.99475 0.0254181C8.15981 0.00973833 8.32802 0 8.49748 0C11.3969 0 13.7465 2.35039 13.7465 5.24999V7.34099C13.7465 8.82523 14.3968 10.2263 15.5376 11.1907C15.9179 11.5156 16.0866 12.033 15.9501 12.5378C15.7911 13.125 15.2106 13.5001 14.6015 13.5001H2.39527C1.75631 13.5001 1.15397 13.086 1.02431 12.4598C0.923766 11.9753 1.09628 11.4915 1.47203 11.1758C2.56259 10.2616 3.19326 8.91821 3.23748 7.4993Z" fill="#001253"/>
</symbol>
<symbol id="i-send" viewBox="0 0 19 19" ><path d="m1.32 0.8223c-0.6986-0.3305-1.38 0.4838-0.9316 1.113l5.389 7.564-5.389 7.564c-0.4485 0.6295 0.233 1.444 0.9316 1.113l17-8c0.5716-0.271 0.5716-1.084 0-1.355z" /></symbol>
<symbol id="i-arrow" viewBox="0 0 7 11" >
<path d="M0.999996 11C0.802232 10.9999 0.608922 10.9413 0.444503 10.8314C0.280084 10.7215 0.151937 10.5653 0.076263 10.3826C0.000588626 10.1999 -0.0192161 9.99883 0.0193522 9.80486C0.0579205 9.61089 0.15313 9.43272 0.292946 9.29285L4.08579 5.5L0.292946 1.70715C0.200081 1.6143 0.126413 1.50407 0.0761492 1.38275C0.0258855 1.26143 9.97931e-06 1.13139 2.88593e-09 1.00007C-9.97353e-06 0.868751 0.0258459 0.738713 0.0760912 0.617384C0.126337 0.496055 0.199987 0.385811 0.292838 0.292946C0.385689 0.200081 0.495923 0.126413 0.617244 0.0761492C0.738565 0.0258855 0.868599 9.97654e-06 0.99992 2.88434e-09C1.13124 -9.97077e-06 1.26128 0.0258458 1.38261 0.0760911C1.50394 0.126336 1.61418 0.199987 1.70705 0.292838L6.20716 4.79274C6.30005 4.88559 6.37373 4.99583 6.42401 5.11717C6.47428 5.23851 6.50015 5.36856 6.50015 5.4999C6.50015 5.63123 6.47428 5.76129 6.42401 5.88262C6.37373 6.00396 6.30005 6.1142 6.20716 6.20705L1.70705 10.7072C1.6143 10.8002 1.50409 10.8739 1.38275 10.9242C1.26141 10.9744 1.13133 11.0002 0.999996 11Z" />
</symbol>

<symbol id="i-landing-plus" viewBox="0 0 12 12" ><path d="M6 12C5.45884 12 5.02013 11.5613 5.02013 11.0201V7.88608C5.02013 7.33379 4.57242 6.88608 4.02013 6.88608H0.886075C0.396709 6.88608 0 6.48937 0 6C0 5.51063 0.39671 5.11392 0.886076 5.11392H4.02014C4.57242 5.11392 5.02013 4.66621 5.02013 4.11392V0.979867C5.02013 0.438702 5.45884 0 6 0C6.54117 0 6.97987 0.438701 6.97987 0.979866V4.11392C6.97987 4.66621 7.42758 5.11392 7.97987 5.11392H11.1139C11.6033 5.11392 12 5.51063 12 6C12 6.48937 11.6033 6.88608 11.1139 6.88608H7.97987C7.42758 6.88608 6.97987 7.33379 6.97987 7.88608V11.0201C6.97987 11.5613 6.54117 12 6 12Z" /></symbol>

<symbol id="i-play" viewBox="0 0 12 12" ><path d="m11.24 4.821-8.962-4.637c-0.4756-0.2461-1.043-0.246-1.519-4.9e-5 -0.4756 0.246-0.7596 0.6867-0.7596 1.179v9.273c0 0.492 0.2839 0.9327 0.7596 1.179 0.2378 0.123 0.4985 0.1845 0.7594 0.1845 0.2609 0 0.5218-0.0616 0.7596-0.1846l8.962-4.637c0.4755-0.2461 0.7594-0.6868 0.7594-1.179 0-0.492-0.2839-0.9327-0.7594-1.179z" fill="#182056"/></symbol>
<symbol id="i-landing-triangle" viewBox="0 0 15 10"><path d="M7.5 0L14.8612 9.75L0.138784 9.75L7.5 0Z" fill="#001253"/></symbol>
<symbol id="i-copy" viewBox="0 0 24 24"><path d="M18 6v-6h-18v18h6v6h18v-18h-6zm-12 10h-4v-14h14v4h-10v10zm16 6h-14v-14h14v14z"/></symbol>
<symbol id="i-lock" viewBox="0 0 24 24" ><path id="rect1" d="m10.41 0.5c-2.972 0-5.412 2.44-5.412 5.412v4.088h-1.027c-1.108 0-2 0.892-2 2v10c1e-7 1.108 0.892 2 2 2h16.08c1.108 0 2-0.892 2-2v-10c0-1.108-0.892-2-2-2h-1.051v-4.088c0-2.972-2.44-5.412-5.412-5.412h-3.176zm0 3h3.176c1.362 0 2.412 1.05 2.412 2.412v4.088h-8v-4.088c0-1.362 1.05-2.412 2.412-2.412z"/></symbol>
<symbol id="i-help" viewBox="0 0 24 24" ><path id="text2" d="m12.24 4.51e-5c-4.551 0-7.449 2.798-7.719 7.18l5.292 0.3034c0.1348-1.719 0.9775-2.596 2.292-2.596 1.382 0 2.022 1.011 2.022 2.258 0 1.18-0.4382 1.888-1.719 2.798-2.494 1.82-3 3.034-3 5.831v1.213h5.393v-0.8764c0-1.281 0.2697-1.955 1.618-2.966 2.157-1.618 3.067-3.539 3.067-6.337 0-3.775-2.697-6.809-7.247-6.809zm-2.831 24h5.393v-5.022h-5.393z" /></symbol>
<symbol id="i-question" viewBox="0 0 16 16" fill="none" xmlns="http://www.w3.org/2000/svg"><circle cx="8" cy="8" r="7.5" fill="none" stroke="#001253"/><path d="M7.25928 9.75V9.70312C7.26449 9.20573 7.31657 8.8099 7.41553 8.51562C7.51449 8.22135 7.65511 7.98307 7.8374 7.80078C8.01969 7.61849 8.23844 7.45052 8.49365 7.29687C8.6473 7.20312 8.78532 7.09245 8.90771 6.96484C9.03011 6.83464 9.12646 6.6849 9.19678 6.51562C9.26969 6.34635 9.30615 6.15885 9.30615 5.95312C9.30615 5.69792 9.24626 5.47656 9.12646 5.28906C9.00667 5.10156 8.84652 4.95703 8.646 4.85547C8.44548 4.75391 8.22282 4.70312 7.97803 4.70312C7.76449 4.70312 7.55876 4.7474 7.36084 4.83594C7.16292 4.92448 6.99756 5.0638 6.86475 5.25391C6.73193 5.44401 6.65511 5.69271 6.63428 6H5.6499C5.67074 5.55729 5.78532 5.17839 5.99365 4.86328C6.20459 4.54818 6.48193 4.30729 6.82568 4.14062C7.17204 3.97396 7.55615 3.89062 7.97803 3.89062C8.43636 3.89062 8.8348 3.98177 9.17334 4.16406C9.51449 4.34635 9.77751 4.59635 9.9624 4.91406C10.1499 5.23177 10.2437 5.59375 10.2437 6C10.2437 6.28646 10.1994 6.54557 10.1108 6.77734C10.0249 7.00911 9.8999 7.21615 9.73584 7.39844C9.57438 7.58073 9.37907 7.74219 9.1499 7.88281C8.92074 8.02604 8.73714 8.17708 8.59912 8.33594C8.4611 8.49219 8.36084 8.67839 8.29834 8.89453C8.23584 9.11068 8.20199 9.38021 8.19678 9.70312V9.75H7.25928ZM7.75928 12.0625C7.56657 12.0625 7.4012 11.9935 7.26318 11.8555C7.12516 11.7174 7.05615 11.5521 7.05615 11.3594C7.05615 11.1667 7.12516 11.0013 7.26318 10.8633C7.4012 10.7253 7.56657 10.6562 7.75928 10.6562C7.95199 10.6562 8.11735 10.7253 8.25537 10.8633C8.39339 11.0013 8.4624 11.1667 8.4624 11.3594C8.4624 11.487 8.42985 11.6042 8.36475 11.7109C8.30225 11.8177 8.21761 11.9036 8.11084 11.9687C8.00667 12.0313 7.88949 12.0625 7.75928 12.0625Z" fill="#001253"/></symbol>
</svg>