<svg width="27" height="26" viewBox="0 0 27 26" fill="none" xmlns="http://www.w3.org/2000/svg">
<g clip-path="url(#clip0)">
<path d="M15.9883 13C15.9883 14.3743 14.8743 15.4883 13.5 15.4883C12.1257 15.4883 11.0117 14.3743 11.0117 13C11.0117 11.6257 12.1257 10.5117 13.5 10.5117C14.8743 10.5117 15.9883 11.6257 15.9883 13Z" fill="#3355FF"/>
<path d="M19.319 8.5981C19.1994 8.27397 19.0086 7.98059 18.7606 7.73978C18.5198 7.49182 18.2266 7.30099 17.9023 7.18138C17.6393 7.07922 17.2441 6.95763 16.5163 6.9245C15.729 6.8886 15.493 6.88086 13.4998 6.88086C11.5065 6.88086 11.2704 6.8884 10.4833 6.9243C9.75549 6.95763 9.36015 7.07922 9.09732 7.18138C8.77299 7.30099 8.47961 7.49182 8.239 7.73978C7.99104 7.98059 7.80022 8.27377 7.6804 8.5981C7.57825 8.86113 7.45665 9.25647 7.42352 9.98427C7.38762 10.7714 7.37988 11.0074 7.37988 13.0008C7.37988 14.994 7.38762 15.23 7.42352 16.0173C7.45665 16.7451 7.57825 17.1403 7.6804 17.4033C7.80022 17.7276 7.99084 18.0208 8.2388 18.2616C8.47961 18.5096 8.7728 18.7004 9.09712 18.82C9.36015 18.9224 9.75549 19.044 10.4833 19.0771C11.2704 19.113 11.5063 19.1205 13.4996 19.1205C15.4932 19.1205 15.7292 19.113 16.5161 19.0771C17.2439 19.044 17.6393 18.9224 17.9023 18.82C18.5533 18.5689 19.0679 18.0543 19.319 17.4033C19.4212 17.1403 19.5428 16.7451 19.5761 16.0173C19.612 15.23 19.6196 14.994 19.6196 13.0008C19.6196 11.0074 19.612 10.7714 19.5761 9.98427C19.543 9.25647 19.4214 8.86113 19.319 8.5981ZM13.4998 16.8338C11.3827 16.8338 9.66643 15.1177 9.66643 13.0006C9.66643 10.8835 11.3827 9.1674 13.4998 9.1674C15.6168 9.1674 17.333 10.8835 17.333 13.0006C17.333 15.1177 15.6168 16.8338 13.4998 16.8338ZM17.4846 9.91167C16.9898 9.91167 16.5887 9.51057 16.5887 9.01585C16.5887 8.52113 16.9898 8.12004 17.4846 8.12004C17.9793 8.12004 18.3804 8.52113 18.3804 9.01585C18.3802 9.51057 17.9793 9.91167 17.4846 9.91167Z" fill="#3355FF"/>
<path d="M13.5 0C6.3214 0 0.5 5.8214 0.5 13C0.5 20.1786 6.3214 26 13.5 26C20.6786 26 26.5 20.1786 26.5 13C26.5 5.8214 20.6786 0 13.5 0ZM20.9198 16.0776C20.8837 16.8723 20.7574 17.4148 20.5729 17.8897C20.1851 18.8924 19.3924 19.6851 18.3897 20.0729C17.915 20.2574 17.3723 20.3835 16.5778 20.4198C15.7818 20.4561 15.5275 20.4648 13.5002 20.4648C11.4727 20.4648 11.2186 20.4561 10.4224 20.4198C9.62793 20.3835 9.08521 20.2574 8.61052 20.0729C8.11223 19.8854 7.66115 19.5916 7.28822 19.2118C6.90855 18.8391 6.61478 18.3878 6.42732 17.8897C6.24284 17.415 6.11649 16.8723 6.08038 16.0778C6.04369 15.2816 6.03516 15.0273 6.03516 13C6.03516 10.9727 6.04369 10.7184 6.08018 9.92238C6.11629 9.12773 6.24245 8.58521 6.42693 8.11032C6.61438 7.61223 6.90836 7.16095 7.28822 6.78822C7.66095 6.40836 8.11223 6.11458 8.61032 5.92712C9.08521 5.74265 9.62773 5.61649 10.4224 5.58018C11.2184 5.54388 11.4727 5.53516 13.5 5.53516C15.5273 5.53516 15.7816 5.54388 16.5776 5.58038C17.3723 5.61649 17.9148 5.74265 18.3897 5.92693C18.8878 6.11438 19.3391 6.40836 19.712 6.78822C20.0916 7.16115 20.3856 7.61223 20.5729 8.11032C20.7576 8.58521 20.8837 9.12773 20.92 9.92238C20.9563 10.7184 20.9648 10.9727 20.9648 13C20.9648 15.0273 20.9563 15.2816 20.9198 16.0776Z" fill="#3355FF"/>
</g>
<defs>
<clipPath id="clip0">
<rect width="26" height="26" fill="white" transform="translate(0.5)"/>
</clipPath>
</defs>
</svg>
