<svg width="26" height="27" viewBox="0 0 26 27" fill="none" xmlns="http://www.w3.org/2000/svg">
<path d="M13 0.75C5.8214 0.75 0 6.5714 0 13.75C0 20.9286 5.8214 26.75 13 26.75C20.1786 26.75 26 20.9286 26 13.75C26 6.5714 20.1786 0.75 13 0.75ZM9.22235 20.4023H6.05626V10.8771H9.22235V20.4023ZM7.6394 9.57642H7.61877C6.55634 9.57642 5.8692 8.84505 5.8692 7.93098C5.8692 6.99629 6.57736 6.28516 7.66043 6.28516C8.7435 6.28516 9.41 6.99629 9.43063 7.93098C9.43063 8.84505 8.7435 9.57642 7.6394 9.57642ZM20.6386 20.4023H17.4729V15.3066C17.4729 14.0259 17.0145 13.1525 15.8689 13.1525C14.9944 13.1525 14.4734 13.7417 14.2445 14.3104C14.1608 14.5139 14.1404 14.7984 14.1404 15.083V20.4023H10.9745C10.9745 20.4023 11.016 11.7707 10.9745 10.8771H14.1404V12.2258C14.5611 11.5767 15.3139 10.6535 16.9937 10.6535C19.0767 10.6535 20.6386 12.0149 20.6386 14.9406V20.4023Z" fill="#3355FF"/>
</svg>
