<svg width="80" height="31" version="1.1" viewBox="0 0 80 31" xmlns="http://www.w3.org/2000/svg">
 <path d="m11.72 0-2.582 0.6855v10.74c0 0.8043-0.158 1.559-0.4746 2.266-0.2968 0.7063-0.7138 1.324-1.248 1.854-0.5144 0.5297-1.128 0.9517-1.84 1.266-0.7123 0.2943-1.474 0.4414-2.285 0.4414h-3.287v2.531h3.287c1.148 0 2.237-0.2168 3.266-0.6484 1.029-0.4512 1.918-1.049 2.67-1.795 0.7717-0.7651 1.375-1.648 1.811-2.648 0.4551-1.02 0.6836-2.108 0.6836-3.266v-11.43zm34.32 0.2695c-0.8181 0-1.606 0.121-2.365 0.3633-0.7597 0.2237-1.431 0.5692-2.016 1.035-0.5648 0.4473-1.024 1.007-1.375 1.678-0.3311 0.6523-0.4961 1.398-0.4961 2.236 1e-6 0.9319 0.1473 1.705 0.4395 2.32 0.3116 0.5964 0.7202 1.1 1.227 1.51 0.5065 0.3914 1.07 0.7069 1.693 0.9492 0.6428 0.2236 1.297 0.4288 1.959 0.6152 0.6818 0.1678 1.334 0.3362 1.957 0.5039 0.6428 0.1491 1.218 0.3543 1.725 0.6152 0.5064 0.2423 0.9051 0.5598 1.197 0.9512 0.3116 0.3728 0.4668 0.8761 0.4668 1.51 0 0.5032-0.1061 0.9311-0.3203 1.285-0.2143 0.3541-0.4971 0.6522-0.8477 0.8945-0.3507 0.2423-0.7493 0.4194-1.197 0.5312-0.448 0.1118-0.8977 0.168-1.346 0.168-0.5649 0-1.109-0.06481-1.635-0.1953-0.5064-0.1305-0.964-0.3269-1.373-0.5879-0.3896-0.2795-0.7116-0.6251-0.9648-1.035-0.1913-0.3239-0.3216-0.6955-0.3906-1.115l-2.443 0.6504c0.1063 0.5184 0.2808 0.9986 0.5254 1.443 0.3896 0.7082 0.8962 1.307 1.52 1.791 0.6428 0.4846 1.373 0.8563 2.191 1.117 0.8181 0.2423 1.666 0.3633 2.543 0.3633 0.8376 0 1.635-0.121 2.395-0.3633 0.7597-0.2423 1.421-0.5879 1.986-1.035 0.5648-0.4659 1.015-1.034 1.346-1.705 0.3506-0.6709 0.5254-1.434 0.5254-2.291 0-1.211-0.2632-2.153-0.7891-2.824-0.5259-0.6896-1.188-1.221-1.986-1.594-0.7791-0.3914-1.627-0.6895-2.543-0.8945-0.9155-0.205-1.772-0.4296-2.57-0.6719-0.7791-0.2609-1.433-0.5958-1.959-1.006-0.5259-0.4287-0.7871-1.053-0.7871-1.873 0-0.5032 0.09622-0.9417 0.291-1.314 0.2143-0.3727 0.4873-0.6709 0.8184-0.8945 0.3506-0.2423 0.7493-0.4194 1.197-0.5312 0.448-0.1305 0.9075-0.1953 1.375-0.1953 0.5454 0 1.07 0.06485 1.576 0.1953 0.4447 0.1103 0.8479 0.2753 1.209 0.4922l2.857-0.7598c-0.2617-0.3139-0.5556-0.5967-0.8809-0.8496-0.6234-0.4846-1.344-0.8476-2.162-1.09-0.818-0.2609-1.676-0.3926-2.572-0.3926zm-13.87 1.467-2.541 0.6758v2.336 1.234l-1.232 0.001953-0.6797 2.504 1.912-0.001953v6.432c0 0.6958 0.1287 1.341 0.3848 1.938 0.2562 0.5964 0.5997 1.123 1.033 1.58 0.4532 0.4374 0.9753 0.7865 1.566 1.045 0.5911 0.2584 1.232 0.3867 1.922 0.3867 1.162 0 2.197-0.3679 3.104-1.104 0.4879-0.2737 1.617-1.909 1.209-3.59l-2.467 0.5059c0.0681 0.6094-0.216 0.9775-0.3672 1.086-0.4138 0.3579-0.9071 0.5371-1.479 0.5371-0.3153 0-0.6204-0.06039-0.916-0.1797-0.2758-0.1392-0.5216-0.3165-0.7383-0.5352-0.2167-0.2187-0.3953-0.4678-0.5332-0.7461-0.1182-0.2982-0.1777-0.6057-0.1777-0.9238v-6.434l4.891-0.005859 0.6797-2.506-5.57 0.005859v-1.23-3.012zm41.06 0.007812-2.543 0.6758v2.307 1.256l-1.162 0.001953-0.6777 2.506 1.84-0.003906v6.408c0 0.6958 0.1286 1.343 0.3848 1.939 0.2561 0.5964 0.6018 1.123 1.035 1.58 0.4532 0.4374 0.9752 0.7846 1.566 1.043 0.5911 0.2585 1.232 0.3887 1.922 0.3887 1.163 0 2.195-0.3679 3.102-1.104 0.4878-0.2736 1.617-1.911 1.209-3.592l-2.465 0.5059c0.068 0.6094-0.2179 0.9795-0.3691 1.088-0.4138 0.3579-0.9051 0.5371-1.477 0.5371-0.3152 0-0.6225-0.06039-0.918-0.1797-0.2759-0.1392-0.5216-0.3184-0.7383-0.5371-0.2168-0.2187-0.3932-0.4678-0.5312-0.7461-0.1182-0.2982-0.1777-0.6057-0.1777-0.9238v-6.41l4.961-0.005859 0.6797-2.506-5.641 0.007813v-1.254-2.982zm-53.55 3.098c-1.031 0.01964-2.008 0.2352-2.934 0.6445-0.9056 0.409-1.7 0.9616-2.383 1.66-0.6634 0.6786-1.186 1.482-1.568 2.41-0.3822 0.9082-0.5649 1.87-0.5488 2.889 0.0161 1.018 0.2297 1.984 0.6406 2.896 0.4106 0.8932 0.9579 1.677 1.643 2.35 0.7042 0.6525 1.516 1.165 2.434 1.539 0.9377 0.3738 1.921 0.5508 2.951 0.5312 1.308-0.0249 2.507-0.3892 3.643-1.01 1.344-0.7348 2.332-1.874 3.021-2.867 0.225-0.3242-0.02142-0.7525-0.416-0.7441l-2.354 0.05078c-0.4643 0.7335-0.8084 0.9284-1.535 1.354-0.7071 0.4248-1.507 0.6451-2.398 0.6621-0.5748 0.0109-1.123-0.06798-1.641-0.2344-0.5181-0.1664-0.9965-0.4021-1.438-0.707-0.4215-0.325-0.7949-0.708-1.119-1.152-0.3045-0.4446-0.5306-0.931-0.6777-1.457l12.34-0.2344-0.01953-1.264c-0.016-1.018-0.23-1.974-0.6406-2.867-0.4109-0.9127-0.9582-1.695-1.643-2.348-0.6847-0.6725-1.496-1.196-2.434-1.57-0.9179-0.3742-1.891-0.5509-2.922-0.5312zm41.11 0c-1.031 0.01964-2.008 0.2352-2.934 0.6445-0.9055 0.409-1.7 0.9616-2.383 1.66-0.6634 0.6786-1.186 1.482-1.568 2.41-0.3822 0.9082-0.5648 1.87-0.5488 2.889 0.0161 1.018 0.2297 1.984 0.6406 2.896 0.4106 0.8932 0.9579 1.677 1.643 2.35 0.7042 0.6525 1.516 1.165 2.434 1.539 0.9377 0.3738 1.923 0.5508 2.953 0.5312 1.308-0.0249 2.505-0.3891 3.641-1.01 1.344-0.7347 2.332-1.874 3.021-2.867 0.2251-0.3242-0.01946-0.7525-0.4141-0.7441l-2.354 0.05078c-0.4643 0.7335-0.8103 0.9284-1.537 1.354-0.7071 0.4248-1.507 0.6451-2.398 0.6621-0.5748 0.0109-1.121-0.06798-1.639-0.2344-0.5181-0.1664-0.9985-0.4021-1.439-0.707-0.4214-0.325-0.7949-0.708-1.119-1.152-0.3044-0.4446-0.5287-0.931-0.6758-1.457l12.34-0.2344-0.02148-1.264c-0.0161-1.018-0.2281-1.974-0.6387-2.867-0.4109-0.9127-0.9601-1.695-1.645-2.348-0.6846-0.6725-1.496-1.196-2.434-1.57-0.9179-0.3742-1.891-0.5509-2.922-0.5312zm-41.07 2.555c0.555-0.01058 1.091 0.06798 1.609 0.2344 0.5379 0.166 1.018 0.4114 1.439 0.7363 0.4212 0.3053 0.7854 0.6803 1.09 1.125 0.3242 0.4443 0.5581 0.9291 0.7051 1.455l-9.602 0.1836c0.1304-0.5313 0.3407-1.024 0.6309-1.48 0.31-0.4564 0.6707-0.8467 1.082-1.168 0.4307-0.3412 0.9016-0.603 1.414-0.7891 0.5126-0.186 1.056-0.2859 1.631-0.2969zm41.11 0c0.555-0.01058 1.091 0.06798 1.609 0.2344 0.538 0.166 1.018 0.4114 1.439 0.7363 0.4212 0.3053 0.7835 0.6803 1.088 1.125 0.3242 0.4443 0.5599 0.9291 0.707 1.455l-9.604 0.1836c0.1304-0.5313 0.3407-1.024 0.6309-1.48 0.3101-0.4564 0.6707-0.8467 1.082-1.168 0.4308-0.3412 0.9034-0.603 1.416-0.7891 0.5125-0.186 1.056-0.2859 1.631-0.2969z" fill="#182057"/>
 <path d="m28.27 25.19 0.07812 0.6172v3.873h1.012v-1.701h0.2383c0.4038 1e-6 0.7381 0.05346 1.004 0.1602 0.2709 0.1067 0.5192 0.2752 0.7441 0.5039l0.5508 0.5488c0.2504 0.2491 0.4737 0.4066 0.668 0.4727 0.1993 0.061 0.401 0.0918 0.6055 0.0918 0.1431 0 0.2677-0.01095 0.375-0.03125 0.1074-0.0153 0.1845-0.02962 0.2305-0.04492l0.1543-0.6172c-0.0153 0-0.07011-0.002713-0.1621-0.007813-0.092-5e-3 -0.2085-0.02766-0.3516-0.06836-0.1431-0.0406-0.3081-0.114-0.4922-0.2207-0.0511-0.0305-0.1227-0.0831-0.2148-0.1543-0.092-0.0711-0.1941-0.1499-0.3066-0.2363-0.1073-0.0864-0.2103-0.1652-0.3125-0.2363-0.1023-0.0762-0.1874-0.1304-0.2539-0.166 0.2607-0.0153 0.4704-0.06866 0.6289-0.1602 0.1636-0.0915 0.2881-0.2038 0.375-0.3359 0.0869-0.1321 0.147-0.2671 0.1777-0.4043 0.0306-0.1372 0.04492-0.2612 0.04492-0.373v-0.1445c0-0.1423-0.01346-0.2937-0.03906-0.4512-0.0255-0.1576-0.08378-0.3042-0.1758-0.4414-0.0869-0.1423-0.225-0.2574-0.4141-0.3438-0.184-0.0864-0.4384-0.1289-0.7656-0.1289h-3.398zm6.734 0v0.7324h1.992l0.007812 3.758h1.014v-3.758h2v-0.7324h-5.014zm6.934 0 0.07617 0.6172v3.873h1.012v-1.457c0.138 0.0102 0.345 0.02386 0.6211 0.03906 0.2811 0.0153 0.5842 0.02344 0.9062 0.02344h0.7812c0.2965 0 0.5367-0.04446 0.7207-0.1309 0.1841-0.0914 0.3247-0.2019 0.4219-0.334 0.0971-0.1372 0.1634-0.2776 0.1992-0.4199 0.0358-0.1474 0.05469-0.2797 0.05469-0.3965v-0.4492c0-0.1423-0.01356-0.2937-0.03906-0.4512-0.0256-0.1576-0.08378-0.3042-0.1758-0.4414-0.0869-0.1423-0.2249-0.2574-0.4141-0.3438-0.184-0.0864-0.4405-0.1289-0.7676-0.1289h-3.396zm21.74 0c-0.4958 0-0.8525 0.1178-1.072 0.3516-0.2198 0.2286-0.3301 0.5863-0.3301 1.074v1.699c0 0.2998 0.04125 0.5526 0.123 0.7559 0.0818 0.2033 0.2252 0.3553 0.4297 0.457 0.2045 0.1016 0.4867 0.1523 0.8496 0.1523h2.133c0.4243 0 0.7478-0.01985 0.9727-0.06055 0.225-0.0406 0.3791-0.08787 0.4609-0.1387 0.0869-0.0508 0.1309-0.08788 0.1309-0.1133l-0.3145-0.5039c-0.1125 0.0203-0.4047 0.04025-0.875 0.06055-0.4652 0.0153-1.122 0.02344-1.971 0.02344h-0.3145c-0.2301 0-0.3904-0.04522-0.4824-0.1367-0.0869-0.0966-0.1309-0.2315-0.1309-0.4043v-1.943c0-0.3608 0.2043-0.541 0.6133-0.541h0.3906c0.8128 0 1.431 0.008997 1.855 0.0293 0.4294 0.0152 0.6885 0.03168 0.7754 0.04688l0.1543-0.6328c0-0.0406-0.09596-0.07963-0.2852-0.1152-0.184-0.0407-0.452-0.06055-0.8047-0.06055h-2.309zm-56.36 0.007812c-0.3578 1e-6 -0.6393 0.05888-0.8438 0.1758-0.2045 0.1118-0.3506 0.2612-0.4375 0.4492-0.08179 0.188-0.123 0.3936-0.123 0.6172v0.123c0 0.432 0.1184 0.7443 0.3535 0.9375 0.2351 0.188 0.6107 0.2812 1.127 0.2812h1.779c0.2556 0 0.4187 0.03903 0.4902 0.1152 0.07668 0.0763 0.1152 0.203 0.1152 0.3809v0.1523c0 0.188-0.04666 0.323-0.1387 0.4043-0.09202 0.0762-0.247 0.1133-0.4668 0.1133h-0.1465c-0.8179 0-1.461-0.008137-1.932-0.02344-0.4652-0.0203-0.7574-0.04025-0.875-0.06055l-0.3066 0.6641c0 0.0406 0.08251 0.07497 0.2461 0.1055 0.1636 0.0305 0.418 0.04688 0.7656 0.04688h2.547c0.4856 0 0.8253-0.1179 1.02-0.3516 0.1994-0.2338 0.2988-0.5408 0.2988-0.9219v-0.1211c0-0.3405-0.06089-0.5987-0.1836-0.7715-0.1226-0.1779-0.2993-0.2991-0.5293-0.3652-0.2301-0.0661-0.5088-0.09961-0.8359-0.09961h-1.701c-0.2198 0-0.3794-0.03979-0.4766-0.1211-0.09202-0.0864-0.1387-0.2132-0.1387-0.3809v-0.1309c0.00511-0.1423 0.04907-0.2581 0.1309-0.3496 0.08179-0.0965 0.2414-0.1445 0.4766-0.1445l0.08398 0.007812c0.7923 0 1.422 0.008997 1.893 0.0293 0.4703 0.0153 0.7733 0.03158 0.9062 0.04688l0.1523-0.6406c0-0.0406-0.1076-0.07963-0.3223-0.1152-0.2147-0.0356-0.4942-0.05274-0.8418-0.05274h-2.086zm5.695 0 0.07617 0.6094v3.873h1.014v-2.844h0.07617l0.3066 0.6641 0.9668 1.723h0.9277l0.9648-1.723 0.2988-0.6641h0.08398v2.844h1.014v-4.482h-1.035l-1.795 3.049-1.732-3.049h-1.166zm9.74 0-2.246 4.482h1.119l0.498-0.9688h2.744l0.4531 0.9688h1.182l-2.24-4.482h-1.51zm26.27 0v3.873l-0.07617 0.6094h3.65c0.3374 0 0.5749-0.008137 0.7129-0.02344 0.138-0.0203 0.207-0.04025 0.207-0.06055l-0.3066-0.6484h-3.176v-3.75h-1.012zm7.963 0-2.246 4.482h1.119l0.498-0.9688h2.746l0.4512 0.9688h1.182l-2.238-4.482h-1.512zm12.3 0v4.482h4.186c0.3374 0 0.5749-0.008137 0.7129-0.02344 0.138-0.0203 0.207-0.04025 0.207-0.06055l-0.3066-0.6484h-3.787v-1.211h2.867v-0.7559h-2.867v-1.051h3.758v-0.7324h-4.77zm-45.83 0.6855h0.07617l1.051 2.082h-2.186l1.059-2.082zm34.23 0h0.07812l1.051 2.082h-2.186l1.057-2.082zm-28.34 0.03906h2.094c0.225 0 0.3799 0.05617 0.4668 0.168s0.1309 0.2476 0.1309 0.4102v0.1758c0 0.1575-0.04667 0.2871-0.1387 0.3887-0.0869 0.0966-0.2419 0.1582-0.4668 0.1836-0.1227 0.0102-0.2607 0.0191-0.4141 0.0293-0.1533 0.0051-0.3272 0.007812-0.5215 0.007812-0.1636 0-0.3401-0.002712-0.5293-0.007812-0.1891-0.0051-0.3962-0.0141-0.6211-0.0293v-1.326zm13.67 0h2.094c0.2249 0 0.3818 0.05617 0.4688 0.168s0.1289 0.2476 0.1289 0.4102v0.4805c0 0.1575-0.04201 0.2925-0.1289 0.4043-0.0869 0.1118-0.2466 0.168-0.4766 0.168h-2.086v-1.631z" fill="#b42b2b"/>
</svg>
