<svg width="129" height="129" viewBox="0 0 129 129" fill="none" xmlns="http://www.w3.org/2000/svg">
<path d="M113.576 30.8482H100.115L92.6837 19.6308C89.8793 15.4243 84.9717 12.9004 79.9239 12.9004H49.0761C44.0283 12.9004 39.1207 15.4243 36.3163 19.6308L28.8848 30.8482H15.4239C6.87065 30.8482 0 37.7189 0 46.2721V100.676C0 109.23 6.87065 116.1 15.4239 116.1H113.576C122.129 116.1 129 109.23 129 100.676V46.2721C129 37.7189 122.129 30.8482 113.576 30.8482ZM64.5 103.481C45.2902 103.481 29.7261 87.9167 29.7261 68.7069C29.7261 49.4971 45.2902 34.0732 64.5 34.0732C83.7098 34.0732 99.2739 49.6373 99.2739 68.8471C99.2739 87.9167 83.7098 103.481 64.5 103.481ZM111.613 52.5819C111.473 52.5819 111.333 52.5819 111.052 52.5819H105.443C102.92 52.4417 100.957 50.3384 101.097 47.8145C101.237 45.4308 103.06 43.608 105.443 43.4678H111.052C113.576 43.3276 115.679 45.2906 115.82 47.8145C115.96 50.3384 114.137 52.4417 111.613 52.5819Z" fill="#7CA1FF"/>
<path d="M64.4999 49.4961C53.8434 49.4961 45.1499 58.1896 45.1499 68.8461C45.1499 79.5026 53.8434 88.0559 64.4999 88.0559C75.1564 88.0559 83.8499 79.3624 83.8499 68.7059C83.8499 58.0494 75.1564 49.4961 64.4999 49.4961Z" fill="#7CA1FF"/>
</svg>
