<svg width="47" height="47" viewBox="0 0 47 47" fill="none" xmlns="http://www.w3.org/2000/svg">
<path d="M41.3804 11.2393H36.4761L33.7685 7.15237C32.7467 5.61976 30.9587 4.7002 29.1196 4.7002H17.8804C16.0413 4.7002 14.2533 5.61976 13.2315 7.15237L10.5239 11.2393H5.61957C2.50326 11.2393 0 13.7426 0 16.8589V36.6806C0 39.7969 2.50326 42.3002 5.61957 42.3002H41.3804C44.4967 42.3002 47 39.7969 47 36.6806V16.8589C47 13.7426 44.4967 11.2393 41.3804 11.2393ZM23.5 37.7024C16.5011 37.7024 10.8304 32.0317 10.8304 25.0328C10.8304 18.0339 16.5011 12.4143 23.5 12.4143C30.4989 12.4143 36.1696 18.085 36.1696 25.0839C36.1696 32.0317 30.4989 37.7024 23.5 37.7024ZM40.6652 19.1578C40.6141 19.1578 40.563 19.1578 40.4609 19.1578H38.4174C37.4978 19.1067 36.7826 18.3404 36.8337 17.4208C36.8848 16.5524 37.5489 15.8882 38.4174 15.8372H40.4609C41.3804 15.7861 42.1467 16.5013 42.1978 17.4208C42.2489 18.3404 41.5848 19.1067 40.6652 19.1578Z" fill="#E2E6FC"/>
<path d="M23.4999 18.0342C19.6173 18.0342 16.45 21.2016 16.45 25.0842C16.45 28.9668 19.6173 32.0831 23.4999 32.0831C27.3826 32.0831 30.5499 28.9157 30.5499 25.0331C30.5499 21.1505 27.3826 18.0342 23.4999 18.0342Z" fill="#E2E6FC"/>
</svg>
