<svg width="38" height="37" viewBox="0 0 38 37" fill="none" xmlns="http://www.w3.org/2000/svg">
<path fill-rule="evenodd" clip-rule="evenodd" d="M19.1998 36.8006C9.09288 36.8006 0.8996 28.6073 0.8996 18.5004C0.899601 8.39347 9.09288 0.200194 19.1998 0.200195C29.3067 0.200195 37.5 8.39347 37.5 18.5004C37.5 28.6073 29.3067 36.8006 19.1998 36.8006ZM22.8242 11.5711C23.9148 10.4806 23.9148 8.71242 22.8242 7.62185C21.7336 6.53129 19.9655 6.53129 18.8749 7.62185L9.37793 17.1188C8.61461 17.8821 8.61461 19.1197 9.37793 19.8831L18.8749 29.38C19.9655 30.4706 21.7336 30.4706 22.8242 29.38C23.9148 28.2895 23.9148 26.5213 22.8242 25.4307L17.2765 19.8831C16.5132 19.1197 16.5132 17.8821 17.2765 17.1188L22.8242 11.5711ZM20.4413 18.501C20.4413 19.9313 21.6009 21.0909 23.0312 21.0909C24.4615 21.0909 25.6211 19.9313 25.6211 18.501C25.6211 17.0707 24.4615 15.9111 23.0312 15.9111C21.6009 15.9111 20.4413 17.0707 20.4413 18.501Z" fill="#3355FF"/>
</svg>
