<svg width="50" height="50" viewBox="0 0 50 50" fill="none" xmlns="http://www.w3.org/2000/svg">
<path d="M50 0H0V50H50V0Z" fill="#D9D9D9"/>
<path d="M21.9698 31.7955V31.6037C21.9911 29.5689 22.2041 27.9496 22.609 26.7457C23.0138 25.5419 23.5891 24.5671 24.3348 23.8214C25.0806 23.0756 25.9755 22.3885 27.0195 21.7599C27.648 21.3764 28.2127 20.9236 28.7134 20.4016C29.2141 19.869 29.6083 19.2564 29.8959 18.5639C30.1942 17.8714 30.3434 17.1044 30.3434 16.2628C30.3434 15.2187 30.0983 14.3132 29.6083 13.5462C29.1182 12.7791 28.463 12.1879 27.6427 11.7724C26.8224 11.3569 25.9115 11.1491 24.9101 11.1491C24.0365 11.1491 23.1949 11.3303 22.3853 11.6925C21.5756 12.0547 20.8991 12.6246 20.3558 13.4023C19.8125 14.18 19.4982 15.1974 19.413 16.4545H15.386C15.4712 14.6435 15.9399 13.0934 16.7922 11.8043C17.6551 10.5153 18.7897 9.52983 20.196 8.84801C21.6129 8.16619 23.1843 7.82528 24.9101 7.82528C26.7851 7.82528 28.4151 8.19815 29.8 8.94389C31.1956 9.68963 32.2716 10.7124 33.028 12.0121C33.7951 13.3118 34.1786 14.7926 34.1786 16.4545C34.1786 17.6264 33.9975 18.6864 33.6353 19.6346C33.2837 20.5827 32.7723 21.4297 32.1012 22.1754C31.4407 22.9212 30.6416 23.5817 29.7041 24.157C28.7666 24.7429 28.0156 25.3608 27.451 26.0107C26.8863 26.6499 26.4762 27.4116 26.2205 28.2958C25.9648 29.18 25.8263 30.2827 25.805 31.6037V31.7955H21.9698ZM24.0152 41.2557C23.2269 41.2557 22.5504 40.9734 21.9858 40.4087C21.4211 39.8441 21.1388 39.1676 21.1388 38.3793C21.1388 37.5909 21.4211 36.9144 21.9858 36.3498C22.5504 35.7852 23.2269 35.5028 24.0152 35.5028C24.8036 35.5028 25.4801 35.7852 26.0447 36.3498C26.6093 36.9144 26.8916 37.5909 26.8916 38.3793C26.8916 38.9013 26.7585 39.3807 26.4921 39.8175C26.2365 40.2543 25.8902 40.6058 25.4534 40.8722C25.0273 41.1278 24.5479 41.2557 24.0152 41.2557Z" fill="white"/>
</svg>
