<svg width="27" height="26" viewBox="0 0 27 26" fill="none" xmlns="http://www.w3.org/2000/svg">
<path d="M22.2812 3.25H17.8125V2.4375C17.8125 1.09129 16.7212 0 15.375 0H12.125C10.7788 0 9.6875 1.09129 9.6875 2.4375V3.25H5.21875C4.09694 3.25 3.1875 4.15944 3.1875 5.28125V6.90625C3.1875 7.355 3.55125 7.71875 4 7.71875H23.5C23.9488 7.71875 24.3125 7.355 24.3125 6.90625V5.28125C24.3125 4.15944 23.4031 3.25 22.2812 3.25ZM11.3125 2.4375C11.3125 1.98961 11.6771 1.625 12.125 1.625H15.375C15.8229 1.625 16.1875 1.98961 16.1875 2.4375V3.25H11.3125V2.4375Z" fill="#F8364E"/>
<path d="M4.73046 9.34375C4.58548 9.34375 4.46995 9.46491 4.47686 9.60974L5.14717 23.6783C5.20912 24.9803 6.27858 26 7.58162 26H19.9205C21.2235 26 22.2929 24.9803 22.3549 23.6783L23.0252 9.60974C23.0321 9.46491 22.9166 9.34375 22.7716 9.34375H4.73046ZM17.001 11.375C17.001 10.9261 17.3646 10.5625 17.8135 10.5625C18.2624 10.5625 18.626 10.9261 18.626 11.375V21.9375C18.626 22.3864 18.2624 22.75 17.8135 22.75C17.3646 22.75 17.001 22.3864 17.001 21.9375V11.375ZM12.9385 11.375C12.9385 10.9261 13.3021 10.5625 13.751 10.5625C14.1999 10.5625 14.5635 10.9261 14.5635 11.375V21.9375C14.5635 22.3864 14.1999 22.75 13.751 22.75C13.3021 22.75 12.9385 22.3864 12.9385 21.9375V11.375ZM8.87604 11.375C8.87604 10.9261 9.23963 10.5625 9.68854 10.5625C10.1374 10.5625 10.501 10.9261 10.501 11.375V21.9375C10.501 22.3864 10.1374 22.75 9.68854 22.75C9.23963 22.75 8.87604 22.3864 8.87604 21.9375V11.375Z" fill="#F8364E"/>
</svg>
