<svg width="27" height="27" viewBox="0 0 27 27" fill="none" xmlns="http://www.w3.org/2000/svg">
<path d="M13.5 0.75C6.33183 0.75 0.5 6.58183 0.5 13.75C0.5 20.9176 6.33183 26.75 13.5 26.75C20.6676 26.75 26.5 20.9176 26.5 13.75C26.5 6.58183 20.6687 0.75 13.5 0.75ZM19.2994 10.7747C19.3051 10.9035 19.3083 11.0333 19.3083 11.1632C19.3083 15.1172 16.2994 19.675 10.7943 19.675C9.10453 19.675 7.5315 19.1812 6.20773 18.3319C6.44179 18.3596 6.68005 18.3738 6.92145 18.3738C8.32377 18.3738 9.61351 17.8952 10.6378 17.0929C9.32865 17.0689 8.22323 16.2038 7.84254 15.0146C8.02477 15.0492 8.21276 15.0685 8.40494 15.0685C8.67776 15.0685 8.94272 15.0329 9.19355 14.9643C7.82474 14.6899 6.79368 13.4808 6.79368 12.0304C6.79368 12.0178 6.79368 12.0047 6.79421 11.9926C7.19741 12.2162 7.65875 12.3513 8.14888 12.3665C7.34665 11.8308 6.8183 10.9145 6.8183 9.8766C6.8183 9.32782 6.96544 8.8136 7.22307 8.37165C8.69818 10.1824 10.9038 11.3732 13.39 11.4989C13.3387 11.2794 13.3131 11.0517 13.3131 10.8165C13.3131 9.16444 14.6525 7.82444 16.3046 7.82444C17.1655 7.82444 17.9421 8.18785 18.4888 8.76909C19.1711 8.63504 19.8099 8.38683 20.3896 8.0428C20.1644 8.74186 19.6916 9.32782 19.0721 9.69856C19.678 9.6263 20.2561 9.46606 20.7907 9.22781C20.3917 9.82686 19.8843 10.3542 19.2994 10.7747Z" fill="#3355FF"/>
</svg>
