<svg width="189" height="170" viewBox="0 0 189 170" fill="none" xmlns="http://www.w3.org/2000/svg">
<g filter="url(#filter0_d_3895_2170)">
<path fill-rule="evenodd" clip-rule="evenodd" d="M121.254 99.9643C124.262 95.6221 126 90.4943 126 85.0013C126 69.3532 111.897 56.668 94.5 56.668C88.3931 56.668 82.6922 58.2311 77.8646 60.9367L79.4364 62.3506C83.8251 60.0165 88.966 58.668 94.5 58.668C110.997 58.668 124 70.6518 124 85.0013C124 89.9508 122.453 94.6188 119.749 98.6107L121.254 99.9643ZM76.747 63.9665C69.5778 68.8059 65 76.4872 65 85.0013C65 99.3508 78.003 111.335 94.5 111.335C104.127 111.335 112.565 107.253 117.922 101.002L119.413 102.343C113.65 109.03 104.634 113.335 94.5 113.335C77.103 113.335 63 100.649 63 85.0013C63 75.886 67.7856 67.776 75.2202 62.5932L76.747 63.9665Z" fill="#001253"/>
<path fill-rule="evenodd" clip-rule="evenodd" d="M136.488 113.666C138.141 112.528 139.74 111.362 141.279 110.185C153.773 100.635 162.504 90.2319 165.25 86.7872L165.279 86.7514C165.47 86.5114 165.669 86.2625 165.811 86.0259C165.98 85.7459 166.117 85.4121 166.117 85C166.117 84.5879 165.98 84.2541 165.811 83.9741C165.669 83.7376 165.47 83.4888 165.279 83.2488L165.279 83.2485L165.25 83.2128C162.504 79.7681 153.773 69.3649 141.279 59.8147C128.801 50.2757 112.454 41.5 94.5 41.5C83.844 41.5 73.7546 44.5912 64.7039 49.0985L66.3056 50.5392C74.9544 46.331 84.4934 43.5 94.5 43.5C111.819 43.5 127.737 51.9805 140.065 61.4037C152.377 70.8157 160.993 81.0806 163.686 84.4594C163.914 84.7453 164.027 84.8904 164.094 85C164.027 85.1096 163.914 85.2547 163.686 85.5406C160.993 88.9194 152.377 99.1843 140.065 108.596C138.424 109.85 136.72 111.087 134.958 112.29L136.488 113.666ZM133.915 115.387L132.374 114.001C121.408 121.033 108.406 126.5 94.5 126.5C77.1809 126.5 61.2625 118.019 48.9354 108.596C36.6229 99.1843 28.0073 88.9194 25.3138 85.5406C25.0859 85.2547 24.9727 85.1096 24.9056 85C24.9727 84.8904 25.0859 84.7453 25.3138 84.4594C28.0073 81.0806 36.6229 70.8157 48.9354 61.4037C53.3448 58.033 58.2138 54.7829 63.442 51.9985L61.862 50.5773C56.7527 53.3496 52.0085 56.5371 47.7208 59.8147C35.2275 69.3649 26.4958 79.7681 23.7499 83.2128L23.7214 83.2485C23.5299 83.4885 23.3314 83.7375 23.1887 83.9741C23.0199 84.2541 22.8829 84.5879 22.8829 85C22.8829 85.4121 23.0199 85.7459 23.1887 86.0259C23.3313 86.2625 23.5299 86.5115 23.7214 86.7515L23.7214 86.7515L23.7499 86.7872C26.4958 90.2319 35.2275 100.635 47.7208 110.185C60.1995 119.724 76.5455 128.5 94.5 128.5C109.109 128.5 122.653 122.69 133.915 115.387Z" fill="#001253"/>
<path d="M39.375 14.168L165.375 127.501" stroke="#001253" stroke-width="2"/>
</g>
<defs>
<filter id="filter0_d_3895_2170" x="-4" y="0" width="197" height="178" filterUnits="userSpaceOnUse" color-interpolation-filters="sRGB">
<feFlood flood-opacity="0" result="BackgroundImageFix"/>
<feColorMatrix in="SourceAlpha" type="matrix" values="0 0 0 0 0 0 0 0 0 0 0 0 0 0 0 0 0 0 127 0" result="hardAlpha"/>
<feOffset dy="4"/>
<feGaussianBlur stdDeviation="2"/>
<feComposite in2="hardAlpha" operator="out"/>
<feColorMatrix type="matrix" values="0 0 0 0 0 0 0 0 0 0 0 0 0 0 0 0 0 0 0.25 0"/>
<feBlend mode="normal" in2="BackgroundImageFix" result="effect1_dropShadow_3895_2170"/>
<feBlend mode="normal" in="SourceGraphic" in2="effect1_dropShadow_3895_2170" result="shape"/>
</filter>
</defs>
</svg>
