<svg width="766" height="101" viewBox="0 0 766 101" fill="none" xmlns="http://www.w3.org/2000/svg">
<path d="M250.879 98.5101V1.80047H230.29V62.5521L185.487 1.80047H164.318V98.5101H184.907V35.4386L231.015 98.5101H250.879Z" fill="#182056"/>
<path d="M316.78 100.395C334.324 100.395 348.098 93.1454 357.957 82.126V45.0081H311.85V62.9871H337.369V74.5864C333.454 78.2112 325.334 81.981 316.78 81.981C299.236 81.981 286.476 68.4968 286.476 50.2278C286.476 31.9588 299.236 18.4746 316.78 18.4746C327.074 18.4746 335.339 24.2742 339.688 31.0889L356.797 21.8094C349.548 10.355 336.934 0.205566 316.78 0.205566C288.506 0.205566 265.308 19.6345 265.308 50.2278C265.308 80.6761 288.506 100.395 316.78 100.395Z" fill="#182056"/>
<path d="M394.891 98.5101V58.4923H438.01V40.3683H394.891V19.9245H442.738V1.80047H374.302V98.5101H394.891Z" fill="#182056"/>
<path d="M502.952 100.25C532.24 100.25 553.554 79.3712 553.554 50.2278C553.554 21.0844 532.24 0.205566 502.952 0.205566C473.808 0.205566 452.494 21.0844 452.494 50.2278C452.494 79.3712 473.808 100.25 502.952 100.25ZM502.952 81.981C485.118 81.981 473.663 68.2068 473.663 50.2278C473.663 32.1038 485.118 18.4746 502.952 18.4746C520.786 18.4746 532.385 32.1038 532.385 50.2278C532.385 68.2068 520.786 81.981 502.952 81.981Z" fill="#182056"/>
<path d="M646.298 98.5101L624.549 61.6822C634.988 59.2173 645.718 50.0828 645.718 32.9737C645.718 14.9947 633.393 1.80047 613.24 1.80047H568.002V98.5101H588.591V64.147H603.67L622.664 98.5101H646.298ZM610.195 46.023H588.591V19.9245H610.195C618.459 19.9245 624.694 24.8542 624.694 32.9737C624.694 41.0933 618.459 46.023 610.195 46.023Z" fill="#182056"/>
<path d="M766 98.5101V1.80047H737.002L713.513 60.2322L690.024 1.80047H661.171V98.5101H681.76V30.7989L709.018 98.5101H718.008L745.266 30.7989V98.5101H766Z" fill="#182056"/>
<path d="M145.119 98.5099V19L125 42.5L124.531 98.5099H145.119Z" fill="#182056"/>
<path d="M30.3206 0C36.8352 11.1147 72.2753 65.1795 79 76.5L60 98.5C60 98.5 46.2984 76.5681 30.1171 49.3988L0.696533 0H30.3206Z" fill="#C60000"/>
<path d="M81.1828 0L107.5 43.5L90.5 63.5L69.8344 31.6975C59.7474 14.8196 49.8705 0 49.8705 0H81.1828Z" fill="#C60000"/>
<path d="M119 30L101.5 0H144.646L119 30Z" fill="#C60000"/>
</svg>
