<?xml version="1.0" standalone="no"?>
<!DOCTYPE svg PUBLIC "-//W3C//DTD SVG 20010904//EN"
 "http://www.w3.org/TR/2001/REC-SVG-20010904/DTD/svg10.dtd">
<svg version="1.0" xmlns="http://www.w3.org/2000/svg"
 width="700.000000pt" height="700.000000pt" viewBox="0 0 700.000000 700.000000"
 preserveAspectRatio="xMidYMid meet">
<metadata>
Created by potrace 1.14, written by Peter Selinger 2001-2017
</metadata>
<g transform="translate(0.000000,700.000000) scale(0.100000,-0.100000)"
fill="#000000" stroke="none">
<path d="M4915 5060 c-10 -4 -6 -18 19 -61 18 -30 45 -75 58 -100 14 -24 88
-150 164 -279 75 -129 150 -257 166 -285 16 -27 33 -57 38 -65 6 -8 56 -94
112 -190 55 -96 124 -213 151 -260 27 -47 61 -105 75 -130 39 -69 46 -80 53
-78 3 2 64 71 135 153 70 83 131 152 134 155 3 3 30 34 60 70 30 36 57 67 60
70 3 3 57 66 120 140 106 125 142 166 180 209 8 10 40 46 70 82 30 35 57 66
60 69 3 3 84 97 180 210 96 113 189 221 207 240 37 40 40 50 16 51 -91 3
-2047 3 -2058 -1z"/>
<path d="M30 5054 c0 -2 66 -115 148 -250 81 -135 154 -257 163 -272 17 -30
249 -414 868 -1442 210 -349 387 -642 391 -650 5 -8 45 -75 90 -148 44 -73 80
-137 80 -143 0 -5 3 -9 8 -9 4 0 12 -9 17 -20 9 -19 174 -296 304 -510 28 -47
55 -92 60 -100 5 -8 101 -167 213 -352 111 -186 208 -345 213 -355 6 -10 57
-94 113 -188 57 -93 107 -177 112 -185 82 -142 83 -142 100 -123 10 10 113
131 231 268 259 303 246 288 300 350 24 28 64 75 89 104 25 29 56 66 70 81 14
15 45 52 70 81 25 30 61 72 80 94 65 74 64 68 33 119 -15 26 -143 227 -283
446 -140 220 -282 443 -315 495 -83 132 -479 756 -531 835 -23 36 -142 223
-264 415 -227 358 -266 419 -380 598 -169 263 -383 600 -461 725 l-87 137
-716 2 c-394 1 -716 0 -716 -3z"/>
<path d="M2410 5055 c0 -2 133 -212 296 -467 163 -255 360 -562 437 -683 77
-121 159 -249 182 -285 23 -36 65 -101 93 -145 28 -44 56 -85 62 -92 5 -7 10
-15 10 -18 0 -3 22 -38 48 -78 27 -40 52 -79 55 -87 9 -19 332 -521 346 -537
6 -7 11 -14 11 -17 0 -3 33 -56 73 -118 40 -62 133 -207 206 -321 126 -197
134 -207 150 -190 9 10 84 97 166 193 82 96 152 177 155 180 3 3 32 36 65 75
33 38 72 83 86 100 14 16 96 112 182 212 l156 182 -42 71 c-23 39 -49 83 -58
98 -39 65 -863 1427 -976 1612 -68 113 -130 214 -136 225 -7 10 -22 36 -34 57
l-23 37 -755 0 c-415 0 -755 -1 -755 -4z"/>
</g>
</svg>
