<svg width="22" height="14" viewBox="0 0 22 14" fill="none" xmlns="http://www.w3.org/2000/svg">
<path d="M17.0986 3.26502C18.0001 3.26502 18.731 2.53406 18.731 1.63249C18.731 0.730911 18.0001 0 17.0986 0C16.1968 0 15.4658 0.730953 15.4658 1.63249C15.4658 2.53406 16.1968 3.26502 17.0986 3.26502Z" fill="#001253"/>
<path d="M19.7844 2.79534C18.847 4.10837 17.5918 4.26042 16.2411 3.45856C16.1491 3.40405 15.7412 3.17929 15.6509 3.12561C13.478 1.83567 11.3076 2.34153 9.85207 4.37983C9.23356 5.24677 10.6641 6.0685 11.2757 5.21167C12.0277 4.15854 12.9839 3.85381 14.0298 4.18738C13.4943 5.11688 13.0261 6.04074 12.3655 7.35331C11.7047 8.66588 10.2457 9.71408 8.8439 8.89427C7.83239 8.30305 6.92021 9.75619 7.92867 10.3456C9.84252 11.4641 12.0865 10.7773 13.2321 9.32329C13.2719 9.34453 13.3138 9.36369 13.3599 9.3798C14.2958 9.70586 15.5225 10.5739 15.8963 10.8816C16.27 11.1892 16.9121 12.7565 17.2933 13.5439C17.7559 14.4994 19.2496 13.8035 18.7854 12.844C18.3532 11.9505 17.6277 10.1674 17.0619 9.71621C16.608 9.35438 15.7268 8.68099 14.9794 8.29896C15.485 7.31955 16.0115 6.35069 16.5658 5.39857C18.3324 5.93986 20.0117 5.30224 21.2076 3.62697C21.8266 2.76016 20.3964 1.93843 19.7844 2.79534Z" fill="#001253"/>
<path d="M1 1H12" stroke="#001253" stroke-width="0.5" stroke-linecap="round"/>
<path d="M1 3H9" stroke="#001253" stroke-width="0.5" stroke-linecap="round"/>
<path d="M1 5H6" stroke="#001253" stroke-width="0.5" stroke-linecap="round"/>
<path d="M1 7H8" stroke="#001253" stroke-width="0.5" stroke-linecap="round"/>
<path d="M1 9H6" stroke="#001253" stroke-width="0.5" stroke-linecap="round"/>
</svg>
