<svg viewBox="0 0 82 82" xmlns="http://www.w3.org/2000/svg">
<path d="M41.0002 81.1171C63.1564 81.1171 81.1176 63.1559 81.1176 40.9997C81.1176 18.8435 63.1564 0.882324 41.0002 0.882324C18.844 0.882324 0.882812 18.8435 0.882812 40.9997C0.882812 63.1559 18.844 81.1171 41.0002 81.1171ZM40.9991 65.6772C39.278 65.6772 37.8827 64.282 37.8827 62.5608V44.1164H19.4374C17.7163 44.1164 16.321 42.7211 16.321 40.9999C16.321 39.2788 17.7163 37.8835 19.4374 37.8835H37.8827V19.4386C37.8827 17.7174 39.278 16.3221 40.9991 16.3221C42.7203 16.3221 44.1156 17.7174 44.1156 19.4386V37.8835H62.5597C64.2808 37.8835 65.6761 39.2788 65.6761 40.9999C65.6761 42.7211 64.2808 44.1164 62.5597 44.1164H44.1156V62.5608C44.1156 64.282 42.7203 65.6772 40.9991 65.6772Z"/>
</svg>
