<svg viewBox="0 0 21 15" xmlns="http://www.w3.org/2000/svg">
<path d="M19.3906 6.0878H4.56562L9.10313 1.7278C9.3153 1.52358 9.41738 1.2603 9.3869 0.995876C9.35643 0.73145 9.1959 0.487539 8.94063 0.3178C8.68535 0.148062 8.35625 0.0663996 8.02572 0.0907794C7.69519 0.115159 7.3903 0.243584 7.17812 0.4478L0.928125 6.4478C0.886076 6.49552 0.848474 6.54566 0.815625 6.5978C0.815625 6.6478 0.815625 6.6778 0.728125 6.7278C0.671467 6.84246 0.641801 6.96451 0.640625 7.0878C0.641801 7.21109 0.671467 7.33314 0.728125 7.4478C0.728125 7.4978 0.728125 7.5278 0.815625 7.5778C0.848474 7.62994 0.886076 7.68008 0.928125 7.7278L7.17812 13.7278C7.29565 13.8407 7.44283 13.9315 7.60918 13.9937C7.77554 14.0559 7.95699 14.088 8.14062 14.0878C8.43269 14.0883 8.71574 14.0069 8.94063 13.8578C9.0672 13.7739 9.17183 13.6707 9.24852 13.5544C9.32521 13.4381 9.37245 13.3107 9.38755 13.1798C9.40264 13.0488 9.38529 12.9167 9.33648 12.7911C9.28768 12.6655 9.20838 12.5488 9.10313 12.4478L4.56562 8.0878H19.3906C19.7221 8.0878 20.0401 7.98244 20.2745 7.79491C20.5089 7.60737 20.6406 7.35302 20.6406 7.0878C20.6406 6.82258 20.5089 6.56823 20.2745 6.38069C20.0401 6.19316 19.7221 6.0878 19.3906 6.0878Z"/>
</svg>
