<svg width="16" height="17" viewBox="0 0 16 17" fill="none" xmlns="http://www.w3.org/2000/svg">
<path d="M8.49748 16.5001C9.85578 16.5001 10.9921 15.5317 11.253 14.25H5.74195C6.00302 15.5317 7.13928 16.5001 8.49748 16.5001ZM13.7565 7.4993C13.7535 7.4993 13.7505 7.5 13.7475 7.5C10.8532 7.5 8.49748 5.14494 8.49748 2.25001C8.49748 1.45418 8.68054 0.701899 8.99927 0.0254181C8.83421 0.00973833 8.66693 0 8.49748 0C5.59802 0 3.24749 2.35039 3.24749 5.24999V7.34099C3.24749 8.82523 2.59724 10.2263 1.45641 11.1907C1.07616 11.5156 0.907404 12.033 1.04388 12.5378C1.20289 13.125 1.7834 13.5001 2.39248 13.5001H14.5987C15.2377 13.5001 15.84 13.086 15.9697 12.4598C16.0703 11.9753 15.8977 11.4915 15.522 11.1758C14.4314 10.2616 13.8008 8.91821 13.7565 7.4993Z" fill="#001253"/>
<path d="M8.49748 16.5001C7.13928 16.5001 6.00302 15.5317 5.74195 14.25H11.253C10.9921 15.5317 9.85578 16.5001 8.49748 16.5001ZM3.23748 7.4993C3.24051 7.4993 3.24353 7.5 3.24656 7.5C6.14078 7.5 8.49748 5.14494 8.49748 2.25001C8.49748 1.45418 8.31348 0.701899 7.99475 0.0254181C8.15981 0.00973833 8.32802 0 8.49748 0C11.3969 0 13.7465 2.35039 13.7465 5.24999V7.34099C13.7465 8.82523 14.3968 10.2263 15.5376 11.1907C15.9179 11.5156 16.0866 12.033 15.9501 12.5378C15.7911 13.125 15.2106 13.5001 14.6015 13.5001H2.39527C1.75631 13.5001 1.15397 13.086 1.02431 12.4598C0.923766 11.9753 1.09628 11.4915 1.47203 11.1758C2.56259 10.2616 3.19326 8.91821 3.23748 7.4993Z" fill="#001253"/>
</svg>
