<svg width="197" height="16" viewBox="0 0 197 16" fill="none" xmlns="http://www.w3.org/2000/svg">
<path d="M0.152 15.864V4.632H2.088V5.976C2.33333 5.54933 2.70133 5.192 3.192 4.904C3.69333 4.60533 4.23733 4.456 4.824 4.456C5.90133 4.456 6.78667 4.84 7.48 5.608C8.184 6.36533 8.536 7.4 8.536 8.712V8.84C8.536 10.1627 8.18933 11.2133 7.496 11.992C6.81333 12.7707 5.92267 13.16 4.824 13.16C4.19467 13.16 3.64 13.0267 3.16 12.76C2.68 12.4827 2.32267 12.1253 2.088 11.688V15.864H0.152ZM4.344 11.624C5.05867 11.624 5.60267 11.3893 5.976 10.92C6.36 10.4507 6.552 9.768 6.552 8.872V8.744C6.552 7.848 6.344 7.16533 5.928 6.696C5.52267 6.216 4.98933 5.976 4.328 5.976C3.63467 5.976 3.07467 6.216 2.648 6.696C2.232 7.16533 2.024 7.848 2.024 8.744V8.872C2.024 9.77867 2.22667 10.4667 2.632 10.936C3.048 11.3947 3.61867 11.624 4.344 11.624ZM14.021 11.656C14.7357 11.656 15.2957 11.4107 15.701 10.92C16.117 10.4187 16.325 9.736 16.325 8.872V8.76C16.325 7.896 16.117 7.21867 15.701 6.728C15.2957 6.22667 14.7357 5.976 14.021 5.976C13.2957 5.976 12.725 6.22133 12.309 6.712C11.9037 7.20267 11.701 7.88 11.701 8.744V8.872C11.701 9.736 11.9037 10.4187 12.309 10.92C12.725 11.4107 13.2957 11.656 14.021 11.656ZM17.093 11.976C16.2823 12.7653 15.253 13.16 14.005 13.16C12.757 13.16 11.7277 12.7653 10.917 11.976C10.117 11.1867 9.717 10.1627 9.717 8.904V8.776C9.717 7.496 10.1223 6.456 10.933 5.656C11.7437 4.856 12.773 4.456 14.021 4.456C15.2583 4.456 16.2823 4.85067 17.093 5.64C17.9037 6.42933 18.309 7.45867 18.309 8.728V8.856C18.309 10.1467 17.9037 11.1867 17.093 11.976ZM21.5519 13L18.9919 4.632H21.0559L22.7199 10.68L24.4959 4.632H26.1119L27.7439 10.68L29.4879 4.632H31.3759L28.7519 13H26.7839L25.2319 7.368L23.5359 13H21.5519ZM36.3008 13.16C35.0528 13.16 34.0341 12.776 33.2448 12.008C32.4554 11.24 32.0608 10.2053 32.0608 8.904V8.776C32.0608 7.496 32.4501 6.456 33.2288 5.656C34.0181 4.856 35.0154 4.456 36.2208 4.456C37.3514 4.456 38.2901 4.808 39.0368 5.512C39.7941 6.216 40.1728 7.272 40.1728 8.68V9.24H34.0448C34.0768 10.04 34.2901 10.6533 34.6848 11.08C35.0794 11.5067 35.6341 11.72 36.3488 11.72C37.4794 11.72 38.1194 11.2933 38.2688 10.44H40.1408C40.0021 11.3147 39.5968 11.9867 38.9248 12.456C38.2528 12.9253 37.3781 13.16 36.3008 13.16ZM34.0768 7.944H38.2528C38.1568 6.55733 37.4794 5.864 36.2208 5.864C35.6448 5.864 35.1648 6.05067 34.7808 6.424C34.4074 6.78667 34.1728 7.29333 34.0768 7.944ZM41.902 13V4.632H43.838V6.2C44.3927 5.08 45.2993 4.51467 46.558 4.504V6.312C45.6513 6.32267 44.9687 6.504 44.51 6.856C44.062 7.208 43.838 7.80533 43.838 8.648V13H41.902ZM51.7851 13.16C50.5371 13.16 49.5185 12.776 48.7291 12.008C47.9398 11.24 47.5451 10.2053 47.5451 8.904V8.776C47.5451 7.496 47.9345 6.456 48.7131 5.656C49.5025 4.856 50.4998 4.456 51.7051 4.456C52.8358 4.456 53.7745 4.808 54.5211 5.512C55.2785 6.216 55.6571 7.272 55.6571 8.68V9.24H49.5291C49.5611 10.04 49.7745 10.6533 50.1691 11.08C50.5638 11.5067 51.1185 11.72 51.8331 11.72C52.9638 11.72 53.6038 11.2933 53.7531 10.44H55.6251C55.4865 11.3147 55.0811 11.9867 54.4091 12.456C53.7371 12.9253 52.8625 13.16 51.7851 13.16ZM49.5611 7.944H53.7371C53.6411 6.55733 52.9638 5.864 51.7051 5.864C51.1291 5.864 50.6491 6.05067 50.2651 6.424C49.8918 6.78667 49.6571 7.29333 49.5611 7.944ZM60.5224 13.16C59.4344 13.16 58.549 12.792 57.8664 12.056C57.1837 11.3093 56.8424 10.2747 56.8424 8.952V8.824C56.8424 7.50133 57.1944 6.44533 57.8984 5.656C58.6024 4.856 59.5037 4.456 60.6024 4.456C61.8397 4.456 62.7304 4.94133 63.2744 5.912V0.759999H65.2104V13H63.2744V11.592C63.0397 12.0293 62.6664 12.4027 62.1544 12.712C61.653 13.0107 61.109 13.16 60.5224 13.16ZM61.0024 11.624C61.7064 11.624 62.2717 11.3893 62.6984 10.92C63.125 10.4507 63.3384 9.76267 63.3384 8.856V8.728C63.3384 7.82133 63.141 7.13867 62.7464 6.68C62.3517 6.21067 61.797 5.976 61.0824 5.976C60.3677 5.976 59.813 6.22133 59.4184 6.712C59.0237 7.192 58.8264 7.88 58.8264 8.776V8.904C58.8264 9.78933 59.0237 10.4667 59.4184 10.936C59.8237 11.3947 60.3517 11.624 61.0024 11.624ZM75.9959 13.16C75.3559 13.16 74.7959 13.0213 74.3159 12.744C73.8465 12.4667 73.4945 12.104 73.2599 11.656V13H71.3239V0.759999H73.2599V5.976C73.5052 5.54933 73.8732 5.192 74.3639 4.904C74.8652 4.60533 75.4092 4.456 75.9959 4.456C77.0732 4.456 77.9585 4.84 78.6519 5.608C79.3559 6.36533 79.7079 7.4 79.7079 8.712V8.84C79.7079 10.1627 79.3612 11.2133 78.6679 11.992C77.9852 12.7707 77.0945 13.16 75.9959 13.16ZM75.5159 11.624C76.2305 11.624 76.7745 11.3893 77.1479 10.92C77.5319 10.4507 77.7239 9.768 77.7239 8.872V8.744C77.7239 7.848 77.5159 7.16533 77.0999 6.696C76.6945 6.216 76.1612 5.976 75.4999 5.976C74.8065 5.976 74.2465 6.216 73.8199 6.696C73.4039 7.16533 73.1959 7.848 73.1959 8.744V8.872C73.1959 9.77867 73.3985 10.4667 73.8039 10.936C74.2199 11.3947 74.7905 11.624 75.5159 11.624ZM82.1425 15.864L83.6625 12.152L80.3505 4.632H82.4465L84.6705 10.024L86.7185 4.632H88.6065L84.0465 15.864H82.1425Z" fill="#363B76"/>
<path d="M94.0308 13V1.56H98.1268C100.623 1.56 101.871 2.552 101.871 4.536V4.6C101.871 5.848 101.268 6.65867 100.063 7.032C100.841 7.20267 101.417 7.50667 101.791 7.944C102.164 8.38133 102.351 8.97867 102.351 9.736V9.8C102.351 10.856 102.015 11.656 101.343 12.2C100.671 12.7333 99.7001 13 98.4308 13H94.0308ZM96.1108 11.48H98.1748C99.5614 11.48 100.255 10.872 100.255 9.656V9.592C100.255 8.99467 100.073 8.552 99.7108 8.264C99.3588 7.96533 98.7988 7.816 98.0308 7.816H96.1108V11.48ZM96.1108 6.376H97.8708C98.5641 6.376 99.0601 6.24267 99.3588 5.976C99.6681 5.70933 99.8228 5.28267 99.8228 4.696V4.632C99.8228 4.088 99.6628 3.69333 99.3428 3.448C99.0228 3.20267 98.5214 3.08 97.8388 3.08H96.1108V6.376ZM104.343 13V1.56H106.471V11.304H111.351V13H104.343ZM117.998 11.448C119.075 11.448 119.928 11.0747 120.558 10.328C121.198 9.57067 121.518 8.568 121.518 7.32V7.192C121.518 5.98667 121.198 5.00533 120.558 4.248C119.928 3.48 119.064 3.096 117.966 3.096C116.856 3.096 115.982 3.46933 115.342 4.216C114.712 4.96267 114.398 5.96 114.398 7.208V7.336C114.398 8.57333 114.734 9.57067 115.406 10.328C116.078 11.0747 116.942 11.448 117.998 11.448ZM117.966 13.16C116.238 13.16 114.84 12.6107 113.774 11.512C112.707 10.4133 112.174 9.02667 112.174 7.352V7.224C112.174 5.54933 112.718 4.16267 113.806 3.064C114.894 1.95467 116.28 1.4 117.966 1.4C119.662 1.4 121.043 1.944 122.11 3.032C123.187 4.10933 123.726 5.49067 123.726 7.176V7.304C123.726 9 123.192 10.4027 122.126 11.512C121.07 12.6107 119.683 13.16 117.966 13.16ZM130.789 13.16C129.018 13.16 127.642 12.6373 126.661 11.592C125.69 10.5467 125.205 9.13333 125.205 7.352V7.224C125.205 5.51733 125.727 4.12 126.773 3.032C127.829 1.93333 129.157 1.384 130.757 1.384C132.122 1.384 133.247 1.72533 134.133 2.408C135.029 3.09067 135.541 4.08267 135.669 5.384H133.509C133.263 3.848 132.351 3.08 130.773 3.08C129.759 3.08 128.949 3.45333 128.341 4.2C127.743 4.936 127.445 5.93867 127.445 7.208V7.336C127.445 8.62667 127.738 9.63467 128.325 10.36C128.911 11.0747 129.733 11.432 130.789 11.432C131.599 11.432 132.261 11.2293 132.773 10.824C133.295 10.408 133.61 9.80533 133.717 9.016H135.797C135.637 10.36 135.109 11.3893 134.213 12.104C133.327 12.808 132.186 13.16 130.789 13.16ZM137.64 13V1.56H139.768V6.744L144.152 1.544H146.44L141.704 7.016L146.68 13H144.168L139.768 7.656V13H137.64ZM152.242 13.16C150.471 13.16 149.095 12.6373 148.114 11.592C147.143 10.5467 146.658 9.13333 146.658 7.352V7.224C146.658 5.51733 147.181 4.12 148.226 3.032C149.282 1.93333 150.61 1.384 152.21 1.384C153.575 1.384 154.701 1.72533 155.586 2.408C156.482 3.09067 156.994 4.08267 157.122 5.384H154.962C154.717 3.848 153.805 3.08 152.226 3.08C151.213 3.08 150.402 3.45333 149.794 4.2C149.197 4.936 148.898 5.93867 148.898 7.208V7.336C148.898 8.62667 149.191 9.63467 149.778 10.36C150.365 11.0747 151.186 11.432 152.242 11.432C153.053 11.432 153.714 11.2293 154.226 10.824C154.749 10.408 155.063 9.80533 155.17 9.016H157.25C157.09 10.36 156.562 11.3893 155.666 12.104C154.781 12.808 153.639 13.16 152.242 13.16ZM159.093 13V1.56H161.221V6.424H166.357V1.56H168.501V13H166.357V8.136H161.221V13H159.093ZM170.229 13L174.053 1.56H176.837L180.613 13H178.405L177.493 10.168H173.125L172.229 13H170.229ZM175.317 3.304L173.621 8.616H176.997L175.317 3.304ZM182.423 13V1.56H184.567V13H182.423ZM187.265 13V1.56H189.809L194.625 9.832V1.56H196.561V13H194.353L189.201 4.232V13H187.265Z" fill="#212121"/>
</svg>
