<svg viewBox="0 0 20 20" fill="none" xmlns="http://www.w3.org/2000/svg">
<g clip-path="url(#clip0)">
<path d="M18.3333 4.16655H14.1667V3.33319C14.1667 2.41401 13.4192 1.6665 12.5 1.6665H7.5C6.58082 1.6665 5.83332 2.41397 5.83332 3.33319V4.16651H1.66668C0.747461 4.16655 0 4.91401 0 5.83319V8.33319C0 9.25242 0.747461 9.99988 1.66668 9.99988H8.33336V9.5832C8.33336 9.35288 8.51973 9.16652 8.75004 9.16652H11.25C11.4804 9.16652 11.6667 9.35288 11.6667 9.5832V9.99988H18.3334C19.2525 9.99988 20 9.25242 20 8.33319V5.83319C20 4.91401 19.2525 4.16655 18.3333 4.16655ZM12.5 4.16655H7.5V3.33319H12.5V4.16655Z" fill="#002CCB"/>
<path d="M19.7689 10.044C19.6269 9.97361 19.4572 9.9899 19.3318 10.0851C19.0356 10.3093 18.6905 10.4277 18.3333 10.4277H11.6667V11.6777C11.6667 11.908 11.4803 12.0944 11.25 12.0944H8.75C8.51969 12.0944 8.33332 11.908 8.33332 11.6777V10.4277H1.66668C1.30941 10.4277 0.964375 10.3093 0.668125 10.0851C0.542383 9.98908 0.373125 9.97279 0.231094 10.044C0.0895312 10.1144 0 10.2588 0 10.4172V16.2611C0 17.1803 0.747461 17.9278 1.66668 17.9278H18.3334C19.2525 17.9278 20 17.1803 20 16.2611V10.4172C20 10.2588 19.9105 10.1144 19.7689 10.044Z" fill="#002CCB"/>
</g>
<defs>
<clipPath id="clip0">
</clipPath>
</defs>
</svg>
