<svg width="64" height="61" viewBox="0 0 64 61" fill="none" xmlns="http://www.w3.org/2000/svg">
<path d="M51.5357 14.6844C53.3334 17.2487 53.3334 20.8183 53.3334 27.9577C53.3334 35.097 53.3334 38.6667 51.5357 41.231C50.7575 42.3411 49.7575 43.2942 48.5928 44.036C46.2425 45.5327 43.0872 45.722 37.3334 45.7459V45.7494L34.3852 51.3693C33.4024 53.2427 30.5976 53.2427 29.6149 51.3693L26.6667 45.7494V45.7459C20.9128 45.722 17.7575 45.5327 15.4073 44.036C14.2426 43.2942 13.2426 42.3411 12.4643 41.231C10.6667 38.6667 10.6667 35.097 10.6667 27.9577C10.6667 20.8183 10.6667 17.2487 12.4643 14.6844C13.2426 13.5743 14.2426 12.6212 15.4073 11.8794C18.0977 10.166 21.8429 10.166 29.3334 10.166H34.6667C42.1572 10.166 45.9024 10.166 48.5928 11.8794C49.7575 12.6212 50.7575 13.5743 51.5357 14.6844Z" stroke="#001253" stroke-width="2" stroke-linecap="round" stroke-linejoin="round"/>
<path d="M24 22.875L40 22.875" stroke="#001253" stroke-width="2" stroke-linecap="round" stroke-linejoin="round"/>
<path d="M24 33.041H32" stroke="#001253" stroke-width="2" stroke-linecap="round" stroke-linejoin="round"/>
</svg>
