<svg viewBox="0 0 22 22" xmlns="http://www.w3.org/2000/svg">
<path d="M9.7846 11.001L0.251699 1.46807C-0.0839291 1.13244 -0.0839291 0.588283 0.251699 0.252698C0.587326 -0.0828875 1.13148 -0.0829305 1.46707 0.252698L11 9.78564L20.5329 0.252698C20.8685 -0.0829305 21.4127 -0.0829305 21.7483 0.252698C22.0839 0.588326 22.0839 1.13248 21.7483 1.46807L12.2154 11.001L21.7483 20.5339C22.0839 20.8695 22.0839 21.4137 21.7483 21.7493C21.5805 21.9171 21.3605 22.0009 21.1406 22.0009C20.9206 22.0009 20.7007 21.9171 20.5329 21.7493L11 12.2164L1.46711 21.7493C1.29932 21.9171 1.07936 22.0009 0.859406 22.0009C0.639448 22.0009 0.419535 21.9171 0.251699 21.7493C-0.0839291 21.4137 -0.0839291 20.8695 0.251699 20.5339L9.7846 11.001Z"/>
</svg>
