<svg viewBox="0 0 30 31" xmlns="http://www.w3.org/2000/svg">
<path d="M29.6838 22.3248L24.0588 17.6373C23.7968 17.419 23.4323 17.3719 23.1233 17.5166C22.8145 17.6612 22.6172 17.9715 22.6172 18.3125V20.2461H19.7461C17.1417 20.2461 14.9414 18.0727 14.9414 15.5C14.9414 13.2426 14.2312 11.1138 12.8899 9.34672C10.9588 6.77902 7.89252 5.24609 4.6875 5.24609H2.75391C1.23539 5.24609 0 6.48148 0 8C0 9.51852 1.23539 10.7539 2.75391 10.7539H4.6875C7.30453 10.7539 9.43359 12.883 9.43359 15.5C9.43359 17.7574 10.1438 19.8862 11.4851 21.6533C13.4162 24.221 16.5044 25.7539 19.7461 25.7539H22.6172V27.6875C22.6172 28.0286 22.8145 28.3388 23.1233 28.4834C23.2423 28.5392 23.3695 28.5664 23.4959 28.5664C23.6978 28.5664 23.8977 28.4969 24.0588 28.3627L29.6838 23.6752C29.8841 23.5082 30 23.2608 30 23C30 22.7392 29.8842 22.4918 29.6838 22.3248Z" />
<path d="M10.0826 22.7133C9.17789 21.5205 8.51877 20.1894 8.12121 18.7715C7.25619 19.679 6.03727 20.2463 4.6875 20.2463H2.75391C1.23539 20.2463 0 21.4817 0 23.0002C0 24.5187 1.23539 25.7541 2.75391 25.7541H4.6875C6.9351 25.7541 9.11385 24.9994 10.8813 23.6635C10.6 23.3618 10.3326 23.0454 10.0826 22.7133Z" />
<path d="M29.6834 7.32484L24.0584 2.63734C23.7964 2.41902 23.432 2.37191 23.1229 2.51658C22.8141 2.66125 22.6168 2.9715 22.6168 3.31252V5.24611H19.7457C17.4712 5.24611 15.2728 6.00168 13.4961 7.3389C13.7764 7.64019 14.0429 7.95607 14.2925 8.28765C15.2053 9.49129 15.8681 10.8358 16.2644 12.2682C17.1475 11.3424 18.3915 10.7539 19.7457 10.7539H22.6168V12.6875C22.6168 13.0285 22.8141 13.3388 23.1229 13.4835C23.4318 13.6281 23.7964 13.581 24.0584 13.3627L29.6834 8.67519C29.8838 8.5082 29.9996 8.26082 29.9996 8.00002C29.9996 7.73922 29.8837 7.49183 29.6834 7.32484Z"/>
</svg>
