<svg viewBox="0 0 18 18" xmlns="http://www.w3.org/2000/svg">
<path fill-rule="evenodd" clip-rule="evenodd" d="M17.9355 8.6123C17.9355 13.3687 14.0797 17.2246 9.32324 17.2246C4.5668 17.2246 0.710938 13.3687 0.710938 8.6123C0.710938 3.85586 4.5668 0 9.32324 0C14.0797 0 17.9355 3.85586 17.9355 8.6123ZM12.5529 4.92132H10.8612V4.61373C10.8612 4.10411 10.448 3.69099 9.93841 3.69099H8.70808C8.19845 3.69099 7.78533 4.10411 7.78533 4.61373V4.92132H6.09363C5.66895 4.92132 5.32467 5.2656 5.32467 5.69027V6.30544C5.32467 6.47532 5.46237 6.61302 5.63225 6.61302H13.0142C13.1841 6.61302 13.3218 6.47532 13.3218 6.30544V5.69027C13.3218 5.2656 12.9775 4.92132 12.5529 4.92132ZM8.4005 4.61373C8.4005 4.44418 8.53852 4.30615 8.70808 4.30615H9.93841C10.108 4.30615 10.246 4.44418 10.246 4.61373V4.92132H8.4005V4.61373ZM5.81311 7.32888C5.8105 7.27405 5.85423 7.22818 5.90912 7.22818H12.7388C12.7937 7.22818 12.8374 7.27405 12.8348 7.32888L12.5811 12.6547C12.5576 13.1476 12.1528 13.5336 11.6595 13.5336H6.98846C6.49518 13.5336 6.09032 13.1476 6.06687 12.6547L5.81311 7.32888ZM10.8619 7.68956C10.6919 7.68956 10.5543 7.8272 10.5543 7.99714V11.9957C10.5543 12.1656 10.6919 12.3033 10.8619 12.3033C11.0318 12.3033 11.1695 12.1656 11.1695 11.9957V7.99714C11.1695 7.8272 11.0318 7.68956 10.8619 7.68956ZM9.32397 7.68956C9.15403 7.68956 9.01639 7.8272 9.01639 7.99714V11.9957C9.01639 12.1656 9.15403 12.3033 9.32397 12.3033C9.49391 12.3033 9.63156 12.1656 9.63156 11.9957V7.99714C9.63156 7.8272 9.49391 7.68956 9.32397 7.68956ZM7.78606 7.68956C7.61612 7.68956 7.47848 7.8272 7.47848 7.99714V11.9957C7.47848 12.1656 7.61612 12.3033 7.78606 12.3033C7.956 12.3033 8.09364 12.1656 8.09364 11.9957V7.99714C8.09364 7.8272 7.956 7.68956 7.78606 7.68956Z"/>
</svg>
