<svg  viewBox="0 0 15 15" fill="none" xmlns="http://www.w3.org/2000/svg">
<path d="M14.623 0.37696C14.8644 0.618028 15 0.945024 15 1.28613C15 1.62722 14.8644 1.95423 14.623 2.1953L8.25996 8.55843L5.53249 9.4676L6.44165 6.7401L12.8047 0.37696C13.0458 0.135613 13.3728 0 13.7139 0C14.055 0 14.382 0.135602 14.623 0.37696ZM0.833339 15H13.3331C13.5542 15 13.7661 14.9122 13.9223 14.7559C14.0786 14.5996 14.1665 14.3877 14.1665 14.1667V7.50002C14.1665 7.20231 14.0076 6.92721 13.7498 6.77835C13.492 6.62949 13.1743 6.62949 12.9165 6.77835C12.6587 6.92721 12.4998 7.20231 12.4998 7.50002V13.3332H1.66682V2.50008H7.49991C7.79761 2.50008 8.07272 2.34118 8.22157 2.08337C8.37042 1.82556 8.37042 1.50791 8.22157 1.2501C8.07272 0.992278 7.79761 0.833387 7.49991 0.833387H0.833264C0.612287 0.833387 0.40038 0.921275 0.244134 1.07752C0.0877478 1.23377 0 1.4457 0 1.6668V14.1667C0 14.3876 0.0877478 14.5995 0.244134 14.7558C0.40038 14.9122 0.612305 14.9999 0.833264 14.9999L0.833339 15Z" fill="#30489B"/>
</svg>
