<svg viewBox="0 0 30 27" xmlns="http://www.w3.org/2000/svg">
<path d="M27.6201 2.75262C26.0671 1.06828 23.9362 0.140625 21.6195 0.140625C19.8878 0.140625 18.3018 0.68811 16.9057 1.76775C16.2012 2.31271 15.5628 2.97945 15 3.75764C14.4374 2.97968 13.7988 2.31271 13.0941 1.76775C11.6982 0.68811 10.1122 0.140625 8.38051 0.140625C6.06377 0.140625 3.93265 1.06828 2.37968 2.75262C0.845261 4.41728 0 6.69145 0 9.15651C0 11.6937 0.945511 14.0161 2.97546 16.4656C4.79141 18.6567 7.40135 20.881 10.4237 23.4566C11.4558 24.3362 12.6256 25.3332 13.8403 26.3952C14.1611 26.6763 14.5729 26.831 15 26.831C15.4269 26.831 15.8389 26.6763 16.1593 26.3957C17.374 25.3334 18.5445 24.336 19.577 23.4559C22.5989 20.8808 25.2088 18.6567 27.0248 16.4654C29.0547 14.0161 30 11.6937 30 9.15628C30 6.69145 29.1547 4.41728 27.6201 2.75262Z"/>
</svg>
