<svg viewBox="0 0 18 18" xmlns="http://www.w3.org/2000/svg">
<path d="M15.9014 2.90982C15.0214 1.95536 13.8139 1.42969 12.501 1.42969C11.5197 1.42969 10.621 1.73993 9.82988 2.35172C9.43066 2.66054 9.06893 3.03835 8.75 3.47933C8.4312 3.03848 8.06934 2.66054 7.66999 2.35172C6.87895 1.73993 5.98026 1.42969 4.99895 1.42969C3.68613 1.42969 2.4785 1.95536 1.59849 2.90982C0.728981 3.85313 0.25 5.14182 0.25 6.53869C0.25 7.97641 0.785789 9.29247 1.9361 10.6805C2.96513 11.9221 4.4441 13.1826 6.15678 14.6421C6.7416 15.1405 7.4045 15.7055 8.09281 16.3073C8.27465 16.4666 8.50798 16.5542 8.75 16.5542C8.99189 16.5542 9.22535 16.4666 9.40693 16.3075C10.0952 15.7056 10.7585 15.1404 11.3436 14.6417C13.056 13.1824 14.535 11.9221 15.564 10.6804C16.7143 9.29247 17.25 7.97641 17.25 6.53856C17.25 5.14182 16.771 3.85313 15.9014 2.90982Z"/>
</svg>
