<svg id="svg34" fill="none" version="1.1" viewBox="0 0 461.1 620.2" xmlns="http://www.w3.org/2000/svg">
 <path id="path12" d="m284.1 613.9c-104.7 20.62-267.4-16.02-282-126.5-13.56-102.4 77.15-77.36 92.7-170.9 15.55-93.52-121.7-151.2-87.34-244.6 19.96-54.21 88.72-84.75 169.5-65.33 80.77 19.42 173.5 88.82 241.5 234.5 64.21 137.6 45.82 227.8 3.774 285.1-42.05 57.31-107.7 81.71-138.2 87.7z" stroke="#363b76" stroke-miterlimit="10" stroke-opacity=".1" stroke-width="1.504"/>
 <path id="path14" d="m412.1 248.5c59.08 126.2 42.72 209.2 4.343 262.2-38.22 52.58-98.1 75.32-126.5 81.23-96.6 19.81-247.1-13.38-263.3-114.8-14.97-93.64 65.74-73.12 79.38-159.4 0.38-2.457 0.651-4.888 0.822-7.296 4.656-65.21-65.61-112.6-80.09-170.6-3.93-15.72-3.836-32.23 2.97-49.98 19.58-51.05 83.57-78.84 158.2-60.45 74.96 18.56 160.7 83.93 224.1 219z" stroke="#363b76" stroke-miterlimit="10" stroke-opacity=".1" stroke-width="1.504"/>
 <path id="path16" d="m405.7 255.9c53.95 114.7 39.63 190.6 4.912 239.3-34.4 47.86-88.42 69.01-114.7 74.75-88.41 19.29-226.7-10.71-244.5-103.1-16.36-84.84 54.62-68.82 66.05-147.8 0.33-2.278 0.548-4.536 0.686-6.772 3.808-60.36-58.12-104.9-69.7-158.3-3.164-14.56-2.741-29.78 3.754-45.98 19.21-47.9 78.41-72.94 146.9-55.57 69.15 17.71 147.9 79.05 206.7 203.4z" stroke="#363b76" stroke-miterlimit="10" stroke-opacity=".1" stroke-width="1.504"/>
 <path id="path18" d="m399.3 263.2c48.82 103.2 36.67 172.1 5.482 216.4-30.44 43.22-78.76 62.65-103 68.27-80.27 18.6-206.4-8.026-225.8-91.39-17.72-76.03 43.33-64.56 52.72-136.3 0.275-2.099 0.445-4.184 0.551-6.247 2.958-55.52-50.61-97.25-59.31-146-2.394-13.4-1.635-27.34 4.539-41.98 18.86-44.74 73.26-67.03 135.5-50.69 63.34 16.85 135.2 74.16 189.3 187.9z" stroke="#363b76" stroke-miterlimit="10" stroke-opacity=".1" stroke-width="1.504"/>
 <path id="path20" d="m392.8 270.6c43.89 91.71 33.62 153.6 6.05 193.5-26.58 38.52-69.1 56.28-91.34 61.8-72.14 17.88-186-5.315-207.1-79.69-19.05-67.2 32.02-60.31 39.4-124.8 0.22-1.921 0.341-3.831 0.415-5.722 2.109-50.67-43.08-89.58-48.92-133.7-1.62-12.25-0.516-24.89 5.323-37.98 18.54-41.58 68.13-61.25 124.2-45.81 57.56 15.85 122.6 69.2 172 172.4z" stroke="#363b76" stroke-miterlimit="10" stroke-opacity=".1" stroke-width="1.504"/>
 <path id="path22" d="m386.4 278c38.79 80.24 30.56 135 6.62 170.6-22.72 33.81-59.44 49.91-79.63 55.32-64.01 17.14-165.6-2.576-188.4-68-20.33-58.35 20.69-56.07 26.07-113.3 0.164-1.743 0.238-3.479 0.28-5.197 1.259-45.83-35.54-81.92-38.53-121.4-0.842-11.1 0.619-22.43 6.108-33.98 18.26-38.42 62.98-55.36 112.9-40.93 51.76 14.97 109.8 64.3 154.6 156.9z" stroke="#363b76" stroke-miterlimit="10" stroke-opacity=".1" stroke-width="1.504"/>
 <path id="path24" d="m380 285.3c33.68 68.77 27.49 116.4 7.189 147.7-18.87 29.1-49.78 43.53-67.92 48.84-55.89 16.36-145.1 0.192-169.7-56.3-21.52-49.48 9.316-51.84 12.74-101.8 0.107-1.565 0.134-3.125 0.144-4.672 0.41-40.98-27.96-74.27-28.14-109.1-0.054-9.952 1.771-19.97 6.892-29.99 18.02-35.24 57.84-49.47 101.6-36.05 45.96 14.1 97.05 59.4 137.2 141.3z" stroke="#363b76" stroke-miterlimit="10" stroke-opacity=".1" stroke-width="1.504"/>
 <path id="path26" d="m373.6 292.7c28.55 57.31 24.42 97.86 7.758 124.9-15.04 24.37-40.12 37.14-56.22 42.37-47.79 15.53-127.1 4.009-150.9-44.6-20.38-41.49-2.104-47.62-0.587-90.27 0.05-1.388 0.031-2.773 8e-3 -4.148-0.439-36.14-20.32-66.63-17.75-96.86 0.749-8.806 2.948-17.5 7.677-25.99 17.84-32.02 52.69-43.56 90.27-31.17 40.16 13.24 84.27 54.5 119.8 125.8z" stroke="#363b76" stroke-miterlimit="10" stroke-opacity=".1" stroke-width="1.504"/>
 <path id="path28" d="m367.2 300.1c23.39 45.86 21.31 79.26 8.327 102-11.23 19.63-30.48 30.72-44.51 35.89-39.71 14.64-103.6 5.704-132.2-32.9-23.52-31.76-13.6-43.42-13.91-78.75-0.011-1.211-0.073-2.42-0.128-3.623-1.288-31.29-12.62-58.98-7.362-84.58 1.572-7.658 4.151-15.01 8.462-21.99 17.77-28.76 47.53-37.63 78.95-26.29 34.35 12.4 71.46 49.62 102.4 110.3z" stroke="#363b76" stroke-miterlimit="10" stroke-opacity=".1" stroke-width="1.504"/>
 <path id="path30" d="m360.8 307.4c18.19 34.42 18.16 60.62 8.897 79.06-7.468 14.86-20.85 24.27-32.81 29.42-31.69 13.65-82.58 8.24-113.5-21.2-24.24-23.08-25.21-39.23-27.24-67.23-0.075-1.034-0.177-2.067-0.263-3.098-2.138-26.45-4.813-51.29 3.027-72.29 2.425-6.496 5.387-12.5 9.246-17.99 17.85-25.39 42.37-31.67 67.64-21.41 28.53 11.59 58.59 44.76 85.01 94.76z" stroke="#363b76" stroke-miterlimit="10" stroke-opacity=".1" stroke-width="1.504"/>
 <path id="path32" d="m247.9 384.4c-25.93-15.37-37.98-36.69-40.97-58.29-2.987-21.6 3.091-43.49 13.42-60.01 21.19-33.9 43.66-41.36 66.35-30.52s45.58 39.96 67.62 79.23c22.04 39.27 12.13 66.57-11.64 79.1-23.77 12.53-61.39 10.29-94.79-9.503z" stroke="#363b76" stroke-miterlimit="10" stroke-opacity=".1" stroke-width="1.504"/>
</svg>
