<svg width="228" height="501" viewBox="0 0 228 501" fill="none" xmlns="http://www.w3.org/2000/svg">
<path d="M170.042 477.975C95.5646 458.928 1.13613 384.675 25.867 308.3C48.7963 237.489 100.025 281.906 139.13 225.905C178.234 169.903 106.849 89.8104 158.163 39.7337C187.948 10.6678 242.136 12.118 288.641 49.7879C335.146 87.4578 373.967 161.348 373.016 277.161C372.117 386.56 332.19 439.529 287.08 463.767C241.97 488.004 191.676 483.507 170.042 477.975Z" stroke="#363B76" stroke-opacity="0.1" stroke-width="1.50378" stroke-miterlimit="10"/>
<path d="M366.559 279.964C365.877 380.321 329.483 429.284 288.092 451.855C246.934 474.203 200.945 470.427 180.674 465.48C111.71 448.416 24.1507 380.195 45.0467 309.217C64.3404 243.679 110.468 282.039 146.072 230.18C147.08 228.7 148.011 227.203 148.868 225.69C172.111 184.725 141.112 132.104 149.651 89.9423C151.969 78.4972 157.147 67.7933 167.075 58.3604C195.633 31.2275 245.865 32.9895 288.68 68.0798C331.674 103.39 367.2 172.495 366.559 279.964Z" stroke="#363B76" stroke-opacity="0.1" stroke-width="1.50378" stroke-miterlimit="10"/>
<path d="M360.106 282.767C359.64 374.082 326.779 419.037 289.107 439.944C251.9 460.403 210.209 457.412 191.309 452.986C127.832 438.121 47.1728 375.732 64.2289 310.133C79.8939 249.884 121.084 282.305 153.017 234.455C153.937 233.076 154.779 231.674 155.562 230.263C176.751 192.186 150.296 144.004 159.295 105.725C161.752 95.2725 166.745 85.5048 175.99 76.9865C203.332 51.7913 249.596 53.8604 288.722 86.3715C328.205 119.323 360.435 183.642 360.106 282.767Z" stroke="#363B76" stroke-opacity="0.1" stroke-width="1.50378" stroke-miterlimit="10"/>
<path d="M353.653 285.571C353.403 367.844 324.136 408.897 290.122 428.033C256.927 446.707 219.479 444.36 201.945 440.492C143.974 427.701 70.2043 371.29 83.4122 311.05C95.4584 256.108 131.605 282.493 159.963 238.73C160.792 237.45 161.549 236.147 162.257 234.838C181.391 199.649 159.491 155.903 168.939 121.508C171.538 112.048 176.351 103.222 184.905 95.613C211.043 72.3629 253.327 74.7317 288.765 104.663C324.737 135.255 353.671 194.79 353.653 285.571Z" stroke="#363B76" stroke-opacity="0.1" stroke-width="1.50378" stroke-miterlimit="10"/>
<path d="M347.196 288.375C347.31 361.621 321.448 398.682 291.134 416.122C261.908 432.935 228.747 431.306 212.576 427.998C160.117 417.265 93.2457 366.875 102.592 311.967C111.036 262.356 142.112 282.669 166.905 243.005C167.643 241.824 168.314 240.62 168.948 239.413C186.028 207.111 168.697 167.798 178.58 137.292C181.324 128.822 185.96 120.946 193.816 114.24C218.766 92.9445 257.114 95.525 288.803 122.956C321.326 151.108 347.068 205.955 347.196 288.375Z" stroke="#363B76" stroke-opacity="0.1" stroke-width="1.50378" stroke-miterlimit="10"/>
<path d="M340.743 291.178C341.096 355.384 318.761 388.462 292.148 404.21C266.89 419.157 238.02 418.246 223.211 415.503C176.268 406.808 116.315 362.494 121.774 312.884C126.643 268.634 152.609 282.83 173.85 247.28C174.497 246.197 175.082 245.091 175.642 243.987C190.668 214.573 177.925 179.693 188.224 153.074C191.117 145.595 195.581 138.676 202.731 132.866C226.513 113.541 260.856 116.385 288.845 141.247C317.869 167.028 340.335 217.105 340.743 291.178Z" stroke="#363B76" stroke-opacity="0.1" stroke-width="1.50378" stroke-miterlimit="10"/>
<path d="M334.285 293.982C334.869 349.146 316.067 378.235 293.158 392.299C271.864 405.372 247.29 405.179 233.842 403.009C192.42 396.324 139.424 358.157 140.953 313.801C142.292 274.95 163.083 282.974 180.791 251.555C181.346 250.571 181.847 249.564 182.333 248.562C195.304 222.035 187.176 191.592 197.864 168.858C200.914 162.369 205.207 156.418 211.642 151.493C234.281 134.163 264.59 137.251 288.883 159.54C314.404 182.954 333.589 228.254 334.285 293.982Z" stroke="#363B76" stroke-opacity="0.1" stroke-width="1.50378" stroke-miterlimit="10"/>
<path d="M327.83 296.785C328.631 342.907 313.372 367.998 294.172 380.388C276.836 391.576 256.565 392.101 244.475 390.515C208.58 385.803 160.591 353.73 160.134 314.717C159.744 281.42 173.529 283.093 187.735 255.83C188.197 254.943 188.614 254.037 189.026 253.135C199.943 229.497 196.465 203.501 207.507 184.64C210.723 179.146 214.849 174.173 220.556 170.119C242.087 154.823 268.322 158.125 288.924 177.831C310.937 198.888 326.833 239.401 327.83 296.785Z" stroke="#363B76" stroke-opacity="0.1" stroke-width="1.50378" stroke-miterlimit="10"/>
<path d="M321.375 299.59C322.373 336.665 310.667 357.743 295.185 368.477C281.797 377.761 265.841 379.007 255.109 378.021C224.743 375.229 185.938 349.602 179.315 315.635C173.866 287.686 183.932 283.179 194.679 260.106C195.047 259.315 195.381 258.509 195.719 257.71C204.582 236.96 205.799 215.44 217.149 200.424C220.545 195.931 224.503 191.948 229.469 188.746C249.94 175.549 272.045 179.01 288.965 196.124C307.462 214.833 320.056 250.545 321.375 299.59Z" stroke="#363B76" stroke-opacity="0.1" stroke-width="1.50378" stroke-miterlimit="10"/>
<path d="M314.921 302.393C316.082 330.421 307.938 347.451 296.199 356.567C286.737 363.913 275.115 365.885 265.743 365.527C240.903 364.579 209.479 345.285 198.497 316.552C189.886 294.022 194.263 283.226 201.623 264.381C201.895 263.685 202.149 262.982 202.412 262.285C209.221 244.422 215.183 227.435 226.792 216.207C230.383 212.734 234.171 209.746 238.383 207.373C257.862 196.394 275.753 199.91 289.006 214.416C303.97 230.796 313.234 261.687 314.921 302.393Z" stroke="#363B76" stroke-opacity="0.1" stroke-width="1.50378" stroke-miterlimit="10"/>
<path d="M217.679 317.468C205.581 299.432 204.352 281.834 209.106 266.859C213.86 251.884 224.598 239.532 236.435 231.99C260.723 216.515 277.651 218.63 289.047 232.707C300.443 246.784 306.307 272.824 308.467 305.196C310.626 337.569 295.719 352.25 276.378 353.032C257.036 353.814 233.259 340.695 217.679 317.468Z" stroke="#363B76" stroke-opacity="0.1" stroke-width="1.50378" stroke-miterlimit="10"/>
</svg>
