<svg width="364" height="221" viewBox="0 0 364 221" fill="none" xmlns="http://www.w3.org/2000/svg">
<path d="M335.743 87.0707C328.623 118.972 286.102 166.625 233.182 167.928C184.117 169.135 209.949 142.688 169.565 135.432C129.181 128.176 81.0196 167.647 43.6762 154.758C22.001 147.277 18.8864 125.851 40.5637 102.224C62.2409 78.5969 108.71 52.7686 186.202 36.4827C259.402 21.0986 297.822 29.1126 317.424 43.2889C337.026 57.4653 337.811 77.8044 335.743 87.0707Z" stroke="#363B76" stroke-opacity="0.1" stroke-miterlimit="10"/>
<path d="M188.563 38.6066C255.702 24.4385 291.176 31.6455 309.385 44.6053C327.427 57.506 328.368 76.0559 326.589 84.7043C320.38 114.161 281.373 158.257 232.35 160.285C187.084 162.158 209.251 138.579 171.9 132.098C170.834 131.916 169.763 131.767 168.687 131.649C139.551 128.441 106.71 148.147 77.8821 150.868C70.0564 151.607 62.5107 151.119 55.4566 148.589C35.1661 141.31 32.5582 121.389 52.789 99.577C73.1536 77.6638 116.672 53.8141 188.563 38.6066Z" stroke="#363B76" stroke-opacity="0.1" stroke-miterlimit="10"/>
<path d="M190.924 40.7307C252.002 27.7783 284.531 34.1786 301.346 45.9218C317.827 57.5467 318.97 74.301 317.435 82.3378C312.283 109.33 276.655 149.886 231.517 152.643C190.06 155.176 208.629 134.385 174.234 128.764C173.243 128.602 172.243 128.474 171.241 128.37C144.19 125.551 113.974 142.84 87.7062 144.822C80.5336 145.364 73.6277 144.814 67.2365 142.419C48.333 135.338 46.2294 116.926 65.014 96.9297C84.0661 76.7308 124.634 54.8599 190.924 40.7307Z" stroke="#363B76" stroke-opacity="0.1" stroke-miterlimit="10"/>
<path d="M193.284 42.8543C248.302 31.1179 277.951 36.6721 293.307 47.2379C308.292 57.549 309.546 72.5489 308.281 79.971C304.099 104.509 271.949 141.507 230.684 145C193.047 148.187 207.961 130.238 176.568 125.43C175.65 125.289 174.722 125.181 173.794 125.091C148.828 122.661 121.234 137.528 97.5299 138.776C91.0099 139.12 84.7468 138.505 79.0158 136.25C61.5033 129.36 59.9 112.463 77.2382 94.2824C94.9779 75.7974 132.596 55.9051 193.284 42.8543Z" stroke="#363B76" stroke-opacity="0.1" stroke-miterlimit="10"/>
<path d="M195.645 44.9783C244.601 34.398 271.325 39.1934 285.268 48.5543C298.71 57.5789 300.121 70.7971 299.128 77.6046C295.907 99.6885 267.261 133.12 229.851 137.358C196.05 141.188 207.287 126.098 178.904 122.096C178.058 121.977 177.203 121.888 176.348 121.813C153.467 119.772 128.493 132.212 107.355 132.731C101.486 132.875 95.8712 132.192 90.7965 130.081C74.6802 123.375 73.5151 107.989 89.4641 91.6354C105.832 74.8518 140.557 56.8835 195.645 44.9783Z" stroke="#363B76" stroke-opacity="0.1" stroke-miterlimit="10"/>
<path d="M198.005 47.1025C240.9 37.7287 264.695 41.716 277.229 49.8709C289.124 57.6106 290.691 69.0456 289.973 75.2384C287.699 94.8695 262.594 124.718 229.018 129.716C199.07 134.174 206.603 121.966 181.237 118.763C180.465 118.665 179.681 118.595 178.901 118.534C158.105 116.882 135.749 126.888 117.178 126.685C111.96 126.628 106.999 125.875 102.576 123.911C87.8647 117.38 87.1772 103.524 101.688 88.9885C116.735 73.9161 148.518 57.9168 198.005 47.1025Z" stroke="#363B76" stroke-opacity="0.1" stroke-miterlimit="10"/>
<path d="M200.367 49.2276C237.2 41.0642 258.063 44.2417 269.191 51.1886C279.535 57.6458 281.258 67.2954 280.821 72.8732C279.474 90.0531 257.953 116.294 228.187 122.075C202.114 127.139 205.911 117.844 183.573 115.43C182.873 115.354 182.163 115.303 181.456 115.257C162.746 113.993 143.007 121.555 127.004 120.64C122.436 120.379 118.135 119.554 114.357 117.743C101.066 111.372 100.846 99.0602 113.915 86.3424C127.644 72.9818 156.481 58.9544 200.367 49.2276Z" stroke="#363B76" stroke-opacity="0.1" stroke-miterlimit="10"/>
<path d="M202.728 51.3515C233.5 44.4038 251.423 46.7693 261.153 52.5048C269.938 57.6834 271.817 65.5447 271.668 70.5065C271.223 85.2388 253.399 108.642 227.354 114.432C205.124 119.375 205.204 113.736 185.908 112.096C185.28 112.042 184.643 112.009 184.009 111.978C167.384 111.103 150.269 116.204 136.828 114.594C132.912 114.125 129.277 113.225 126.137 111.574C114.289 105.344 114.519 94.5963 126.14 83.6951C138.557 72.0471 164.442 59.9958 202.728 51.3515Z" stroke="#363B76" stroke-opacity="0.1" stroke-miterlimit="10"/>
<path d="M205.087 53.4758C229.797 47.7523 244.769 49.3039 253.112 53.8216C260.327 57.7284 262.363 63.7965 262.512 68.1404C262.934 80.4314 248.727 99.3117 226.52 106.791C208.247 112.944 204.476 109.651 188.241 108.762C187.685 108.732 187.121 108.717 186.561 108.7C172.022 108.214 157.544 110.833 146.651 108.549C143.391 107.865 140.43 106.889 137.915 105.405C127.551 99.2874 128.198 90.1348 138.363 81.0483C149.477 71.1146 172.401 61.0469 205.087 53.4758Z" stroke="#363B76" stroke-opacity="0.1" stroke-miterlimit="10"/>
<path d="M207.449 55.5996C226.098 51.1136 238.096 51.8525 245.075 55.1378C250.699 57.7858 252.893 62.0527 253.36 65.7738C254.598 75.6362 244.068 90.7151 225.688 99.1481C211.277 105.76 203.729 105.599 190.577 105.428C190.091 105.422 189.602 105.424 189.116 105.421C176.662 105.324 164.857 105.433 156.476 102.503C153.884 101.596 151.601 100.543 149.697 99.2353C140.889 93.1874 141.891 85.6764 150.59 78.4011C160.412 70.1858 180.364 62.1151 207.449 55.5996Z" stroke="#363B76" stroke-opacity="0.1" stroke-miterlimit="10"/>
<path d="M224.855 91.5056C213.71 98.8368 202.038 101.849 191.669 102.142C181.3 102.434 172.234 100.007 166.3 96.4568C154.124 89.1732 154.262 82.2408 162.814 75.7539C171.365 69.267 188.331 63.2254 209.809 57.7235C231.287 52.2215 242.225 55.9464 244.205 63.4071C246.185 70.8678 239.208 82.0644 224.855 91.5056Z" stroke="#363B76" stroke-opacity="0.1" stroke-miterlimit="10"/>
</svg>
