<svg width="274" height="289" viewBox="0 0 274 289" fill="none" xmlns="http://www.w3.org/2000/svg">
<path d="M232.908 94.3396C251.407 130.462 258.116 189.482 224.333 199.311C193.01 208.423 190.752 175.313 158.979 173.764C127.206 172.216 124.27 223.156 90.4004 214.945C70.7418 210.18 53.1347 187.172 50.1987 157.815C47.2627 128.458 58.9979 92.7507 98.0238 62.5864C134.888 34.0926 165.923 36.7848 189.084 49.2233C212.245 61.6618 227.534 83.8471 232.908 94.3396Z" stroke="#363B76" stroke-opacity="0.1" stroke-miterlimit="10"/>
<path d="M101.117 64.5422C134.887 38.3441 163.402 40.6187 184.765 51.944C205.976 63.2309 220.068 83.4287 225.183 93.1976C242.504 126.494 248.936 181.055 218.236 191.061C189.89 200.3 187.311 170.918 158.091 169.737C157.259 169.707 156.448 169.714 155.656 169.755C134.205 170.861 126.967 197.689 110.024 205.25C105.425 207.302 100.119 207.965 93.6512 206.309C75.0479 201.546 58.8663 180.108 56.2999 152.972C53.7475 125.703 64.9837 92.6345 101.117 64.5422Z" stroke="#363B76" stroke-opacity="0.1" stroke-miterlimit="10"/>
<path d="M104.208 66.4964C134.884 42.5939 160.881 44.451 180.446 54.663C199.706 64.7983 212.625 82.9947 217.456 92.0538C233.681 122.479 239.758 172.62 212.138 182.809C186.771 192.168 183.855 166.415 157.201 165.709C156.433 165.689 155.683 165.707 154.95 165.752C135.149 166.954 127.878 190.714 112.079 197.058C107.765 198.79 102.834 199.283 96.9004 197.671C79.3508 192.904 64.5964 173.042 62.3995 148.127C60.2309 122.946 70.9681 92.5168 104.208 66.4964Z" stroke="#363B76" stroke-opacity="0.1" stroke-miterlimit="10"/>
<path d="M107.299 68.4519C134.881 46.8453 158.373 48.2313 176.125 57.3836C193.449 66.3151 205.167 82.5695 209.729 90.9115C224.808 118.491 230.583 164.177 206.039 174.559C183.654 184.028 180.404 161.973 156.31 161.682C155.606 161.674 154.917 161.702 154.243 161.751C136.094 163.048 128.784 183.736 114.134 188.867C110.105 190.279 105.548 190.598 100.149 189.035C83.6513 184.257 70.3259 165.978 68.4985 143.283C66.7135 120.191 76.9517 92.4003 107.299 68.4519Z" stroke="#363B76" stroke-opacity="0.1" stroke-miterlimit="10"/>
<path d="M110.391 70.4069C134.835 51.0306 155.856 52.0488 171.806 60.1034C187.182 67.8688 197.709 82.1439 202.002 89.7687C215.93 114.504 221.414 155.721 199.942 166.308C180.541 175.874 176.955 157.539 155.421 157.655C154.779 157.658 154.153 157.696 153.538 157.749C137.039 159.142 129.686 176.752 116.19 180.676C112.443 181.766 108.263 181.909 103.399 180.398C87.9511 175.6 76.0104 158.908 74.5988 138.439C73.1496 117.431 82.8869 92.2098 110.391 70.4069Z" stroke="#363B76" stroke-opacity="0.1" stroke-miterlimit="10"/>
<path d="M113.485 72.3612C134.826 55.2705 153.339 55.8671 167.487 62.8227C180.916 69.4242 190.25 81.7184 194.277 88.6253C207.044 110.52 212.249 147.245 193.845 158.057C177.43 167.701 173.506 153.114 154.532 153.626C153.954 153.642 153.389 153.689 152.833 153.747C137.985 155.235 130.582 169.76 118.247 172.485C114.781 173.25 110.978 173.212 106.649 171.76C92.2505 166.931 81.7348 151.841 80.6999 133.594C79.6267 114.673 88.8633 92.0786 113.485 72.3612Z" stroke="#363B76" stroke-opacity="0.1" stroke-miterlimit="10"/>
<path d="M116.577 74.3185C134.819 59.5174 150.819 59.6913 163.168 65.5449C174.647 70.9858 182.786 81.2969 186.551 87.4846C198.146 106.543 203.083 138.742 187.747 149.808C174.315 159.501 170.056 148.704 153.642 149.601C153.128 149.629 152.624 149.685 152.127 149.747C138.931 151.331 131.469 162.758 120.303 164.296C117.116 164.734 113.693 164.512 109.899 163.125C96.5481 158.246 87.4611 144.777 86.7999 128.752C86.1051 111.918 94.8405 91.9538 116.577 74.3185Z" stroke="#363B76" stroke-opacity="0.1" stroke-miterlimit="10"/>
<path d="M119.668 76.2733C134.816 63.7681 148.297 63.5178 158.848 68.2646C168.375 72.5505 175.319 80.8753 178.825 86.3416C189.234 102.572 194.536 131.072 181.65 141.558C170.651 150.508 166.608 144.31 152.753 145.573C152.302 145.614 151.86 145.679 151.421 145.745C139.876 147.425 132.348 155.737 122.358 156.104C119.448 156.211 116.408 155.801 113.148 154.488C100.847 149.535 93.1915 137.71 92.8998 123.908C92.5881 109.16 100.821 91.8325 119.668 76.2733Z" stroke="#363B76" stroke-opacity="0.1" stroke-miterlimit="10"/>
<path d="M122.762 78.2284C134.821 68.0281 145.773 67.3535 154.53 70.9846C162.103 74.1247 167.847 80.4577 171.1 85.1987C180.305 98.6137 184.695 121.579 175.553 133.307C168.031 142.958 163.164 139.944 151.865 141.546C151.477 141.601 151.096 141.674 150.717 141.744C140.822 143.519 133.223 148.69 124.415 147.913C121.78 147.681 119.127 147.08 116.399 145.851C105.153 140.786 98.9299 130.644 99.001 119.064C99.0787 106.403 106.81 91.7215 122.762 78.2284Z" stroke="#363B76" stroke-opacity="0.1" stroke-miterlimit="10"/>
<path d="M125.853 80.1835C134.833 72.3026 143.244 71.2085 150.21 73.7046C155.825 75.7164 160.364 80.0485 163.373 84.056C171.349 94.6776 175.392 112.889 169.455 125.056C164.8 134.597 159.73 135.619 150.974 137.518C150.651 137.588 150.331 137.668 150.01 137.742C141.767 139.613 134.099 141.606 126.47 139.722C124.111 139.14 121.847 138.346 119.648 137.214C109.475 131.978 104.677 123.581 105.101 114.22C105.579 103.649 112.811 91.6295 125.853 80.1835Z" stroke="#363B76" stroke-opacity="0.1" stroke-miterlimit="10"/>
<path d="M163.357 116.806C161.368 126.617 155.897 131.774 149.304 133.74C142.712 135.707 134.998 134.483 128.526 131.531C115.245 125.475 110.3 117.849 111.2 109.376C112.1 100.903 118.846 91.583 128.945 82.1387C139.044 72.6944 148.927 75.044 155.646 82.9133C162.365 90.7825 165.919 104.172 163.357 116.806Z" stroke="#363B76" stroke-opacity="0.1" stroke-miterlimit="10"/>
</svg>
