<svg width="237" height="246" viewBox="0 0 237 246" fill="none" xmlns="http://www.w3.org/2000/svg">
<path d="M188.055 187.269C163.513 205.622 116.846 216.36 99.3255 189.58C83.081 164.751 109.682 159.96 102.08 133.814C94.4787 107.669 51.7625 109.793 49.054 81.3394C47.4819 64.8241 61.4862 48.3668 84.8111 43.3541C108.136 38.3413 140.781 44.7733 176.492 74.0368C210.224 101.679 216.679 127.322 212.919 147.386C209.159 167.451 195.183 181.937 188.055 187.269Z" stroke="#363B76" stroke-opacity="0.1" stroke-miterlimit="10"/>
<path d="M175.748 76.7415C206.728 102.055 212.822 125.599 209.475 144.092C206.117 162.458 193.442 175.788 186.836 180.843C164.29 197.981 121.213 208.095 104.408 183.856C88.8914 161.474 112.336 156.751 105.145 132.728C104.937 132.045 104.705 131.381 104.45 130.737C97.5484 113.276 73.4612 109.736 62.5103 96.5397C59.5377 92.9573 57.5102 88.673 57.0656 83.2318C55.7868 67.5807 68.898 52.4297 90.4994 47.9169C112.214 43.4038 142.55 49.6618 175.748 76.7415Z" stroke="#363B76" stroke-opacity="0.1" stroke-miterlimit="10"/>
<path d="M175.003 79.4461C203.231 102.431 208.965 123.876 206.032 140.798C203.076 157.465 191.719 169.657 185.618 174.417C165.127 190.402 125.586 199.833 109.491 178.131C94.7075 158.198 115.074 153.522 108.208 131.642C108.011 131.011 107.786 130.399 107.544 129.803C101.025 113.702 79.4522 109.862 69.8212 97.494C67.1915 94.1169 65.4086 90.1238 65.0767 85.1238C64.0952 70.3348 76.3093 56.4921 96.1874 52.4792C116.291 48.4658 144.317 54.55 175.003 79.4461Z" stroke="#363B76" stroke-opacity="0.1" stroke-miterlimit="10"/>
<path d="M174.259 82.1507C199.734 102.807 205.156 122.16 202.588 137.504C200.081 152.479 189.986 163.516 184.4 167.991C165.929 182.785 129.968 191.573 114.573 172.406C100.532 154.924 117.763 150.304 111.272 130.556C111.082 129.978 110.867 129.417 110.638 128.87C104.501 114.129 85.445 109.984 77.1322 98.4487C74.8458 95.2758 73.31 91.5741 73.0878 87.0159C72.4089 73.0871 83.7205 60.5548 101.875 57.0417C120.369 53.528 146.085 59.4383 174.259 82.1507Z" stroke="#363B76" stroke-opacity="0.1" stroke-miterlimit="10"/>
<path d="M173.514 84.8554C196.278 103.141 201.313 120.439 199.144 134.21C197.052 147.487 188.252 157.373 183.18 161.565C166.728 175.164 134.36 183.316 119.655 166.682C106.368 151.651 120.446 147.086 114.335 129.469C114.153 128.945 113.947 128.435 113.731 127.937C107.977 114.555 91.4397 110.102 84.4424 99.4035C82.4998 96.4334 81.2145 93.0241 81.0982 88.9083C80.7288 75.8373 91.1217 64.5796 107.563 61.6046C124.436 58.551 147.899 64.2797 173.514 84.8554Z" stroke="#363B76" stroke-opacity="0.1" stroke-miterlimit="10"/>
<path d="M172.77 87.5604C192.788 103.51 197.468 118.717 195.7 130.917C194.022 142.495 186.517 151.229 181.962 155.139C167.521 167.535 138.77 175.061 124.737 160.957C112.22 148.377 123.121 143.869 117.399 128.383C117.225 127.912 117.028 127.453 116.825 127.003C111.454 114.982 97.4397 110.213 91.7533 100.358C90.1555 97.5893 89.1243 94.4733 89.1093 90.8006C89.0594 78.5851 98.5322 68.6363 113.25 66.1672C128.512 63.6069 149.675 69.1591 172.77 87.5604Z" stroke="#363B76" stroke-opacity="0.1" stroke-miterlimit="10"/>
<path d="M172.026 90.2661C189.295 103.883 193.621 116.995 192.257 127.624C190.988 137.503 184.782 145.083 180.744 148.714C168.308 159.899 143.205 166.803 129.82 155.233C118.096 145.1 125.787 140.654 120.464 127.298C120.297 126.88 120.11 126.472 119.92 126.071C114.931 115.41 103.448 110.318 99.0649 101.314C97.8138 98.7441 97.0406 95.923 97.1212 92.6937C97.4046 81.3319 105.944 72.6964 118.939 70.7309C132.591 68.6658 151.45 74.0416 172.026 90.2661Z" stroke="#363B76" stroke-opacity="0.1" stroke-miterlimit="10"/>
<path d="M171.28 92.9708C185.796 104.258 189.768 115.271 188.811 124.33C187.948 132.509 183.041 138.933 179.524 142.288C169.083 152.251 147.124 159.125 134.901 149.509C124.467 141.301 128.435 137.44 123.526 126.212C123.366 125.846 123.189 125.49 123.012 125.137C118.406 115.836 109.467 110.413 106.374 102.268C105.473 99.8955 104.962 97.3712 105.131 94.5857C105.768 84.0764 113.355 76.759 124.625 75.2933C136.668 73.7273 153.219 78.9266 171.28 92.9708Z" stroke="#363B76" stroke-opacity="0.1" stroke-miterlimit="10"/>
<path d="M170.537 95.6759C182.295 104.64 185.909 113.546 185.369 121.036C184.901 127.514 181.297 132.778 178.307 135.863C169.845 144.59 152.184 150.225 139.984 143.784C129.946 138.485 131.065 134.233 126.591 125.126C126.437 124.814 126.271 124.509 126.107 124.204C121.883 116.263 115.508 110.502 113.686 103.223C113.141 101.045 112.894 98.8206 113.143 96.4783C114.167 86.8232 120.77 80.8275 130.314 79.8563C140.749 78.7945 154.983 83.8181 170.537 95.6759Z" stroke="#363B76" stroke-opacity="0.1" stroke-miterlimit="10"/>
<path d="M169.793 98.3807C178.783 105.031 182.032 111.818 181.925 117.742C181.839 122.517 179.544 126.617 177.089 129.437C170.581 136.91 156.732 141.838 145.067 138.06C135.92 135.097 133.663 131.038 129.655 124.04C129.507 123.782 129.352 123.527 129.202 123.271C125.36 116.69 121.579 110.59 120.997 104.178C120.817 102.195 120.838 100.272 121.154 98.3706C122.619 89.5781 128.185 84.9041 136.003 84.419C144.83 83.8713 156.736 88.7222 169.793 98.3807Z" stroke="#363B76" stroke-opacity="0.1" stroke-miterlimit="10"/>
<path d="M150.149 132.335C141.524 131.579 135.754 127.559 132.295 122.337C128.836 117.116 127.688 110.693 128.308 105.133C129.579 93.7229 134.47 88.9975 141.69 88.9813C148.91 88.9651 158.459 93.658 169.048 101.085C179.637 108.512 180.465 116.811 175.87 123.01C171.274 129.21 161.255 133.309 150.149 132.335Z" stroke="#363B76" stroke-opacity="0.1" stroke-miterlimit="10"/>
</svg>
