<svg width="301" height="310" viewBox="0 0 301 310" fill="none" xmlns="http://www.w3.org/2000/svg">
<path d="M65.5261 94.7875C48.2051 131.84 45.7616 194.228 83.7268 207.358C118.927 219.532 118.642 184.415 153.446 185.259C188.25 186.103 195.736 240.635 232.288 234.543C253.504 231.007 270.939 207.864 271.714 176.8C272.488 145.736 256.602 106.752 211.173 71.5321C168.26 38.263 134.364 38.6956 109.938 50.1359C85.5126 61.5761 70.5573 84.0246 65.5261 94.7875Z" stroke="#363B76" stroke-opacity="0.1" stroke-miterlimit="10"/>
<path d="M207.937 73.3739C168.618 42.7951 137.457 42.9803 114.915 53.3752C92.5375 63.7411 78.7315 84.1649 73.925 94.1766C57.6633 128.31 55.1518 185.966 89.7412 199.043C121.679 211.117 122.059 180 154.087 181.036C154.999 181.069 155.891 181.14 156.765 181.246C180.443 184.109 190.643 213.277 209.903 222.667C215.131 225.216 221.02 226.339 227.993 225.082C248.048 221.465 264.048 199.883 264.602 171.158C265.129 142.29 250.012 106.158 207.937 73.3739Z" stroke="#363B76" stroke-opacity="0.1" stroke-miterlimit="10"/>
<path d="M204.702 75.2144C168.977 47.3257 140.55 47.2637 119.892 56.613C99.5635 65.9044 86.8797 84.2869 82.3256 93.5643C67.0298 124.723 64.5387 177.695 95.757 190.726C124.43 202.694 125.483 175.471 154.73 176.812C155.573 176.85 156.398 176.929 157.208 177.035C179.079 179.87 189.059 205.769 206.959 213.773C211.847 215.958 217.311 216.871 223.699 215.619C242.596 211.915 257.158 191.901 257.491 165.514C257.771 138.843 243.423 105.562 204.702 75.2144Z" stroke="#363B76" stroke-opacity="0.1" stroke-miterlimit="10"/>
<path d="M201.464 77.0562C169.334 51.8577 143.62 51.4903 124.867 59.8523C106.567 68.0126 95.0412 84.4192 90.7235 92.9534C76.4491 121.168 73.9177 169.416 101.77 182.41C127.174 194.262 128.903 171.007 155.37 172.589C156.144 172.635 156.903 172.719 157.648 172.825C177.712 175.633 187.477 198.26 204.013 204.88C208.561 206.701 213.598 207.4 219.404 206.157C237.143 202.36 250.266 183.921 250.379 159.872C250.411 135.397 236.832 104.968 201.464 77.0562Z" stroke="#363B76" stroke-opacity="0.1" stroke-miterlimit="10"/>
<path d="M198.229 78.8975C169.735 56.323 146.708 55.7575 129.845 63.091C113.588 70.1611 103.207 84.5515 99.1238 92.3421C85.8784 117.615 83.2933 161.122 107.786 174.094C129.916 185.815 132.327 166.551 156.012 168.366C156.718 168.42 157.41 168.509 158.091 168.615C176.347 171.395 185.903 190.745 201.069 195.988C205.28 197.443 209.888 197.924 215.11 196.695C231.693 192.794 243.426 175.939 243.268 154.23C243.105 131.949 230.292 104.299 198.229 78.8975Z" stroke="#363B76" stroke-opacity="0.1" stroke-miterlimit="10"/>
<path d="M194.992 80.7381C170.099 60.8436 149.795 60.0257 134.82 66.3291C120.607 72.3116 111.372 84.684 107.522 91.7303C95.3148 114.067 92.661 152.806 113.799 165.777C132.653 177.347 135.749 162.105 156.653 164.142C157.289 164.204 157.914 164.299 158.531 164.404C174.98 167.157 184.333 183.221 198.123 187.094C201.998 188.182 206.175 188.441 210.814 187.233C226.241 183.215 236.542 167.956 236.155 148.586C235.753 128.501 223.71 103.69 194.992 80.7381Z" stroke="#363B76" stroke-opacity="0.1" stroke-miterlimit="10"/>
<path d="M191.756 82.5813C170.462 65.3709 152.885 64.2997 139.797 69.5698C127.631 74.4682 119.544 84.8204 115.922 91.1208C104.766 110.526 102.029 144.462 119.815 157.463C135.393 168.85 139.174 157.675 157.295 159.92C157.863 159.99 158.421 160.09 158.973 160.195C173.615 162.92 182.773 175.687 195.179 178.203C198.72 178.921 202.464 178.953 206.52 177.772C220.791 173.62 229.656 159.975 229.044 142.945C228.401 125.054 217.128 103.087 191.756 82.5813Z" stroke="#363B76" stroke-opacity="0.1" stroke-miterlimit="10"/>
<path d="M188.52 84.4226C170.82 69.9026 155.978 68.5771 144.773 72.8085C134.657 76.629 127.718 84.9577 124.321 90.5094C114.232 106.993 110.784 136.957 125.829 149.147C138.67 159.551 142.598 153.263 157.936 155.697C158.435 155.776 158.927 155.88 159.415 155.985C172.249 158.682 181.22 168.134 192.234 169.31C195.443 169.653 198.75 169.454 202.225 168.31C215.336 163.997 222.765 151.992 221.932 137.302C221.042 121.606 210.542 102.489 188.52 84.4226Z" stroke="#363B76" stroke-opacity="0.1" stroke-miterlimit="10"/>
<path d="M185.283 86.2638C171.172 74.4434 159.074 72.8641 149.75 76.0471C141.686 78.7997 135.9 85.0995 132.72 89.8978C123.72 103.475 120.812 127.61 131.843 140.831C140.92 151.709 146.019 148.878 158.577 151.474C159.008 151.562 159.432 151.67 159.856 151.775C170.883 154.444 179.67 160.553 189.289 160.417C192.167 160.376 195.034 159.944 197.93 158.848C209.871 154.332 215.866 144.01 214.82 131.66C213.677 118.158 203.949 101.9 185.283 86.2638Z" stroke="#363B76" stroke-opacity="0.1" stroke-miterlimit="10"/>
<path d="M182.047 88.1048C171.515 78.9987 162.176 77.1719 154.726 79.2856C148.721 80.9891 144.092 85.2507 141.119 89.2863C133.236 99.9823 130.314 119.078 137.858 132.514C143.773 143.05 149.433 144.537 159.218 147.25C159.58 147.35 159.938 147.46 160.297 147.564C169.517 150.206 178.114 152.933 186.344 151.524C188.89 151.088 191.312 150.42 193.636 149.386C204.383 144.604 208.956 136.029 207.708 126.017C206.298 114.711 197.343 101.33 182.047 88.1048Z" stroke="#363B76" stroke-opacity="0.1" stroke-miterlimit="10"/>
<path d="M143.872 124.199C146.878 134.813 153.325 140.74 160.738 143.354C168.15 145.968 176.529 145.269 183.398 142.631C197.494 137.218 202.294 129.477 200.596 120.374C198.898 111.271 190.703 100.807 178.81 89.9463C166.917 79.0857 156.247 80.8142 149.517 88.6751C142.788 96.5359 139.999 110.529 143.872 124.199Z" stroke="#363B76" stroke-opacity="0.1" stroke-miterlimit="10"/>
</svg>
