<svg width="772" height="859" viewBox="0 0 772 859" fill="none" xmlns="http://www.w3.org/2000/svg">
<path d="M490.955 728.883C386.263 749.499 223.602 712.858 208.975 602.395C195.414 499.978 286.129 525.035 301.679 431.513C317.229 337.992 179.953 280.273 214.34 186.883C234.299 132.677 303.061 102.13 383.827 121.555C464.593 140.979 557.363 210.374 625.338 356.05C689.549 493.659 671.158 583.873 629.112 641.182C587.067 698.491 521.366 722.894 490.955 728.883Z" stroke="#363B76" stroke-opacity="0.1" stroke-width="1.50378" stroke-miterlimit="10"/>
<path d="M618.925 363.418C678.006 489.568 661.649 572.651 623.268 625.652C585.046 678.235 525.169 700.97 496.816 706.878C400.216 726.685 249.765 693.5 233.556 592.088C218.589 498.45 299.294 518.964 312.932 432.723C313.312 430.266 313.583 427.835 313.754 425.427C318.41 360.218 248.143 312.801 233.662 254.875C229.732 239.15 229.826 222.647 236.632 204.898C256.209 153.846 320.199 126.054 394.802 144.45C469.76 163.014 555.543 228.382 618.925 363.418Z" stroke="#363B76" stroke-opacity="0.1" stroke-width="1.50378" stroke-miterlimit="10"/>
<path d="M612.512 370.785C666.465 485.476 652.14 561.429 617.424 610.122C583.026 657.978 529.002 679.129 502.678 684.871C414.267 704.157 275.944 674.159 258.137 581.78C241.781 496.935 312.754 512.957 324.186 433.932C324.516 431.654 324.734 429.396 324.872 427.16C328.68 366.797 266.757 322.227 255.171 268.89C252.007 254.326 252.43 239.106 258.925 222.912C278.135 175.014 337.338 149.976 405.778 167.343C474.928 185.049 553.723 246.39 612.512 370.785Z" stroke="#363B76" stroke-opacity="0.1" stroke-width="1.50378" stroke-miterlimit="10"/>
<path d="M606.1 378.153C654.923 481.386 642.772 550.302 611.581 594.593C581.143 637.815 532.821 657.24 508.541 662.865C428.267 681.461 302.147 654.839 282.719 571.473C264.999 495.439 326.047 506.909 335.441 435.141C335.715 433.042 335.885 430.957 335.991 428.894C338.949 373.376 285.383 331.644 276.68 282.907C274.286 269.502 275.045 255.568 281.218 240.926C300.082 196.184 354.476 173.899 416.754 190.237C480.096 207.084 551.905 264.398 606.1 378.153Z" stroke="#363B76" stroke-opacity="0.1" stroke-width="1.50378" stroke-miterlimit="10"/>
<path d="M599.687 385.52C643.575 477.227 633.304 539.107 605.738 579.063C579.161 617.583 536.64 635.347 514.402 640.86C442.263 658.743 328.383 635.545 307.3 561.167C288.251 493.963 339.32 500.854 346.695 436.351C346.914 434.43 347.036 432.52 347.109 430.629C349.218 379.956 304.025 341.049 298.188 296.924C296.567 284.673 297.672 272.035 303.511 258.941C322.053 217.358 371.643 197.689 427.73 213.133C485.293 228.982 550.303 282.329 599.687 385.52Z" stroke="#363B76" stroke-opacity="0.1" stroke-width="1.50378" stroke-miterlimit="10"/>
<path d="M593.273 392.889C632.062 473.124 623.832 527.908 599.893 563.534C577.173 597.347 540.456 613.447 520.263 618.855C456.252 635.997 354.669 616.279 331.88 550.86C311.553 492.509 352.566 494.788 357.947 437.56C358.111 435.817 358.185 434.081 358.227 432.363C359.486 386.535 322.689 350.443 319.695 310.94C318.853 299.841 320.314 288.507 325.803 276.956C344.058 238.54 388.787 221.592 438.705 236.027C490.467 250.996 548.523 300.322 593.273 392.889Z" stroke="#363B76" stroke-opacity="0.1" stroke-width="1.50378" stroke-miterlimit="10"/>
<path d="M586.856 400.258C620.534 469.028 614.349 516.704 594.045 548.007C575.172 577.104 544.266 591.539 526.12 596.851C470.229 613.214 381.032 597.043 356.457 540.554C334.932 491.076 365.774 488.713 369.198 438.771C369.305 437.206 369.332 435.646 369.341 434.099C369.752 393.116 341.386 359.827 341.199 324.959C341.146 315.007 342.971 304.987 348.092 294.973C366.107 259.738 405.927 245.506 449.677 258.924C495.638 273.019 546.729 318.32 586.856 400.258Z" stroke="#363B76" stroke-opacity="0.1" stroke-width="1.50378" stroke-miterlimit="10"/>
<path d="M580.443 407.625C608.992 464.935 604.859 505.486 588.202 532.477C573.162 556.848 548.078 569.613 531.982 574.845C484.193 590.379 404.911 578.854 381.038 530.247C360.663 488.76 378.935 482.622 380.452 439.98C380.501 438.592 380.482 437.207 380.46 435.832C380.021 399.694 360.138 369.2 362.708 338.974C363.456 330.168 365.655 321.474 370.385 312.986C388.227 280.961 423.07 269.43 460.653 281.818C500.811 295.054 544.923 336.32 580.443 407.625Z" stroke="#363B76" stroke-opacity="0.1" stroke-width="1.50378" stroke-miterlimit="10"/>
<path d="M574.03 414.994C597.423 460.853 595.344 494.253 582.357 516.949C571.127 536.576 551.879 547.668 537.844 552.841C498.13 567.478 434.203 558.545 405.619 519.941C382.099 488.176 392.02 476.518 391.705 441.19C391.694 439.979 391.632 438.77 391.577 437.567C390.289 406.275 378.962 378.584 384.215 352.992C385.787 345.334 388.366 337.979 392.677 331.002C410.445 302.241 440.208 293.375 471.628 304.713C505.979 317.108 543.086 354.332 574.03 414.994Z" stroke="#363B76" stroke-opacity="0.1" stroke-width="1.50378" stroke-miterlimit="10"/>
<path d="M567.618 422.362C585.811 456.786 585.779 482.987 576.514 501.419C569.047 516.276 555.663 525.686 543.706 530.835C512.016 544.483 461.121 539.075 430.2 509.633C405.956 486.548 404.992 470.406 402.96 442.399C402.885 441.365 402.783 440.332 402.696 439.301C400.559 412.854 397.884 388.01 405.724 367.008C408.149 360.512 411.11 354.506 414.97 349.016C432.82 323.627 457.337 317.347 482.604 327.607C511.137 339.194 541.194 372.365 567.618 422.362Z" stroke="#363B76" stroke-opacity="0.1" stroke-width="1.50378" stroke-miterlimit="10"/>
<path d="M454.782 499.326C428.853 483.953 416.802 462.637 413.816 441.035C410.829 419.432 416.906 397.543 427.233 381.024C448.422 347.129 470.895 339.669 493.581 350.501C516.267 361.333 539.166 390.457 561.206 429.728C583.245 469 573.336 496.298 549.569 508.829C525.801 521.36 488.176 519.123 454.782 499.326Z" stroke="#363B76" stroke-opacity="0.1" stroke-width="1.50378" stroke-miterlimit="10"/>
</svg>
