<svg width="12" height="12" viewBox="0 0 12 12" fill="none" xmlns="http://www.w3.org/2000/svg">
<path d="M6 12C5.45884 12 5.02013 11.5613 5.02013 11.0201V7.88608C5.02013 7.33379 4.57242 6.88608 4.02013 6.88608H0.886075C0.396709 6.88608 0 6.48937 0 6C0 5.51063 0.39671 5.11392 0.886076 5.11392H4.02014C4.57242 5.11392 5.02013 4.66621 5.02013 4.11392V0.979867C5.02013 0.438702 5.45884 0 6 0C6.54117 0 6.97987 0.438701 6.97987 0.979866V4.11392C6.97987 4.66621 7.42758 5.11392 7.97987 5.11392H11.1139C11.6033 5.11392 12 5.51063 12 6C12 6.48937 11.6033 6.88608 11.1139 6.88608H7.97987C7.42758 6.88608 6.97987 7.33379 6.97987 7.88608V11.0201C6.97987 11.5613 6.54117 12 6 12Z" fill="black"/>
</svg>
