<svg viewBox="0 0 46 46" xmlns="http://www.w3.org/2000/svg">
<path fill-rule="evenodd" clip-rule="evenodd" d="M45.5 23C45.5 35.4264 35.4264 45.5 23 45.5C10.5736 45.5 0.5 35.4264 0.5 23C0.5 10.5736 10.5736 0.5 23 0.5C35.4264 0.5 45.5 10.5736 45.5 23ZM14.4804 18.5436C13.1396 17.2028 10.9656 17.2028 9.62477 18.5436C8.28393 19.8845 8.28393 22.0584 9.62478 23.3993L21.3012 35.0757C22.2398 36.0142 23.7614 36.0142 24.6999 35.0757L36.3763 23.3993C37.7172 22.0584 37.7172 19.8845 36.3763 18.5436C35.0355 17.2028 32.8616 17.2028 31.5207 18.5436L24.6999 25.3645C23.7614 26.303 22.2398 26.303 21.3012 25.3645L14.4804 18.5436ZM23.0006 21.4736C24.7592 21.4736 26.1849 20.048 26.1849 18.2894C26.1849 16.5308 24.7592 15.1052 23.0006 15.1052C21.242 15.1052 19.8164 16.5308 19.8164 18.2894C19.8164 20.048 21.242 21.4736 23.0006 21.4736Z"/>
</svg>
