<svg viewBox="0 0 37 37" xmlns="http://www.w3.org/2000/svg">
<path fill-rule="evenodd" clip-rule="evenodd" d="M18.6947 0.399112C28.8016 0.399111 36.9949 8.59239 36.9949 18.6993C36.9949 28.8062 28.8017 36.9995 18.6947 36.9995C8.58781 36.9995 0.394531 28.8062 0.39453 18.6993C0.39453 8.59239 8.58781 0.399112 18.6947 0.399112ZM15.0703 25.6286C13.9798 26.7191 13.9798 28.4873 15.0703 29.5779C16.1609 30.6684 17.9291 30.6684 19.0196 29.5779L28.5166 20.0809C29.2799 19.3176 29.2799 18.08 28.5166 17.3166L19.0196 7.81967C17.9291 6.72911 16.1609 6.72911 15.0703 7.81967C13.9798 8.91024 13.9798 10.6784 15.0703 11.769L20.618 17.3166C21.3813 18.08 21.3813 19.3176 20.618 20.0809L15.0703 25.6286ZM17.4532 18.6987C17.4532 17.2684 16.2937 16.1088 14.8633 16.1088C13.433 16.1088 12.2735 17.2684 12.2735 18.6987C12.2735 20.129 13.433 21.2886 14.8633 21.2886C16.2937 21.2886 17.4532 20.129 17.4532 18.6987Z"/>
</svg>
