<svg width="17" height="18" viewBox="0 0 17 18" fill="none" xmlns="http://www.w3.org/2000/svg">
<path d="M7.50047 18.0001C8.85877 18.0001 9.99507 17.0317 10.256 15.75H4.74494C5.00601 17.0317 6.14227 18.0001 7.50047 18.0001ZM12.7595 8.9993C12.7565 8.9993 12.7535 9 12.7505 9C9.85623 9 7.50047 6.64494 7.50047 3.75001C7.50047 2.95418 7.68353 2.2019 8.00226 1.52542C7.8372 1.50974 7.66992 1.5 7.50047 1.5C4.60101 1.5 2.25048 3.85039 2.25048 6.74999V8.84099C2.25048 10.3252 1.60023 11.7263 0.459399 12.6907C0.0791465 13.0156 -0.0896046 13.533 0.0468729 14.0378C0.205886 14.625 0.786389 15.0001 1.39548 15.0001H13.6017C14.2407 15.0001 14.843 14.586 14.9727 13.9598C15.0732 13.4753 14.9007 12.9915 14.525 12.6758C13.4344 11.7616 12.8038 10.4182 12.7595 8.9993Z" fill="#001253"/>
<path d="M16.502 3.75007C16.502 5.82114 14.8231 7.5 12.7519 7.5C10.6808 7.5 9.00195 5.82114 9.00195 3.75007C9.00195 1.679 10.6808 0 12.7519 0C14.8231 0 16.502 1.679 16.502 3.75007Z" fill="#B42B2B"/>
</svg>
