<svg viewBox="0 0 22 22" xmlns="http://www.w3.org/2000/svg">
<path fill-rule="evenodd" clip-rule="evenodd" d="M11 0C4.917 0 0 4.917 0 11C0 17.083 4.917 22 11 22C17.083 22 22 17.083 22 11C22 4.917 17.083 0 11 0ZM14.5 16H15C15.2765 16 15.5 16.224 15.5 16.5C15.5 16.776 15.2765 17 15 17H7C6.7235 17 6.5 16.776 6.5 16.5C6.5 16.224 6.7235 16 7 16H7.5V14.3635C7.5 13.5495 7.8465 12.771 8.4515 12.226L9.298 11.4645C9.4315 11.3445 9.505 11.1795 9.505 11C9.505 10.8205 9.4315 10.6555 9.298 10.535L8.4515 9.7735C7.8465 9.2295 7.5 8.4505 7.5 7.6365V6H7C6.7235 6 6.5 5.776 6.5 5.5C6.5 5.224 6.7235 5 7 5H15C15.2765 5 15.5 5.224 15.5 5.5C15.5 5.776 15.2765 6 15 6H14.5V7.6365C14.5 8.4505 14.1535 9.229 13.5485 9.774L12.702 10.5355C12.5685 10.6555 12.495 10.8205 12.495 11C12.495 11.1795 12.5685 11.3445 12.702 11.465L13.5485 12.2265C14.1535 12.7705 14.5 13.5495 14.5 14.3635V16ZM9.403 13.442C9.143 13.702 9 14.047 9 14.4145V16H13.0005V14.4145C13.0005 14.047 12.8575 13.702 12.5975 13.442L11.2655 12.11C11.119 11.9635 10.8815 11.9635 10.735 12.11L9.403 13.442Z"/>
</svg>
