<svg width="61" height="61" viewBox="0 0 61 61" fill="none" xmlns="http://www.w3.org/2000/svg">
<circle cx="30.5" cy="30.5" r="30.5" fill="white"/>
<path d="M30.4786 41.0335C29.2838 41.0335 28.3151 40.0649 28.3151 38.8701V33.4939C28.3151 32.8314 27.7781 32.2943 27.1156 32.2943H22.5926C21.447 32.2943 20.5182 31.3656 20.5182 30.2199C20.5182 29.0742 21.447 28.1454 22.5926 28.1454H27.1156C27.7781 28.1454 28.3151 27.6084 28.3151 26.9459V21.5697C28.3151 20.3749 29.2838 19.4062 30.4786 19.4062C31.6734 19.4062 32.642 20.3749 32.642 21.5697V26.9393C32.642 27.6054 33.182 28.1454 33.8482 28.1454H38.4074C39.5531 28.1454 40.4818 29.0742 40.4818 30.2199C40.4818 31.3656 39.5531 32.2943 38.4074 32.2943H33.8482C33.182 32.2943 32.642 32.8343 32.642 33.5005V38.8701C32.642 40.0649 31.6734 41.0335 30.4786 41.0335Z" fill="#313E8C"/>
</svg>


