<svg viewBox="0 0 37 37" xmlns="http://www.w3.org/2000/svg">
<path fill-rule="evenodd" clip-rule="evenodd" d="M18.3053 36.9998C8.19835 36.9998 0.00506849 28.8065 0.00506893 18.6996C0.00506937 8.59269 8.19835 0.399413 18.3053 0.399413C28.4122 0.399414 36.6055 8.59269 36.6055 18.6996C36.6055 28.8065 28.4122 36.9998 18.3053 36.9998ZM21.9297 11.7704C23.0202 10.6798 23.0202 8.91164 21.9297 7.82107C20.8391 6.7305 19.0709 6.73051 17.9804 7.82107L8.4834 17.318C7.72008 18.0814 7.72008 19.319 8.4834 20.0823L17.9804 29.5792C19.0709 30.6698 20.8391 30.6698 21.9297 29.5792C23.0202 28.4887 23.0202 26.7205 21.9297 25.63L16.382 20.0823C15.6187 19.319 15.6187 18.0814 16.382 17.318L21.9297 11.7704ZM19.5468 18.7002C19.5468 20.1306 20.7063 21.2901 22.1367 21.2901C23.567 21.2901 24.7265 20.1306 24.7265 18.7002C24.7265 17.2699 23.567 16.1104 22.1367 16.1104C20.7063 16.1104 19.5468 17.2699 19.5468 18.7002Z"/>
</svg>
