<svg width="7" height="11" viewBox="0 0 7 11" fill="none" xmlns="http://www.w3.org/2000/svg">
<path d="M0.999996 11C0.802232 10.9999 0.608922 10.9413 0.444503 10.8314C0.280084 10.7215 0.151937 10.5653 0.076263 10.3826C0.000588626 10.1999 -0.0192161 9.99883 0.0193522 9.80486C0.0579205 9.61089 0.15313 9.43272 0.292946 9.29285L4.08579 5.5L0.292946 1.70715C0.200081 1.6143 0.126413 1.50407 0.0761492 1.38275C0.0258855 1.26143 9.97931e-06 1.13139 2.88593e-09 1.00007C-9.97353e-06 0.868751 0.0258459 0.738713 0.0760912 0.617384C0.126337 0.496055 0.199987 0.385811 0.292838 0.292946C0.385689 0.200081 0.495923 0.126413 0.617244 0.0761492C0.738565 0.0258855 0.868599 9.97654e-06 0.99992 2.88434e-09C1.13124 -9.97077e-06 1.26128 0.0258458 1.38261 0.0760911C1.50394 0.126336 1.61418 0.199987 1.70705 0.292838L6.20716 4.79274C6.30005 4.88559 6.37373 4.99583 6.42401 5.11717C6.47428 5.23851 6.50015 5.36856 6.50015 5.4999C6.50015 5.63123 6.47428 5.76129 6.42401 5.88262C6.37373 6.00396 6.30005 6.1142 6.20716 6.20705L1.70705 10.7072C1.6143 10.8002 1.50409 10.8739 1.38275 10.9242C1.26141 10.9744 1.13133 11.0002 0.999996 11Z" fill="#182056"/>
</svg>
