<svg viewBox="0 0 20 20" xmlns="http://www.w3.org/2000/svg">
<g clip-path="url(#clip0)">
<path d="M10.0013 0C7.14418 0 4.80859 2.33559 4.80859 5.19275C4.80859 8.04991 7.14418 10.3855 10.0013 10.3855C12.8585 10.3855 15.1941 8.04991 15.1941 5.19275C15.1941 2.33559 12.8585 0 10.0013 0Z"/>
<path d="M18.913 14.5355C18.7769 14.1954 18.5955 13.8779 18.3915 13.5831C17.3484 12.0412 15.7384 11.0208 13.9244 10.7713C13.6976 10.7487 13.4482 10.794 13.2668 10.93C12.3144 11.633 11.1806 11.9958 10.0014 11.9958C8.82228 11.9958 7.68851 11.633 6.73612 10.93C6.5547 10.794 6.30526 10.726 6.07853 10.7713C4.26446 11.0208 2.63183 12.0412 1.61143 13.5831C1.40735 13.8779 1.22592 14.2181 1.0899 14.5355C1.02189 14.6716 1.04454 14.8303 1.11256 14.9664C1.29398 15.2838 1.52071 15.6013 1.72479 15.8734C2.04224 16.3043 2.38239 16.6897 2.76789 17.0525C3.08534 17.37 3.44815 17.6648 3.81099 17.9595C5.60236 19.2974 7.75657 20.0003 9.97879 20.0003C12.201 20.0003 14.3552 19.2974 16.1466 17.9595C16.5094 17.6875 16.8722 17.37 17.1897 17.0525C17.5525 16.6897 17.9153 16.3042 18.2328 15.8734C18.4595 15.5786 18.6636 15.2838 18.845 14.9664C18.9583 14.8303 18.981 14.6715 18.913 14.5355Z"/>
</g>
<defs>
<clipPath id="clip0">
<rect width="20" height="20"/>
</clipPath>
</defs>
</svg>
