<svg viewBox="0 0 26 26" fill="none" xmlns="http://www.w3.org/2000/svg">
<g clip-path="url(#clip0_4418_1978)">
<path d="M17.8749 4.06301C17.8748 3.10984 18.2099 2.18697 18.8215 1.45588C19.433 0.724783 20.2822 0.232013 21.2204 0.0637831C22.1586 -0.104447 23.1261 0.0625745 23.9536 0.535627C24.7811 1.00868 25.4159 1.75764 25.747 2.65147C26.0781 3.5453 26.0843 4.52708 25.7646 5.42504C25.4449 6.323 24.8197 7.07997 23.9983 7.56349C23.1768 8.04702 22.2116 8.22632 21.2713 8.07002C20.331 7.91372 19.4756 7.43178 18.8548 6.70851L7.93807 11.7785C8.18903 12.5738 8.18903 13.4272 7.93807 14.2225L18.8548 19.2925C19.5111 18.5293 20.4273 18.0369 21.4259 17.9107C22.4245 17.7845 23.4344 18.0335 24.2599 18.6095C25.0853 19.1855 25.6676 20.0474 25.8938 21.0282C26.12 22.009 25.974 23.0389 25.4841 23.9182C24.9943 24.7975 24.1955 25.4637 23.2424 25.7876C22.2894 26.1115 21.2501 26.07 20.3259 25.6713C19.4017 25.2726 18.6584 24.5449 18.2401 23.6294C17.8218 22.7139 17.7583 21.6757 18.0618 20.716L7.14507 15.646C6.60465 16.2758 5.88431 16.725 5.08096 16.9331C4.2776 17.1413 3.42977 17.0984 2.65152 16.8103C1.87326 16.5222 1.20192 16.0026 0.727792 15.3215C0.253668 14.6404 -0.000488281 13.8304 -0.000488281 13.0005C-0.000488281 12.1706 0.253668 11.3607 0.727792 10.6795C1.20192 9.99843 1.87326 9.47886 2.65152 9.19073C3.42977 8.9026 4.2776 8.85972 5.08096 9.06787C5.88431 9.27602 6.60465 9.72521 7.14507 10.355L18.0618 5.28501C17.9376 4.8896 17.8745 4.47749 17.8749 4.06301Z" fill="#F1F1F1"/>
</g>
<defs>
<clipPath id="clip0_4418_1978">
<rect width="26" height="26" fill="white"/>
</clipPath>
</defs>
</svg>
