<svg viewBox="0 0 18 18" xmlns="http://www.w3.org/2000/svg">
<path d="M17.5708 12.8674L14.3833 10.2112C14.2349 10.0874 14.0283 10.0607 13.8532 10.1427C13.6782 10.2247 13.5664 10.4005 13.5664 10.5938V11.6895H11.9395C10.4636 11.6895 9.2168 10.4578 9.2168 9C9.2168 7.72082 8.81434 6.51448 8.05429 5.51314C6.96001 4.05811 5.22243 3.18945 3.40625 3.18945H2.31055C1.45005 3.18945 0.75 3.88951 0.75 4.75C0.75 5.61049 1.45005 6.31055 2.31055 6.31055H3.40625C4.88923 6.31055 6.0957 7.51702 6.0957 9C6.0957 10.2792 6.49816 11.4855 7.25821 12.4869C8.35249 13.9419 10.1025 14.8105 11.9395 14.8105H13.5664V15.9062C13.5664 16.0995 13.6782 16.2753 13.8532 16.3573C13.9206 16.3889 13.9927 16.4043 14.0644 16.4043C14.1787 16.4043 14.292 16.3649 14.3833 16.2888L17.5708 13.6326C17.6843 13.538 17.75 13.3978 17.75 13.25C17.75 13.1022 17.6844 12.962 17.5708 12.8674Z" />
<path d="M6.46349 13.0872C5.9508 12.4113 5.5773 11.657 5.35202 10.8535C4.86184 11.3678 4.17112 11.6892 3.40625 11.6892H2.31055C1.45005 11.6892 0.75 12.3893 0.75 13.2498C0.75 14.1103 1.45005 14.8103 2.31055 14.8103H3.40625C4.67989 14.8103 5.91451 14.3827 6.91609 13.6256C6.75664 13.4547 6.60514 13.2754 6.46349 13.0872Z" />
<path d="M17.5707 4.36741L14.3832 1.71116C14.2348 1.58745 14.0283 1.56075 13.8532 1.64273C13.6781 1.72471 13.5663 1.90052 13.5663 2.09376V3.18946H11.9394C10.6505 3.18946 9.40477 3.61762 8.39795 4.37538C8.55679 4.54611 8.70783 4.72511 8.84925 4.913C9.36652 5.59506 9.74208 6.35694 9.96663 7.16866C10.4671 6.64402 11.172 6.31056 11.9394 6.31056H13.5663V7.40626C13.5663 7.5995 13.6781 7.77531 13.8532 7.85729C14.0282 7.93924 14.2348 7.91258 14.3832 7.78886L17.5707 5.13261C17.6843 5.03798 17.7499 4.8978 17.7499 4.75001C17.7499 4.60222 17.6843 4.46204 17.5707 4.36741Z" />
</svg>
