<svg width="108" height="24" viewBox="0 0 108 24" fill="none" xmlns="http://www.w3.org/2000/svg">
<path d="M26.8652 4.51831C28.1516 4.51831 29.5753 4.67737 30.7484 5.21002C30.8475 5.25503 31.0503 5.36849 31.2425 5.54883C31.2793 5.58334 31.9469 5.41124 33.2455 5.03252C33.5435 4.94561 33.8536 5.08876 33.9899 5.35947L34.0325 5.46676L34.4885 6.99281C34.57 7.29965 34.4198 7.61442 34.1464 7.7459L34.0383 7.78624L33.0984 8.04311C33.1788 8.54479 33.2191 8.93594 33.2191 9.21654C33.2191 12.0207 31.5215 13.841 26.8895 13.841C26.1377 13.841 25.3859 13.7918 24.6584 13.6688C24.2946 13.841 24.1006 14.087 24.1006 14.3821C24.1006 14.7204 24.3655 14.9346 24.9887 15.0248L25.1677 15.0463L29.3389 15.2185C33.3403 15.3907 34.7226 16.7928 34.7226 19.0312C34.7226 22.0813 32.5158 24 27.0107 24C22.1848 24 20.2689 22.2289 20.2689 19.9413C20.2689 19.0312 20.6812 18.1948 21.4572 17.5799C20.8024 17.0633 20.3417 16.3254 20.3417 15.3415C20.3417 14.3329 20.9237 13.349 22.306 12.7095C21.1905 12.0207 20.5114 10.9138 20.5114 9.21654C20.5114 6.53535 22.209 4.51831 26.8652 4.51831ZM24.4159 18.3916C23.9793 18.7114 23.7853 19.1296 23.7853 19.4739C23.7853 20.4386 24.5841 20.9307 26.6274 20.9716L26.9137 20.9744C30.2604 20.999 31.0607 20.4579 31.0607 19.6461C31.0607 19.0647 30.6999 18.7476 29.1403 18.6208L28.6356 18.5884L24.4159 18.3916ZM78.7896 4.45357C83.9351 4.45357 86.1173 7.07724 86.1173 12.2265C86.1173 17.3757 83.9351 19.9504 78.7896 19.9504C73.6671 19.9504 71.439 17.3757 71.439 12.2265C71.439 7.07724 73.6671 4.45357 78.7896 4.45357ZM6.32957 4.49241C7.65715 4.49241 8.98472 4.68798 10.2079 5.04383L10.5914 5.1649C10.8955 5.27127 11.0691 5.57423 11.0232 5.8776L10.9955 5.991L10.3374 7.92592C10.2551 8.16763 10.0259 8.3189 9.78238 8.30631L9.67755 8.29067L9.41539 8.22772C8.26777 7.96774 7.05068 7.83775 6.15981 7.83775C4.77749 7.83775 4.00145 8.28052 4.00145 8.99387C4.00145 11.1339 11.8346 9.63342 11.8346 14.8728C11.8346 17.7754 10.0158 19.94 5.48077 19.94C3.731 19.94 2.18138 19.6862 0.859585 19.1506L0.599302 19.0373C0.332294 18.9151 0.185862 18.6275 0.231803 18.343L0.258189 18.2369L0.926141 16.2672C1.01249 16.036 1.24618 15.9053 1.47772 15.9433L1.57639 15.9701L2.01572 16.126C3.20574 16.515 4.52591 16.6931 5.55353 16.6931C7.22686 16.6931 7.93015 16.0781 7.93015 15.291C7.93015 13.0526 0 14.6022 0 9.19065C0 6.38647 2.0371 4.49241 6.32957 4.49241ZM18.1265 5.557C18.1403 5.60952 18.1474 5.66365 18.1474 5.71801V19.0776C18.1474 19.4215 17.8725 19.7003 17.5334 19.7003H14.5648C14.2257 19.7003 13.9508 19.4215 13.9508 19.0776V6.52394C13.9508 6.24203 14.1375 5.99529 14.406 5.9224L17.3747 5.11646C17.7022 5.02754 18.0388 5.22478 18.1265 5.557ZM39.8988 4.37446L39.939 4.48392L40.474 6.46864C41.7593 5.42447 43.4084 4.45357 45.1545 4.45357C48.6675 4.45357 50.8969 6.5685 51.0181 10.41L51.0233 10.7435V19.048C51.0233 19.3658 50.7975 19.6301 50.4998 19.6849L50.3851 19.6953H47.4903C47.177 19.6953 46.9164 19.4663 46.8624 19.1644L46.8521 19.048V10.7435C46.8521 8.90373 45.8578 8.10817 43.9904 8.10817C42.9492 8.10817 41.8236 8.83653 41.1457 9.58046L41.0075 9.73985V19.048C41.0075 19.3658 40.7818 19.6301 40.4841 19.6849L40.3693 19.6953H37.4745C37.1612 19.6953 36.9006 19.4663 36.8466 19.1644L36.8363 19.048V5.16669C36.8363 4.91135 36.9837 4.68363 37.2065 4.57918L37.3064 4.54225L39.1551 4.03007C39.4195 3.95694 39.6905 4.06357 39.8417 4.27678L39.8988 4.37446ZM57.5442 0.220054L57.6184 0.307529L65.2677 11.1468L65.2223 0.719383L65.2255 0.651307C65.2571 0.335142 65.508 0.0952602 65.8096 0.0711541L65.9248 0.0725012L68.7437 0.362055C69.0334 0.391811 69.2616 0.615008 69.3087 0.89759L69.3176 1.00608V19.0441C69.3176 19.3619 69.0919 19.6262 68.7942 19.681L68.6794 19.6914H66.554C66.3838 19.6914 66.2225 19.6226 66.1041 19.5032L66.0239 19.4045L57.6681 6.75803L57.6911 19.0435C57.6911 19.3618 57.4654 19.6262 57.1677 19.681L57.053 19.6914H54.2078C53.8945 19.6914 53.634 19.4625 53.5799 19.1605L53.5697 19.0441V1.00199C53.5697 0.708193 53.7636 0.456339 54.0343 0.379L54.1391 0.358437L57.0307 0.040747C57.2215 0.0197804 57.4093 0.0870914 57.5442 0.220054ZM87.4436 4.47591L90.5136 5.29396C90.7521 5.35752 90.9332 5.55481 90.9787 5.80068L92.6657 14.922L92.842 16.1623L93.0793 14.9137L94.856 6.56461C94.9202 6.26303 95.1852 6.04931 95.4894 6.05394L99.4819 6.1147C99.7798 6.11923 100.035 6.33218 100.097 6.62777L101.829 14.9197L102.015 16.1338L102.219 14.9164L103.964 5.9743C104.017 5.70588 104.23 5.49987 104.497 5.4597L107.268 5.04251C107.617 4.99003 107.941 5.23415 107.993 5.58778C108.005 5.67072 108.001 5.75526 107.982 5.83671L104.758 19.1975C104.688 19.4871 104.432 19.6909 104.138 19.6909H100.038C99.7398 19.6909 99.4813 19.4814 99.4155 19.1863L97.6823 11.4107L97.497 10.1021L97.222 11.4234L95.2967 19.2012C95.2255 19.489 94.9704 19.6909 94.6778 19.6909H90.5931C90.2982 19.6909 90.0418 19.486 89.9727 19.1952L86.661 5.25361C86.5785 4.90605 86.7893 4.55641 87.132 4.47267C87.2345 4.44761 87.3416 4.44872 87.4436 4.47591ZM78.7896 7.81285C76.4236 7.81285 75.5278 8.89174 75.5278 12.202C75.5278 15.5367 76.4236 16.6156 78.7896 16.6156C81.1327 16.6156 81.9826 15.5122 81.9826 12.202C81.9826 8.89174 81.1327 7.81285 78.7896 7.81285ZM26.9137 7.56847C25.2162 7.56847 24.6341 8.10963 24.6341 9.31493C24.6341 10.6924 25.5072 11.0368 26.8167 11.0368C28.6841 11.0368 29.1934 10.5448 29.1934 9.31493C29.1934 8.06043 28.5628 7.56847 26.9137 7.56847ZM18.1294 0.461774C18.1432 0.514318 18.1503 0.568479 18.1503 0.622875V2.31855C18.1503 2.60042 17.9636 2.84715 17.6952 2.92007L14.7292 3.72579C14.4016 3.81477 14.065 3.61759 13.9773 3.28537C13.9634 3.23283 13.9564 3.17867 13.9564 3.12427V1.4286C13.9564 1.14672 14.1431 0.9 14.4115 0.827078L17.3775 0.0213541C17.705 -0.0676193 18.0416 0.129564 18.1294 0.461774Z" fill="#3577CA"/>
</svg>
