<svg width="12" height="12" viewBox="0 0 12 12" fill="none" xmlns="http://www.w3.org/2000/svg">
<path d="M11.2406 4.82121L2.27855 0.184517C1.80296 -0.0615462 1.23515 -0.0614489 0.759553 0.184468C0.283961 0.430483 0 0.87121 0 1.36329V10.6367C0 11.1287 0.283906 11.5694 0.759553 11.8155C0.997322 11.9385 1.25808 12 1.51894 12C1.77986 12 2.04073 11.9384 2.2785 11.8154L11.2406 7.1788C11.7161 6.93269 12 6.49201 12 5.99993C12 5.5079 11.7161 5.06722 11.2406 4.82121ZM10.5147 6.05235L1.55261 10.689C1.54166 10.6947 1.51883 10.7065 1.48528 10.689C1.45162 10.6716 1.45162 10.648 1.45162 10.6367V1.36334C1.45162 1.35201 1.45162 1.32848 1.48528 1.31106C1.49846 1.30422 1.50996 1.30188 1.51976 1.30188C1.53498 1.30188 1.54596 1.30757 1.55267 1.31103L1.55272 1.31106L10.5147 5.94775C10.5257 5.95341 10.5484 5.96518 10.5484 6.00003C10.5484 6.03483 10.5256 6.04666 10.5147 6.05233L10.5147 6.05235Z" fill="#182056"/>
<path d="M10.5147 6.05235L1.55261 10.689C1.54166 10.6947 1.51883 10.7065 1.48528 10.689C1.45162 10.6716 1.45162 10.648 1.45162 10.6367V1.36334C1.45162 1.35201 1.45162 1.32848 1.48528 1.31106C1.49846 1.30422 1.50996 1.30188 1.51976 1.30188C1.53498 1.30188 1.54596 1.30757 1.55267 1.31103L1.55272 1.31106L10.5147 5.94775C10.5257 5.95341 10.5484 5.96518 10.5484 6.00003C10.5484 6.03483 10.5256 6.04666 10.5147 6.05233L10.5147 6.05235Z" fill="#182056"/>
</svg>
