<svg width="136" height="32" viewBox="0 0 136 32" fill="none" xmlns="http://www.w3.org/2000/svg">
<path d="M0.198501 7.61127C0.00320576 7.76434 0.00320576 7.77454 0.00320576 10.9175C0.00320576 14.7135 -0.138827 14.3869 1.46792 14.3869C2.99478 14.3869 2.93264 14.4686 2.93264 12.4889V10.9175H4.29083C6.03962 10.9175 5.95085 11.0093 5.95085 9.20315C5.95085 7.29494 6.21716 7.448 2.99478 7.448C0.784388 7.448 0.367166 7.46841 0.198501 7.61127Z" fill="#031131"/>
<path d="M38.8957 7.60841C38.7247 7.75133 38.7165 7.833 38.7165 9.1703C38.7165 11.0078 38.6351 10.9159 40.2068 10.9159H41.404V12.3962C41.404 13.8458 41.4121 13.8968 41.6076 14.1316C41.7949 14.3766 41.8519 14.3868 42.8047 14.3868C44.3031 14.3868 44.1728 14.7135 44.1728 10.9568C44.1728 7.98612 44.1647 7.84321 44.0099 7.64925C43.8552 7.45529 43.7412 7.44508 41.461 7.44508C39.4332 7.44508 39.0504 7.46549 38.8957 7.60841Z" fill="#031131"/>
<path d="M6.10643 14.5276C5.97375 14.6461 5.95605 14.9202 5.95605 16.8463C5.95605 18.6984 5.97375 19.054 6.09759 19.1947C6.23028 19.3577 6.23912 19.3577 8.9548 19.3577C11.3874 19.3577 11.697 19.3429 11.8032 19.2318C11.8916 19.1503 11.9358 18.8021 11.9535 17.9724L11.9801 16.8389H13.3335C14.2623 16.8389 14.7134 16.8093 14.7842 16.75C14.855 16.6908 14.8904 16.3352 14.8904 15.6462C14.8904 14.8165 14.8638 14.6017 14.7488 14.5128C14.625 14.409 14.1119 14.3942 10.4321 14.3942C6.49565 14.3942 6.23912 14.4016 6.10643 14.5276Z" fill="#031131"/>
<path d="M17.9722 14.5779C17.8556 14.7366 17.839 15.1459 17.839 17.3761V19.9906H16.6402C15.5829 19.9906 15.4164 20.0073 15.2499 20.1493L15.0501 20.308L15.0251 22.9893L15.0001 25.6705H13.7763C13.102 25.6705 12.4943 25.7123 12.4277 25.7541C12.3278 25.8125 12.2945 26.1049 12.2612 27.149L12.2196 28.4688L10.9292 28.4938C9.83859 28.5105 9.62214 28.5356 9.53889 28.6525C9.46396 28.7444 9.43066 29.1454 9.43066 29.8971C9.43066 30.7909 9.45564 31.0331 9.56386 31.1334C9.67209 31.2503 10.0301 31.267 12.2029 31.267C13.6348 31.267 14.767 31.2336 14.8419 31.1835C14.9418 31.125 14.9751 30.8327 15.0084 29.7885L15.0501 28.4688L16.3654 28.427C17.4061 28.3936 17.6974 28.3602 17.7557 28.26C17.8057 28.1848 17.839 26.9987 17.839 25.4784V22.8306H22.0847H26.3305V25.5285C26.3305 27.5165 26.3555 28.2516 26.4304 28.3268C26.497 28.3936 26.9216 28.427 27.804 28.427H29.0778V29.6632C29.0778 30.6405 29.1027 30.9329 29.211 31.0832C29.3358 31.267 29.3442 31.267 31.9083 31.267C35.0052 31.267 34.7388 31.4006 34.7388 29.8888C34.7388 28.4521 34.8054 28.5105 33.1903 28.5105H31.9083V27.2743C31.9083 25.5787 31.9999 25.6705 30.3598 25.6705H29.0778V23.0143C29.0778 20.8509 29.0528 20.3247 28.9612 20.191C28.853 20.049 28.7115 20.0323 27.546 20.0073L26.2473 19.9822V17.326C26.2473 14.8619 26.2389 14.6614 26.0974 14.5361C25.9559 14.4108 25.5563 14.3941 22.0181 14.3941H18.097L17.9722 14.5779Z" fill="#031131"/>
<path d="M29.9225 14.5572C29.8169 14.6831 29.7817 14.9276 29.7817 15.6166C29.7817 16.8908 29.7112 16.8389 31.4188 16.8389H32.7743V17.9798C32.7743 18.9206 32.8007 19.1429 32.9151 19.2392C33.0295 19.3429 33.408 19.3577 35.7141 19.3577C37.8706 19.3577 38.4075 19.3355 38.5483 19.254C38.7068 19.1503 38.7156 19.0392 38.7156 16.8908C38.7156 15.0906 38.6892 14.6165 38.5923 14.5202C38.4867 14.409 38.073 14.3942 34.2618 14.3942H30.0545L29.9225 14.5572Z" fill="#031131"/>
<path d="M6.13012 24.5379C5.98708 24.7183 5.95643 25.0432 5.95643 26.3304C5.95643 28.3757 5.88491 28.2914 7.72404 28.2914C9.48144 28.2914 9.43035 28.3516 9.43035 26.3064C9.43035 24.2612 9.48144 24.3213 7.70361 24.3213C6.4673 24.3213 6.27317 24.3454 6.13012 24.5379Z" fill="#031131"/>
<path d="M34.9456 24.5377C34.7797 24.7182 34.7441 25.0311 34.7441 26.2945C34.7441 27.1368 34.8034 27.9309 34.8627 28.0633C34.9812 28.2679 35.1353 28.2919 36.6881 28.2919C38.1223 28.2919 38.4186 28.2558 38.549 28.0874C38.6675 27.943 38.7149 27.4737 38.7149 26.3065C38.7149 25.1394 38.6675 24.6701 38.549 24.5257C38.4186 24.3572 38.1341 24.3211 36.7592 24.3211C35.3368 24.3211 35.1116 24.3452 34.9456 24.5377Z" fill="#031131"/>
<path d="M124.135 10.0967C124.093 10.1956 124.079 13.715 124.093 17.9128L124.135 25.5451H125.456C126.721 25.5451 126.777 25.531 126.819 25.22C126.874 24.8384 126.874 24.8384 127.736 25.2624C129.836 26.2942 132.451 25.8419 134.203 24.1317C136.094 22.2943 136.525 19.6654 135.343 17.2061C133.952 14.351 130.114 13.1496 127.431 14.7468C127.18 14.8881 126.944 15.0153 126.902 15.0153C126.874 15.0153 126.846 13.8705 126.846 12.4712V9.92709H125.525C124.594 9.92709 124.177 9.98363 124.135 10.0967ZM131.547 17.2626C133.716 18.3933 133.702 21.5593 131.533 22.5911C128.585 23.9762 125.943 20.5558 127.959 17.941C128.752 16.9234 130.309 16.6266 131.547 17.2626Z" fill="#031131"/>
<path d="M53.1088 14.5989C49.8613 15.4461 49.06 18.9304 51.7592 20.4608C52.0825 20.6521 53.0947 20.9937 53.9944 21.2123C55.6392 21.6223 56.3702 21.8955 56.5389 22.1688C56.7217 22.4558 56.4686 22.9887 56.0469 23.1936C55.5408 23.4396 53.6711 23.4669 51.9982 23.2346C51.1547 23.1253 50.7892 23.1253 50.6767 23.2346C50.5924 23.3166 50.494 23.8085 50.4518 24.3277C50.3956 25.1749 50.4237 25.2979 50.6627 25.4345C51.0422 25.6258 54.5146 25.8855 55.3299 25.7898C55.6814 25.7352 56.4124 25.5848 56.9466 25.4345C59.4208 24.7377 60.3768 22.1142 58.7741 20.3925C58.1837 19.7639 57.4105 19.4223 55.4564 18.9577C53.6148 18.5068 53.0525 18.2062 53.1228 17.7007C53.1509 17.5094 53.3337 17.2224 53.5586 17.0584C53.9241 16.7988 54.1631 16.7715 56.0188 16.7578C57.1575 16.7578 58.1697 16.7442 58.2681 16.7305C58.4086 16.7032 58.4368 16.4299 58.4086 15.651L58.3665 14.5852L57.8041 14.4896C56.806 14.3256 53.9101 14.3803 53.1088 14.5989Z" fill="#031131"/>
<path d="M79.7454 14.6305C79.131 14.8817 79.0167 14.8957 78.7452 14.7143C78.5594 14.5747 78.1022 14.5049 77.4734 14.5049C75.8016 14.5049 75.9445 13.9745 75.9445 20.1297C75.9445 24.1075 75.9873 25.5172 76.1159 25.6428C76.3446 25.8661 78.5451 25.8661 78.7738 25.6428C78.9024 25.5172 78.9452 24.5402 78.9452 22.1256C78.9452 18.9014 78.9595 18.734 79.2739 18.2175C80.1027 16.7939 82.2318 16.7799 83.2892 18.1757C83.575 18.5525 83.5893 18.8037 83.6607 22.1535L83.7322 25.7405H85.0897H86.4472L86.5186 22.321C86.5901 19.2085 86.6187 18.8456 86.8902 18.3432C87.7047 16.8218 90.1767 16.752 91.1055 18.2315C91.4342 18.7479 91.4485 18.8875 91.5199 22.2512L91.5914 25.7405H92.9489H94.3064V21.972V18.2036L93.9206 17.408C93.3918 16.3054 92.5202 15.4261 91.3913 14.8817C90.534 14.477 90.3339 14.4351 89.0907 14.4351C87.5332 14.4351 86.733 14.6724 85.7184 15.44L85.0754 15.9146L84.5467 15.468C83.7322 14.7701 82.8748 14.463 81.5888 14.4072C80.7028 14.3653 80.2884 14.4212 79.7454 14.6305Z" fill="#031131"/>
<path d="M100.785 14.5721C99.0247 15.0518 97.9227 16.0936 97.8082 17.4369C97.708 18.5472 97.8797 19.1091 98.4522 19.726C99.1393 20.4662 99.769 20.7403 101.758 21.2475C103.648 21.7135 104.177 21.9328 104.249 22.2755C104.349 22.6867 104.063 23.1117 103.605 23.2761C103.047 23.4543 101.2 23.4543 99.5973 23.2624C98.0801 23.0705 98.0658 23.0705 98.0658 24.4001C98.0658 25.154 98.1087 25.3459 98.3234 25.4556C98.8244 25.716 102.274 25.9079 103.404 25.7572C104.821 25.5515 106.152 24.8936 106.711 24.126C107.083 23.6188 107.154 23.3721 107.197 22.536C107.24 21.7272 107.197 21.4257 106.954 20.9596C106.41 19.959 105.179 19.3285 102.846 18.8898C101.229 18.5746 100.613 18.1222 100.871 17.4232C101.086 16.8063 101.801 16.6556 103.991 16.7515C105.265 16.8063 105.895 16.7926 106.024 16.683C106.253 16.5048 106.296 14.9696 106.095 14.6543C105.895 14.3527 101.844 14.2979 100.785 14.5721Z" fill="#031131"/>
<path d="M62.2598 14.6333C62.0343 14.8275 62.0193 15.2297 62.0644 18.3368C62.1395 22.3315 62.2448 22.7754 63.4473 24.0515C66.4237 27.1862 72.2261 25.924 73.2483 21.9015C73.3836 21.3744 73.4587 20.0845 73.4587 17.9068C73.4587 14.1756 73.564 14.3975 71.8503 14.3975C70.2268 14.3975 70.317 14.1894 70.2719 18.2258L70.2268 21.7073L69.821 22.1928C69.0092 23.1776 67.4309 23.3857 66.2584 22.6783C65.2512 22.068 65.1911 21.7906 65.1911 18.0177C65.1911 14.1478 65.2963 14.3975 63.5526 14.3975C62.7859 14.3975 62.4402 14.453 62.2598 14.6333Z" fill="#031131"/>
<path d="M109.927 14.5773C109.683 14.7439 109.668 15.0494 109.714 18.3538C109.76 21.9359 109.76 21.9637 110.171 22.7551C111.01 24.3934 112.657 25.5319 114.518 25.754C117.11 26.0734 119.443 25.0182 120.617 22.9772L121.044 22.2413L121.09 18.4371C121.136 15.4104 121.105 14.6051 120.938 14.5218C120.633 14.3413 118.467 14.369 118.254 14.5634C118.116 14.6884 118.071 15.6464 118.071 17.9928C118.071 20.964 118.04 21.2972 117.766 21.8109C117.141 22.9772 115.555 23.4493 114.258 22.8384C113.877 22.6579 113.42 22.3108 113.237 22.047C112.901 21.5888 112.886 21.4777 112.886 18.2011C112.886 15.3271 112.855 14.7995 112.642 14.619C112.337 14.3413 110.339 14.3135 109.927 14.5773Z" fill="#031131"/>
<path fill-rule="evenodd" clip-rule="evenodd" d="M10.5141 10.4234H33.6606C33.985 10.4234 34.2479 10.1603 34.2479 9.83602V7.53623C34.2479 7.21186 33.985 6.94889 33.6606 6.94889H30.7734V4.06176C30.7734 3.73755 30.5105 3.47442 30.1861 3.47442H27.2991V0.587391C27.2991 0.26302 27.0361 0 26.7117 0H17.4631C17.1387 0 16.8757 0.26302 16.8757 0.587391V3.47442H13.9886C13.6642 3.47442 13.4012 3.73755 13.4012 4.06176V6.94889H10.5141C10.1897 6.94889 9.92676 7.21186 9.92676 7.53623V9.83602C9.92676 10.1603 10.1897 10.4234 10.5141 10.4234Z" fill="#2BD4AB"/>
</svg>
